<svg width="50" height="50" viewBox="0 0 50 50" fill="none" xmlns="http://www.w3.org/2000/svg">
<path d="M2.67652 0.448486C1.81533 0.632336 0.99285 1.23227 0.567094 2.00637L0.276805 2.52888L0.247777 24.8521L0.228424 47.1753L0.431626 47.7171C0.702562 48.4332 1.38958 49.1299 2.1153 49.4008L2.65717 49.604H24.9997H47.3422L47.8841 49.4008C48.6002 49.1299 49.2969 48.4332 49.5678 47.7171C49.771 47.1849 49.771 47.0978 49.771 35.9701C49.771 23.3813 49.8194 24.2715 49.0356 23.391C48.7937 23.12 48.3776 22.8007 48.097 22.6652C47.7196 22.4911 45.2618 21.9685 38.382 20.6042L29.1702 18.785L29.1412 12.4471L29.1121 6.10911L28.8412 5.55756C28.5412 4.94796 28.009 4.43511 27.3607 4.12547C27.0317 3.98033 24.1675 3.50619 15.4879 2.19022C9.19834 1.24194 3.83768 0.438808 3.56674 0.409779C3.30548 0.380753 2.89908 0.400105 2.67652 0.448486ZM14.8396 4.27062C21.0421 5.20922 26.2383 6.02203 26.3931 6.08008C26.5382 6.13814 26.7511 6.32199 26.8479 6.48648C27.022 6.77678 27.0317 7.39606 27.0317 27.126V47.4752H23.9837H20.9453L20.9163 42.4629L20.8873 37.4603L20.6164 36.9184C20.3067 36.2798 19.6584 35.6411 19.0198 35.3508C18.5747 35.1476 18.4585 35.138 14.6848 35.138H10.8046L10.1369 35.4766C9.6628 35.7185 9.37251 35.9508 9.11125 36.2991C8.45326 37.1603 8.45326 37.17 8.45326 42.6081V47.4752H5.79229C2.8894 47.4752 2.69588 47.4462 2.47332 46.943C2.30882 46.5947 2.30882 3.43846 2.46365 3.12881C2.62814 2.79982 2.95714 2.57727 3.27645 2.57727C3.43127 2.57727 8.62744 3.34169 14.8396 4.27062ZM38.3046 22.8007C47.1003 24.5328 47.11 24.5328 47.3809 24.8327L47.6422 25.123V35.9121C47.6422 44.0595 47.6132 46.7495 47.5261 46.943C47.2745 47.4946 47.6422 47.4752 38.0143 47.4752H29.1605V34.2284C29.1605 21.6589 29.1702 20.9816 29.3347 21.0203C29.4218 21.0396 33.4665 21.8427 38.3046 22.8007ZM18.294 37.4699C18.7779 37.8376 18.7972 37.9731 18.7972 42.8983L18.8069 47.4752H14.6945H10.582V42.7822C10.582 38.9214 10.6111 38.0312 10.7175 37.8183C10.8433 37.5764 11.0659 37.4119 11.4529 37.2764C11.5303 37.2474 13.0398 37.2377 14.8106 37.2474C17.8973 37.2667 18.0328 37.2764 18.294 37.4699Z" fill="#16A6EC"/>
<path d="M6.9632 10.4634C6.54712 10.6859 6.431 10.8891 6.42133 11.4117C6.42133 11.8084 6.46971 11.9245 6.70194 12.1664L6.98255 12.447H9.51774H12.0529L12.3335 12.1664C12.5658 11.9245 12.6141 11.7987 12.6141 11.4117C12.6141 10.8891 12.4109 10.5795 11.9658 10.4053C11.84 10.3569 10.7176 10.3182 9.48871 10.3182C7.66957 10.3182 7.18575 10.3473 6.9632 10.4634Z" fill="#16A6EC"/>
<path d="M17.2007 10.5021C16.6104 10.8601 16.533 11.6923 17.0362 12.1954L17.2877 12.447H19.7939C21.3324 12.447 22.3775 12.4083 22.4936 12.3503C22.7452 12.2051 22.9677 11.7503 22.9677 11.3439C22.9677 11.102 22.8806 10.9085 22.6871 10.6859L22.4065 10.3666L19.9487 10.3376C17.6845 10.3182 17.4813 10.3279 17.2007 10.5021Z" fill="#16A6EC"/>
<path d="M6.9632 16.6563C6.54712 16.8788 6.431 17.082 6.42133 17.6045C6.42133 18.0013 6.46971 18.1174 6.70194 18.3593L6.98255 18.6399H9.51774H12.0529L12.3335 18.3593C12.5658 18.1174 12.6141 17.9916 12.6141 17.6045C12.6141 17.082 12.4109 16.7724 11.9658 16.5982C11.84 16.5498 10.7176 16.5111 9.48871 16.5111C7.66957 16.5111 7.18575 16.5401 6.9632 16.6563Z" fill="#16A6EC"/>
<path d="M17.2007 16.695C16.6104 17.053 16.533 17.8851 17.0362 18.3883L17.2877 18.6399H19.7939C21.3324 18.6399 22.3775 18.6012 22.4936 18.5431C22.7452 18.398 22.9677 17.9432 22.9677 17.5368C22.9677 17.2949 22.8806 17.1014 22.6871 16.8788L22.4065 16.5595L19.9487 16.5305C17.6845 16.5111 17.4813 16.5208 17.2007 16.695Z" fill="#16A6EC"/>
<path d="M6.9632 22.8491C6.54712 23.0717 6.431 23.2749 6.42133 23.7974C6.42133 24.1941 6.46971 24.3102 6.70194 24.5522L6.98255 24.8328H9.51774H12.0529L12.3335 24.5522C12.5658 24.3102 12.6141 24.1845 12.6141 23.7974C12.6141 23.2749 12.4109 22.9652 11.9658 22.7911C11.84 22.7427 10.7176 22.704 9.48871 22.704C7.66957 22.704 7.18575 22.733 6.9632 22.8491Z" fill="#16A6EC"/>
<path d="M17.2007 22.8878C16.6104 23.2459 16.533 24.078 17.0362 24.5812L17.2877 24.8328H19.7939C21.3324 24.8328 22.3775 24.7941 22.4936 24.736C22.7452 24.5909 22.9677 24.1361 22.9677 23.7297C22.9677 23.4878 22.8806 23.2942 22.6871 23.0717L22.4065 22.7524L19.9487 22.7233C17.6845 22.704 17.4813 22.7137 17.2007 22.8878Z" fill="#16A6EC"/>
<path d="M6.9632 29.0418C6.54712 29.2643 6.431 29.4675 6.42133 29.99C6.42133 30.3868 6.46971 30.5029 6.70194 30.7448L6.98255 31.0254H9.51774H12.0529L12.3335 30.7448C12.5658 30.5029 12.6141 30.3771 12.6141 29.99C12.6141 29.4675 12.4109 29.1579 11.9658 28.9837C11.84 28.9353 10.7176 28.8966 9.48871 28.8966C7.66957 28.8966 7.18575 28.9256 6.9632 29.0418Z" fill="#16A6EC"/>
<path d="M17.2007 29.0805C16.6104 29.4385 16.533 30.2706 17.0362 30.7738L17.2877 31.0254H19.7939C21.3324 31.0254 22.3775 30.9867 22.4936 30.9286C22.7452 30.7835 22.9677 30.3287 22.9677 29.9223C22.9677 29.6804 22.8806 29.4869 22.6871 29.2643L22.4065 28.945L19.9487 28.916C17.6845 28.8966 17.4813 28.9063 17.2007 29.0805Z" fill="#16A6EC"/>
<path d="M35.7789 29.0805C35.1886 29.4385 35.1112 30.2706 35.6144 30.7738L35.866 31.0254H38.3721C39.9106 31.0254 40.9557 30.9867 41.0718 30.9286C41.3234 30.7835 41.5459 30.3287 41.5459 29.9223C41.5459 29.6804 41.4589 29.4869 41.2653 29.2643L40.9847 28.945L38.5269 28.916C36.2627 28.8966 36.0595 28.9063 35.7789 29.0805Z" fill="#16A6EC"/>
<path d="M35.7789 35.2733C35.1886 35.6314 35.1112 36.4635 35.6144 36.9667L35.866 37.2183H38.3721C39.9106 37.2183 40.9557 37.1796 41.0718 37.1215C41.3234 36.9764 41.5459 36.5216 41.5459 36.1152C41.5459 35.8733 41.4589 35.6797 41.2653 35.4572L40.9847 35.1379L38.5269 35.1088C36.2627 35.0895 36.0595 35.0992 35.7789 35.2733Z" fill="#16A6EC"/>
<path d="M35.7789 41.4662C35.1886 41.8242 35.1112 42.6564 35.6144 43.1595L35.866 43.4111H38.3721C39.9106 43.4111 40.9557 43.3724 41.0718 43.3144C41.3234 43.1692 41.5459 42.7144 41.5459 42.308C41.5459 42.0661 41.4589 41.8726 41.2653 41.65L40.9847 41.3307L38.5269 41.3017C36.2627 41.2824 36.0595 41.292 35.7789 41.4662Z" fill="#16A6EC"/>
</svg>
