<svg width="520" height="343" viewBox="0 0 520 343" fill="none" xmlns="http://www.w3.org/2000/svg">
<path opacity="0.2" d="M306.932 1H312.906" stroke="black" stroke-width="0.562733" stroke-linecap="round" stroke-linejoin="round"/>
<path opacity="0.2" d="M317.314 1H328.6V65.6789H276.049V1H301.265" stroke="black" stroke-width="0.562733" stroke-linecap="round" stroke-linejoin="round"/>
<path opacity="0.2" d="M384.384 1H331.832V65.6788H384.384V1Z" stroke="black" stroke-width="0.562733" stroke-linecap="round" stroke-linejoin="round"/>
<path opacity="0.2" d="M427.154 1H440.171V65.6789H387.619V1H421.171" stroke="black" stroke-width="0.562733" stroke-linecap="round" stroke-linejoin="round"/>
<path opacity="0.2" d="M495.956 49.7355V65.6789H443.404V1H495.956V46.2994" stroke="black" stroke-width="0.562733" stroke-linecap="round" stroke-linejoin="round"/>
<path opacity="0.2" d="M328.6 69.7214H276.049V134.4H328.6V69.7214Z" stroke="black" stroke-width="0.562733" stroke-linecap="round" stroke-linejoin="round"/>
<path opacity="0.2" d="M331.832 89.998V69.7212H384.384V134.4H331.832V95.8434" stroke="black" stroke-width="0.562733" stroke-linecap="round" stroke-linejoin="round"/>
<path opacity="0.2" d="M440.171 69.7212H387.619V134.4H440.171V69.7212Z" stroke="black" stroke-width="0.562733" stroke-linecap="round" stroke-linejoin="round"/>
<path opacity="0.2" d="M456.558 69.7214H495.956V134.4H443.404V69.7214H452.427" stroke="black" stroke-width="0.562733" stroke-linecap="round" stroke-linejoin="round"/>
<path opacity="0.2" d="M328.6 138.443H276.049V203.121H328.6V138.443Z" stroke="black" stroke-width="0.562733" stroke-linecap="round" stroke-linejoin="round"/>
<path opacity="0.2" d="M384.384 138.443H331.832V203.121H384.384V138.443Z" stroke="black" stroke-width="0.562733" stroke-linecap="round" stroke-linejoin="round"/>
<path opacity="0.2" d="M440.171 138.443H387.619V203.121H440.171V138.443Z" stroke="black" stroke-width="0.562733" stroke-linecap="round" stroke-linejoin="round"/>
<path opacity="0.2" d="M495.956 192.878V203.121H443.404V161.226" stroke="black" stroke-width="0.562733" stroke-linecap="round" stroke-linejoin="round"/>
<path opacity="0.2" d="M495.957 183.249V189.094" stroke="black" stroke-width="0.562733" stroke-linecap="round" stroke-linejoin="round"/>
<path opacity="0.2" d="M443.404 155.72V138.443H495.956V179.465" stroke="black" stroke-width="0.562733" stroke-linecap="round" stroke-linejoin="round"/>
<path opacity="0.2" d="M328.6 207.164H276.049V271.843H328.6V207.164Z" stroke="black" stroke-width="0.562733" stroke-linecap="round" stroke-linejoin="round"/>
<path opacity="0.2" d="M384.384 207.164H331.832V271.843H384.384V207.164Z" stroke="black" stroke-width="0.562733" stroke-linecap="round" stroke-linejoin="round"/>
<path opacity="0.2" d="M440.171 207.164H387.619V271.843H440.171V207.164Z" stroke="black" stroke-width="0.562733" stroke-linecap="round" stroke-linejoin="round"/>
<path opacity="0.2" d="M455.871 271.843H443.404V207.164H495.956V271.843H461.029" stroke="black" stroke-width="0.562733" stroke-linecap="round" stroke-linejoin="round"/>
<g opacity="0.2">
<path d="M107.079 69.5838C124.864 69.5838 139.281 55.1665 139.281 37.3818C139.281 19.5971 124.864 5.17981 107.079 5.17981C89.2943 5.17981 74.877 19.5971 74.877 37.3818C74.877 55.1665 89.2943 69.5838 107.079 69.5838Z" stroke="black" stroke-width="0.562733" stroke-linecap="round" stroke-linejoin="round"/>
<path d="M107.079 65.0644C122.368 65.0644 134.762 52.6705 134.762 37.3819C134.762 22.0932 122.368 9.69934 107.079 9.69934C91.7904 9.69934 79.3965 22.0932 79.3965 37.3819C79.3965 52.6705 91.7904 65.0644 107.079 65.0644Z" stroke="black" stroke-width="0.562733" stroke-linecap="round" stroke-linejoin="round"/>
<path d="M99.4239 45.7739L107.08 37.3818H129.58" stroke="black" stroke-width="0.562733" stroke-linecap="round" stroke-linejoin="round"/>
</g>
<path d="M424.711 254.056L428.349 331.671" stroke="#263238" stroke-width="3.3764" stroke-linecap="round" stroke-linejoin="round"/>
<path d="M408.387 254.056L412.429 331.671" stroke="#263238" stroke-width="3.3764" stroke-linecap="round" stroke-linejoin="round"/>
<path d="M356.351 254.056L351.096 331.671" stroke="#263238" stroke-width="3.3764" stroke-linecap="round" stroke-linejoin="round"/>
<path d="M344.459 254.056L331.928 331.671" stroke="#263238" stroke-width="3.3764" stroke-linecap="round" stroke-linejoin="round"/>
<path d="M427.121 169.399L427.388 251.331H353.08L355.732 169.399H427.121Z" fill="#808080" stroke="#263238" stroke-width="0.562733" stroke-linecap="round" stroke-linejoin="round"/>
<path d="M338.811 255.762H427.389V251.097H338.811V255.762Z" fill="#808080" stroke="#263238" stroke-width="0.562733" stroke-linecap="round" stroke-linejoin="round"/>
<path d="M338.81 255.762H413.838V251.097H338.81V255.762Z" fill="#808080" stroke="#263238" stroke-width="0.562733" stroke-linecap="round" stroke-linejoin="round"/>
<path d="M357.59 208.781C357.59 208.781 350.71 219.291 349.626 227.23C348.543 235.17 350.354 244.209 355.415 247.491C358.712 249.507 362.426 250.746 366.273 251.113H409.325C409.325 251.113 416.925 249.302 420.183 242.066C423.441 234.83 421.266 225.419 419.099 220.714C416.933 216.009 415.106 212.015 415.106 212.015L357.59 208.781Z" fill="#263238" stroke="#263238" stroke-width="0.562733" stroke-linecap="round" stroke-linejoin="round"/>
<path d="M377.849 125.507C377.849 125.507 352.519 134.917 351.072 137.448C349.625 139.979 362.294 189.911 362.294 189.911L355.778 210.535C365.699 212.636 375.725 214.209 385.813 215.249C401.004 216.696 415.84 212.354 415.84 212.354L410.051 188.1L419.462 137.448C419.462 137.448 400.867 128.627 396.776 127.067C392.685 125.507 380.744 125.175 377.849 125.507Z" fill="#17A6E8" stroke="#263238" stroke-width="0.562733" stroke-linecap="round" stroke-linejoin="round"/>
<path d="M404.635 130.56C401.207 128.991 398.167 127.625 396.777 127.099C392.686 125.539 380.744 125.175 377.85 125.539C377.85 125.539 371.641 127.843 365.197 130.479L379.661 190.671L392.322 192.474L404.635 130.56Z" fill="#17A6E8" stroke="#263238" stroke-width="0.562733" stroke-linecap="round" stroke-linejoin="round"/>
<path d="M391.369 215.564L395.807 126.792C391.054 125.491 380.543 125.175 377.851 125.539L375.781 126.348L380.519 214.723C382.265 214.933 384.036 215.127 385.815 215.297C387.593 215.467 389.542 215.54 391.369 215.564Z" fill="white" stroke="#263238" stroke-width="0.562733" stroke-linecap="round" stroke-linejoin="round"/>
<path d="M351.074 137.48C351.074 137.48 327.919 201.165 331.897 203.332C335.875 205.498 382.193 206.226 382.193 206.226V201.165L351.47 189.943L357.623 170.046L351.074 137.48Z" fill="#17A6E8" stroke="#263238" stroke-width="0.562733" stroke-linecap="round" stroke-linejoin="round"/>
<path d="M382.192 201.165C382.192 201.165 394.497 199.718 395.58 199.718C396.664 199.718 406.43 206.59 406.43 206.59L382.176 206.226L382.192 201.165Z" fill="white" stroke="#263238" stroke-width="0.562733" stroke-linecap="round" stroke-linejoin="round"/>
<path d="M419.357 137.48C419.357 137.48 442.52 201.165 438.534 203.332C434.548 205.498 388.246 206.226 388.246 206.226V201.165L418.968 189.943L413.131 171.113L419.357 137.48Z" fill="#17A6E8" stroke="#263238" stroke-width="0.562733" stroke-linecap="round" stroke-linejoin="round"/>
<path d="M429.367 188.568C430.123 188.572 430.877 188.636 431.623 188.763" stroke="#263238" stroke-width="0.562733" stroke-linecap="round" stroke-linejoin="round"/>
<path d="M419.002 189.943C421.924 189.242 424.898 188.785 427.895 188.577" stroke="#263238" stroke-width="0.562733" stroke-linecap="round" stroke-linejoin="round"/>
<path d="M388.248 201.165C388.248 201.165 375.943 199.718 374.86 199.718C373.777 199.718 364.002 206.59 364.002 206.59L388.257 206.226L388.248 201.165Z" fill="white" stroke="#263238" stroke-width="0.562733" stroke-linecap="round" stroke-linejoin="round"/>
<path d="M420.628 224.562C417.733 212.694 406.503 210.479 396.575 209.662C386.647 208.846 380.025 211.788 380.025 211.788C380.025 211.788 396.195 212.597 398.241 223.657L391.66 239.608C391.66 239.608 390.414 243.295 396.624 249.019" fill="#263238"/>
<path d="M420.628 224.562C417.733 212.694 406.503 210.479 396.575 209.662C386.647 208.846 380.025 211.788 380.025 211.788C380.025 211.788 396.195 212.597 398.241 223.657L391.66 239.608C391.66 239.608 390.414 243.295 396.624 249.019" stroke="#263238" stroke-width="0.562733" stroke-linecap="round" stroke-linejoin="round"/>
<path d="M394.27 229.454C394.941 237.202 396.054 244.906 397.601 252.528C400.196 265.342 411.676 311.846 412.42 313.682C413.164 315.517 421.677 327.596 420.198 331.986C418.718 336.376 416.867 336.028 413.528 332.722C410.189 329.415 406.866 315.509 406.494 314.046C406.122 312.582 386.864 279.62 380.938 264.607C375.012 249.593 371.301 241.161 373.16 230.189C375.02 219.218 381.674 218.871 386.904 220.302C392.135 221.733 394.27 229.454 394.27 229.454Z" fill="white" stroke="#263238" stroke-width="0.562733" stroke-linecap="round" stroke-linejoin="round"/>
<path d="M393.979 233.359L380.938 264.607L377.445 255.309L393.979 233.359Z" fill="#263238" stroke="#263238" stroke-width="0.562733" stroke-miterlimit="10"/>
<path d="M420.199 331.986C421.008 329.617 418.881 325 416.65 320.974C413.958 325.017 411.12 324.604 409.131 323.4C410.392 327.256 411.961 331.169 413.529 332.721C416.868 336.02 418.72 336.384 420.199 331.986Z" fill="#263238" stroke="#263238" stroke-width="0.562733" stroke-linecap="round" stroke-linejoin="round"/>
<path d="M397.027 219.291C397.027 219.291 390.85 208.401 381.148 211.651C371.446 214.901 350.749 285.829 344.241 295.96C342.562 298.583 340.751 301.119 338.816 303.559C335.393 304.51 331.858 304.996 328.305 305.007C322.517 305.007 317.447 305.007 321.789 308.621C326.131 312.234 335.178 314.773 339.883 315.493C344.588 316.212 347.119 307.173 347.119 307.173C347.119 307.173 374.979 259.78 380.04 254.711C385.102 249.642 394.52 233.367 396.323 230.109C398.126 226.85 397.746 222.525 397.027 219.291Z" fill="white" stroke="#263238" stroke-width="0.562733" stroke-linecap="round" stroke-linejoin="round"/>
<path d="M346.683 308.41C341.517 308.96 333.343 309.704 333.343 309.704L330.481 304.934C329.77 304.974 329.034 305.007 328.282 305.007C322.493 305.007 317.424 305.007 321.766 308.621C326.107 312.234 335.154 314.773 339.859 315.493C343.465 316.051 345.794 310.86 346.683 308.41Z" fill="#263238" stroke="#263238" stroke-width="0.562733" stroke-linecap="round" stroke-linejoin="round"/>
<path d="M370.469 97.5008C370.469 97.5008 366.814 100.428 367.542 103.718C368.27 107.009 366.451 112.118 363.888 112.854C361.325 113.59 363.888 116.896 365.715 117.236L367.542 117.6C367.542 117.6 369.369 126.736 370.832 127.835C372.296 128.935 377.777 127.835 377.777 127.835C377.777 127.835 379.605 139.89 382.159 143.544C384.714 147.198 386.202 147.926 389.436 143.18C392.67 138.434 396.712 127.099 396.712 127.099C396.712 127.099 397.812 115.045 394.885 106.637C391.958 98.2285 381.068 87.2735 370.469 97.5008Z" fill="white" stroke="#263238" stroke-width="0.562733" stroke-linecap="round" stroke-linejoin="round"/>
<path d="M371.036 109.822C371.036 110.76 370.705 111.52 370.293 111.52C369.88 111.52 369.549 110.76 369.549 109.822C369.549 108.884 369.888 108.124 370.293 108.124C370.697 108.124 371.036 108.884 371.036 109.822Z" fill="#263238"/>
<path d="M369.127 105.788C369.127 105.788 370.825 103.88 372.312 106.426" stroke="#263238" stroke-width="0.562733" stroke-linecap="round" stroke-linejoin="round"/>
<path d="M369.977 119.847C369.977 119.847 371.036 120.268 373.582 118.359" stroke="#263238" stroke-width="0.562733" stroke-linecap="round" stroke-linejoin="round"/>
<path d="M373.572 85.3008C373.572 85.3008 365.899 88.47 367.727 95.2209C369.554 101.972 380.153 107.518 383.435 113.072C386.718 118.627 385.998 124.585 383.435 126.962C380.873 129.339 379.053 129.743 379.053 129.743C384.643 132.851 390.93 134.49 397.325 134.505C407.924 134.505 412.25 123.566 411.514 116.427C410.778 109.289 408.87 92.5125 401.198 87.322C393.525 82.1315 380.881 81.7273 373.572 85.3008Z" fill="#263238" stroke="#263238" stroke-width="0.562733" stroke-linecap="round" stroke-linejoin="round"/>
<path d="M211.597 254.056L207.959 331.671" stroke="#263238" stroke-width="3.3764" stroke-linecap="round" stroke-linejoin="round"/>
<path d="M251.21 254.056L247.168 331.671" stroke="#263238" stroke-width="3.3764" stroke-linecap="round" stroke-linejoin="round"/>
<path d="M271.016 254.056L276.271 331.671" stroke="#263238" stroke-width="3.3764" stroke-linecap="round" stroke-linejoin="round"/>
<path d="M292.039 254.056L304.571 331.671" stroke="#263238" stroke-width="3.3764" stroke-linecap="round" stroke-linejoin="round"/>
<path d="M205.418 169.4L208.911 251.331H274.293L267.882 169.4H205.418Z" fill="#808080" stroke="#263238" stroke-width="0.562733" stroke-linecap="round" stroke-linejoin="round"/>
<path d="M297.69 251.097H208.91V255.762H297.69V251.097Z" fill="#808080" stroke="#263238" stroke-width="0.562733" stroke-linecap="round" stroke-linejoin="round"/>
<path d="M297.69 251.097H245.025V255.762H297.69V251.097Z" fill="#808080" stroke="#263238" stroke-width="0.562733" stroke-linecap="round" stroke-linejoin="round"/>
<path d="M217.029 210.026C217.029 210.026 213.746 239.657 214.838 243.53C215.308 245.238 216.208 246.797 217.452 248.058C218.696 249.319 220.243 250.24 221.944 250.733C224.952 251.542 266.694 250.733 267.85 250.733C274.496 250.863 275.822 247.451 276.048 240.765C276.299 233.488 275.239 207.972 275.239 207.972L217.029 210.026Z" fill="#263238" stroke="#263238" stroke-width="0.562733" stroke-linecap="round" stroke-linejoin="round"/>
<path d="M231.232 129.266C231.232 129.266 206.711 138.968 207.52 140.585C208.328 142.202 215.604 189.377 215.904 190.711C216.203 192.045 216.712 207.689 216.712 209.031C216.712 210.374 218.329 212.807 219.946 213.074C228.387 214.481 237.563 213.753 246.1 213.882C251.873 213.952 257.64 213.971 263.402 213.939C266.798 213.939 274.721 215.556 275.99 211.764C276.532 208.797 276.508 142.234 276.799 139C277.09 135.767 273.84 134.958 270.331 133.074C266.822 131.19 250.66 126.873 249.043 126.873C247.426 126.873 231.232 129.266 231.232 129.266Z" fill="white" stroke="#263238" stroke-width="0.562733" stroke-linecap="round" stroke-linejoin="round"/>
<path d="M238.266 144.652L243.732 152.308L237.49 199.095L247.321 209.484L255.245 197.462L247.289 151.483L250.838 143.835L240.724 138.095L238.266 144.652Z" fill="#263238" stroke="#263238" stroke-width="0.562733" stroke-linecap="round" stroke-linejoin="round"/>
<path d="M233.117 126.841C233.117 126.841 229.883 127.916 229.617 130.075C229.35 132.233 230.158 149.212 230.158 149.212L240.669 145.169L245.245 144.102L257.121 146.309C257.121 146.309 256.838 136.559 254.946 131.708C253.055 126.857 250.904 125.24 249.287 124.973C247.67 124.706 233.117 126.841 233.117 126.841Z" fill="white" stroke="#263238" stroke-width="0.562733" stroke-linecap="round" stroke-linejoin="round"/>
<path d="M231.498 126.032C231.498 126.032 234.465 137.084 235.54 138.968C236.616 140.852 243.625 146.511 245.242 144.086C246.859 141.66 248.476 135.193 248.751 134.384C249.026 133.576 249.285 124.957 249.285 124.957C249.285 124.957 236.349 129.549 231.498 126.032Z" fill="white" stroke="#263238" stroke-width="0.562733" stroke-linecap="round" stroke-linejoin="round"/>
<path d="M236.787 133.066C236.787 133.066 237.086 133.519 241.056 135.201C243.211 136.177 245.546 136.695 247.912 136.72L248.672 133.826L249.133 126.048L236.787 133.066Z" fill="#263238" stroke="#263238" stroke-width="0.562733" stroke-miterlimit="10"/>
<path d="M257.033 105.553C257.033 105.553 257.979 96.7248 257.033 91.6798C256.087 86.6349 250.727 85.0664 246.628 84.4035C242.528 83.7405 225.195 85.3494 222.987 90.0629C220.78 94.7763 225.51 98.5681 225.51 98.5681C225.51 98.5681 222.672 100.46 223.933 102.982C225.195 105.505 226.771 108.973 226.771 108.973L228.663 101.697L241.898 102.012L246.943 103.274L252.303 109.895C252.303 109.895 255.141 110.526 256.087 109.264C257.033 108.003 257.033 105.553 257.033 105.553Z" fill="#263238" stroke="#263238" stroke-width="0.562733" stroke-linecap="round" stroke-linejoin="round"/>
<path d="M227.19 107.72C227.19 107.72 224.498 104.761 224.498 107.995C224.498 111.229 227.732 114.463 227.732 114.463L227.19 107.72Z" stroke="#263238" stroke-width="0.562733" stroke-linecap="round" stroke-linejoin="round"/>
<path d="M226.768 99.5627C226.768 99.5627 227.083 117.212 227.714 120.68C228.344 124.149 235.912 133.293 237.488 133.293C239.065 133.293 241.264 133.923 243.148 132.347C245.031 130.77 252.922 123.518 253.553 121.311C254.033 119.133 254.349 116.922 254.499 114.698C254.499 114.698 259.544 112.175 258.913 108.391C258.282 104.608 256.39 104.292 255.445 105.238C254.543 106.239 253.701 107.292 252.922 108.391C252.922 108.391 252.291 105.238 251.03 103.977C249.769 102.716 245.985 102.085 246.616 100.824L250.084 93.8871C250.084 93.8871 244.093 98.932 238.426 99.878C234.548 100.405 230.611 100.298 226.768 99.5627Z" fill="white" stroke="#263238" stroke-width="0.562733" stroke-linecap="round" stroke-linejoin="round"/>
<path d="M232.65 108.23C232.65 109.111 232.205 109.847 231.647 109.847C231.089 109.847 230.645 109.143 230.645 108.23C230.645 107.316 231.097 106.613 231.647 106.613C232.197 106.613 232.65 107.356 232.65 108.23Z" fill="#263238"/>
<path d="M242.825 108.23C242.825 109.111 242.381 109.846 241.823 109.846C241.265 109.846 240.82 109.143 240.82 108.23C240.82 107.316 241.273 106.613 241.823 106.613C242.373 106.613 242.825 107.356 242.825 108.23Z" fill="#263238"/>
<path d="M235.314 107.817C235.314 107.817 232.978 116.824 233.98 117.325C234.983 117.826 240.659 115.659 240.659 115.659" stroke="#263238" stroke-width="0.562733" stroke-linecap="round" stroke-linejoin="round"/>
<path d="M234.005 117.325C232.642 117.82 231.351 118.495 230.165 119.33C228.669 120.494 231.337 121.497 234.838 121.497C238.339 121.497 242.85 121.335 244.855 120.333C246.86 119.33 245.187 118.497 243.521 117.826C241.997 117.313 240.435 116.924 238.848 116.662C238.848 116.662 235.622 117.163 234.005 117.325Z" fill="#263238" stroke="#263238" stroke-width="0.562733" stroke-linecap="round" stroke-linejoin="round"/>
<path d="M229.478 104.648C229.478 104.648 230.982 102.974 233.82 104.308" stroke="#263238" stroke-width="0.562733" stroke-linecap="round" stroke-linejoin="round"/>
<path d="M238.654 104.486C239.629 103.977 240.742 103.8 241.826 103.981C242.91 104.162 243.905 104.691 244.662 105.489" stroke="#263238" stroke-width="0.562733" stroke-linecap="round" stroke-linejoin="round"/>
<path d="M207.519 140.585C207.519 140.585 190.541 189.094 190.541 189.903C190.541 190.711 188.115 195.287 190.541 198.254C192.966 201.222 197.276 202.297 199.701 201.222C202.126 200.146 214.795 177.776 214.795 177.776C214.795 177.776 208.328 143.294 207.519 140.585Z" fill="white" stroke="#263238" stroke-width="0.562733" stroke-linecap="round" stroke-linejoin="round"/>
<path d="M209.007 158.647L208.158 155.898" stroke="#263238" stroke-width="0.562733" stroke-linecap="round" stroke-linejoin="round"/>
<path d="M213.658 173.701L209.85 161.379" stroke="#263238" stroke-width="0.562733" stroke-linecap="round" stroke-linejoin="round"/>
<path d="M194.342 183.451L243.126 162.697L244.202 167.815C244.202 167.815 207.278 196.387 204.586 198.537C201.894 200.688 200.81 202.313 197.309 202.313C193.809 202.313 189.225 199.079 189.225 194.77C189.289 191.974 189.931 189.222 191.108 186.685" fill="white"/>
<path d="M194.342 183.451L243.126 162.697L244.202 167.815C244.202 167.815 207.278 196.387 204.586 198.537C201.894 200.688 200.81 202.313 197.309 202.313C193.809 202.313 189.225 199.079 189.225 194.77C189.289 191.974 189.931 189.222 191.108 186.685" stroke="#263238" stroke-width="0.562733" stroke-linecap="round" stroke-linejoin="round"/>
<path d="M237.662 165.511L239.497 170.103" stroke="#263238" stroke-width="0.562733" stroke-linecap="round" stroke-linejoin="round"/>
<path d="M243.125 162.697C243.125 162.697 244.742 156.771 245.276 155.963C245.809 155.154 249.051 152.995 250.401 151.92C251.752 150.845 253.902 148.953 254.169 150.303C254.436 151.653 250.935 155.688 250.935 155.688C250.935 155.688 256.328 152.995 258.211 152.729C260.054 152.374 261.937 152.277 263.806 152.438C265.156 152.704 263.758 153.464 263.604 155.421C263.345 158.655 257.678 161.622 256.061 163.239C254.444 164.856 244.2 167.815 244.2 167.815L243.125 162.697Z" fill="white" stroke="#263238" stroke-width="0.562733" stroke-linecap="round" stroke-linejoin="round"/>
<path d="M263.346 154.273L253.717 157.483" stroke="#263238" stroke-width="0.562733" stroke-linecap="round" stroke-linejoin="round"/>
<path d="M262.894 157.256L254.631 160.239" stroke="#263238" stroke-width="0.562733" stroke-linecap="round" stroke-linejoin="round"/>
<path d="M257.388 162.301L255.318 162.988" stroke="#263238" stroke-width="0.562733" stroke-linecap="round" stroke-linejoin="round"/>
<path d="M250.935 155.688L247.75 155.882" stroke="#263238" stroke-width="0.562733" stroke-linecap="round" stroke-linejoin="round"/>
<path d="M276.242 137.084C276.242 137.084 281.441 150.182 282.71 152.979C284.222 156.334 291.094 170.24 291.094 170.24L304.03 142.218L311.039 145.177C311.039 145.177 299.987 179.942 297.562 185.068C295.136 190.194 295.678 194.228 291.902 193.961C288.127 193.695 276.541 181.834 276.541 181.834L276.242 137.084Z" fill="white" stroke="#263238" stroke-width="0.562733" stroke-linecap="round" stroke-linejoin="round"/>
<path d="M291.095 170.24L285.832 179.732" stroke="#263238" stroke-width="0.562733" stroke-linecap="round" stroke-linejoin="round"/>
<path d="M289.039 173.773L284.682 177.21" stroke="#263238" stroke-width="0.562733" stroke-linecap="round" stroke-linejoin="round"/>
<path d="M302.348 146.705L309.228 150.142" stroke="#263238" stroke-width="0.562733" stroke-linecap="round" stroke-linejoin="round"/>
<path d="M304.027 142.218C304.027 142.218 303.76 134.667 304.568 133.05C305.377 131.433 308.336 127.124 308.611 126.049C308.886 124.973 310.228 123.082 310.494 124.965C310.619 126.41 310.53 127.865 310.228 129.283C310.228 129.283 313.728 126.049 313.995 124.965C314.262 123.882 313.995 120.114 315.079 120.114C316.162 120.114 317.229 120.923 318.312 124.157C319.396 127.391 318.312 132.517 317.771 134.4C317.229 136.284 311.845 143.56 311.845 143.56L311.036 145.177L304.027 142.218Z" fill="white" stroke="#263238" stroke-width="0.562733" stroke-linecap="round" stroke-linejoin="round"/>
<path d="M318.403 126.315C318.403 126.315 317.942 124.48 317.489 125.863C317.036 127.245 315.654 132.508 315.654 132.508C315.654 132.508 308.539 137.359 308.539 138.709V140.06" stroke="#263238" stroke-width="0.562733" stroke-linecap="round" stroke-linejoin="round"/>
<path d="M277.932 321.225L284.068 329.391C284.068 329.391 292.258 331.533 292.315 332.382C292.371 333.231 289.388 334.476 289.388 334.476L281.449 335.713C281.449 335.713 272.046 332.026 269.782 331.501C267.518 330.975 265.433 331.557 266.096 328.946C266.759 326.335 267.818 320.934 267.818 320.934L277.932 321.225Z" fill="white" stroke="#263238" stroke-width="0.562733" stroke-linecap="round" stroke-linejoin="round"/>
<path d="M256.346 237.603C256.346 237.603 262.628 226.406 271.376 222.032C280.123 217.658 287.772 219.291 294.87 219.291C301.969 219.291 313.999 220.383 315.365 222.024C316.732 223.665 277.932 321.217 277.932 321.217L267.818 320.942C267.818 320.942 275.2 288.15 276.291 280.518C277.383 272.886 280.091 250.725 280.091 250.725C280.091 250.725 261.14 250.725 252.4 250.418" fill="#263238"/>
<path d="M256.346 237.603C256.346 237.603 262.628 226.406 271.376 222.032C280.123 217.658 287.772 219.291 294.87 219.291C301.969 219.291 313.999 220.383 315.365 222.024C316.732 223.665 277.932 321.217 277.932 321.217L267.818 320.942C267.818 320.942 275.2 288.15 276.291 280.518C277.383 272.886 280.091 250.725 280.091 250.725C280.091 250.725 261.14 250.725 252.4 250.418" stroke="#263238" stroke-width="0.562733" stroke-linecap="round" stroke-linejoin="round"/>
<path d="M219.453 222.598C219.453 222.598 219.728 218.499 228.468 218.224C237.207 217.949 246.505 217.133 247.597 222.323C248.688 227.514 248.963 307.036 248.963 309.769C248.963 312.502 249.771 319.058 249.771 319.058L239.657 319.867C239.657 319.867 226.56 275.885 224.369 266.046C222.178 256.207 222.461 232.437 222.461 230.521" fill="#263238"/>
<path d="M219.453 222.598C219.453 222.598 219.728 218.499 228.468 218.224C237.207 217.949 246.505 217.133 247.597 222.323C248.688 227.514 248.963 307.036 248.963 309.769C248.963 312.502 249.771 319.058 249.771 319.058L239.657 319.867C239.657 319.867 226.56 275.885 224.369 266.046C222.178 256.207 222.461 232.437 222.461 230.521" stroke="#263238" stroke-width="0.562733" stroke-linecap="round" stroke-linejoin="round"/>
<path d="M249.789 319.058C249.789 319.058 253.338 331.081 254.155 332.447C254.972 333.813 255.521 334.638 253.064 336.271C250.606 337.904 245.69 339.004 242.683 338.187C239.675 337.371 239.125 332.172 239.675 327.806C240.006 325.173 240.006 322.508 239.675 319.875L249.789 319.058Z" fill="white" stroke="#263238" stroke-width="0.562733" stroke-linecap="round" stroke-linejoin="round"/>
<path d="M87.0884 254.056L74.5568 331.671" stroke="#263238" stroke-width="3.3764" stroke-linecap="round" stroke-linejoin="round"/>
<path d="M129.129 254.056L116.598 331.671" stroke="#263238" stroke-width="3.3764" stroke-linecap="round" stroke-linejoin="round"/>
<path d="M146.514 254.056L159.045 331.671" stroke="#263238" stroke-width="3.3764" stroke-linecap="round" stroke-linejoin="round"/>
<path d="M190.17 254.056L202.702 331.671" stroke="#263238" stroke-width="3.3764" stroke-linecap="round" stroke-linejoin="round"/>
<path d="M66.3596 169.399L84.405 251.331H143.319L122.355 169.399H66.3596Z" fill="#808080" stroke="#263238" stroke-width="0.562733" stroke-linecap="round" stroke-linejoin="round"/>
<path d="M195.822 251.097H84.4044V255.762H195.822V251.097Z" fill="#808080" stroke="#263238" stroke-width="0.562733" stroke-linecap="round" stroke-linejoin="round"/>
<path d="M195.821 251.097H158.114V255.762H195.821V251.097Z" fill="#808080" stroke="#263238" stroke-width="0.562733" stroke-linecap="round" stroke-linejoin="round"/>
<path d="M100.293 132.783L77.922 144.91L89.7825 217.674C89.7825 217.674 89.2408 219.558 90.591 220.366C91.9411 221.175 95.7087 221.45 95.7087 221.45H139.642C141.219 220.953 142.621 220.016 143.684 218.749C145.026 216.866 145.026 215.79 145.026 213.899C145.026 212.007 149.61 143.835 148.802 142.485C148.179 141.515 147.455 140.612 146.643 139.793L123.472 130.625L100.293 132.783Z" fill="white" stroke="#263238" stroke-width="0.562733" stroke-linecap="round" stroke-linejoin="round"/>
<path d="M116.242 149.212L121.514 152.834L120.042 203.865L129.881 214.254L137.805 202.232L125.063 152.009L128.62 144.361L118.506 138.62L116.242 149.212Z" fill="#263238" stroke="#263238" stroke-width="0.562733" stroke-linecap="round" stroke-linejoin="round"/>
<path d="M132.9 90.2001L136.134 99.902L134.792 103.678L139.101 110.954L136.134 112.838C136.134 112.838 137.751 122.814 137.217 123.623C136.684 124.431 125.357 125.24 125.357 125.24L123.74 141.41L105.686 130.899V114.996C105.686 114.996 99.7521 92.6256 101.102 90.7418C102.452 88.8581 111.613 85.0824 122.665 83.7323C133.717 82.3821 135.325 81.3068 135.867 84.5407C136.409 87.7747 132.9 90.2001 132.9 90.2001Z" fill="white" stroke="#263238" stroke-width="0.562733" stroke-linecap="round" stroke-linejoin="round"/>
<path d="M135.867 84.5407C135.325 81.3068 133.709 82.3902 122.665 83.7322C111.621 85.0743 102.452 88.858 101.102 90.7418C99.7521 92.6256 105.686 114.996 105.686 114.996V119.314C106.399 119.427 107.125 119.427 107.837 119.314C110.804 118.78 114.847 114.738 114.847 114.738C114.847 114.738 110.804 117.163 109.187 114.738C107.605 112.36 107.024 109.456 107.57 106.653C108.112 103.952 112.154 104.761 112.154 106.111C112.154 107.461 113.771 110.154 115.113 109.612C116.455 109.07 116.73 102.877 116.73 102.877C116.73 102.877 122.39 99.1016 122.665 97.2178C122.939 95.334 121.048 92.3669 121.048 92.3669L132.9 90.2082C132.9 90.2082 136.409 87.7747 135.867 84.5407Z" fill="#263238" stroke="#263238" stroke-width="0.562733" stroke-linecap="round" stroke-linejoin="round"/>
<path d="M133.173 100.985C133.173 100.985 129.939 99.902 128.047 102.327" stroke="#263238" stroke-width="0.562733" stroke-linecap="round" stroke-linejoin="round"/>
<path d="M133.439 104.624C133.439 105.586 133.076 106.37 132.631 106.37C132.186 106.37 131.822 105.562 131.822 104.624C131.822 103.686 132.186 102.869 132.631 102.869C133.076 102.869 133.439 103.678 133.439 104.624Z" fill="#263238"/>
<path d="M135.058 115.538C135.058 115.538 131.557 116.347 130.207 114.996" stroke="#263238" stroke-width="0.562733" stroke-linecap="round" stroke-linejoin="round"/>
<path d="M125.356 125.24H119.154L124.28 133.592L125.356 125.24Z" fill="#263238" stroke="#263238" stroke-width="0.562733" stroke-linecap="round" stroke-linejoin="round"/>
<path d="M105.684 127.932L98.9417 133.325L115.386 152.187L123.738 141.41L105.684 127.932Z" fill="white" stroke="#263238" stroke-width="0.562733" stroke-linecap="round" stroke-linejoin="round"/>
<path d="M123.736 141.41L129.938 149.494L128.046 132.516L125.087 129.007L123.736 141.41Z" fill="white" stroke="#263238" stroke-width="0.562733" stroke-linecap="round" stroke-linejoin="round"/>
<path d="M148.799 142.485L170.895 195.578L156.076 201.504L146.641 184.793L148.799 142.485Z" fill="white" stroke="#263238" stroke-width="0.562733" stroke-linecap="round" stroke-linejoin="round"/>
<path d="M132.361 195.303C132.361 195.303 151.765 192.344 157.425 191.261C163.084 190.178 167.66 190.994 170.36 193.961C173.061 196.929 172.511 202.58 171.702 203.93C170.894 205.28 163.618 205.814 158.767 205.814C153.916 205.814 139.096 202.046 136.129 201.238L133.17 200.429L132.361 195.303Z" fill="white" stroke="#263238" stroke-width="0.562733" stroke-linecap="round" stroke-linejoin="round"/>
<path d="M150.418 203.121C150.418 203.121 157.694 204.197 158.236 205.005C158.778 205.814 164.704 212.556 165.512 213.365C166.321 214.173 166.854 221.717 166.854 221.717C166.854 221.717 164.971 223.067 164.429 222.258C163.887 221.45 157.694 213.632 157.694 213.632C157.694 213.632 149.876 210.939 149.343 209.322L148.801 207.705L150.418 203.121Z" fill="white" stroke="#263238" stroke-width="0.562733" stroke-linecap="round" stroke-linejoin="round"/>
<path d="M77.922 144.91C77.922 144.91 91.3995 206.355 92.4747 206.622C93.55 206.889 148.802 207.705 148.802 207.705L150.419 203.121L104.602 191.536L101.643 150.57" fill="white"/>
<path d="M77.922 144.91C77.922 144.91 91.3995 206.355 92.4747 206.622C93.55 206.889 148.802 207.705 148.802 207.705L150.419 203.121L104.602 191.536L101.643 150.57" stroke="#263238" stroke-width="0.562733" stroke-linecap="round" stroke-linejoin="round"/>
<path d="M171.98 226.188C171.98 226.188 201.085 233.068 203.236 234.386C205.386 235.704 204.319 240.474 202.969 244.443C201.619 248.413 160.386 319.042 160.386 319.042L154.193 317.425L173.055 250.499H149.342L171.98 226.188Z" fill="#263238" stroke="#263238" stroke-width="0.562733" stroke-linecap="round" stroke-linejoin="round"/>
<path d="M160.384 319.042L165.235 330.151C165.235 330.151 171.978 335.172 171.703 335.972C171.428 336.772 168.202 336.78 168.202 336.78L160.384 334.905C160.384 334.905 153.108 328.024 151.224 326.699C149.34 325.373 147.182 325.082 148.799 322.996C150.476 321.031 152.277 319.175 154.191 317.441L160.384 319.042Z" fill="white" stroke="#263238" stroke-width="0.562733" stroke-linecap="round" stroke-linejoin="round"/>
<path d="M90.5905 220.366C90.5905 220.366 89.2404 234.919 89.2404 238.622C89.2404 242.325 92.2075 248.146 97.6001 250.264C102.993 252.382 165.78 250.264 165.78 250.264L190.576 326.448L197.852 323.796C197.852 323.796 188.684 240.74 188.684 238.905C188.684 237.07 187.876 230.44 185.183 229.114C182.491 227.788 139.641 221.442 139.641 221.442L90.5905 220.366Z" fill="#263238" stroke="#263238" stroke-width="0.562733" stroke-linecap="round" stroke-linejoin="round"/>
<path d="M197.849 323.796C197.849 323.796 211.86 325.647 213.477 325.413C215.094 325.179 220.211 324.087 218.594 326.731C216.978 329.375 206.467 332.285 202.158 334.137C197.849 335.988 193.531 338.899 192.189 336.788C190.847 334.678 190.572 326.472 190.572 326.472L197.849 323.796Z" fill="white" stroke="#263238" stroke-width="0.562733" stroke-linecap="round" stroke-linejoin="round"/>
<path d="M122.122 191.261H117.004L111.611 197.462C111.611 197.462 109.994 201.237 111.611 201.237C113.228 201.237 117.004 202.046 119.429 201.237C121.855 200.429 128.59 197.729 128.59 197.729C128.25 196.142 127.459 194.687 126.311 193.539C125.163 192.392 123.709 191.6 122.122 191.261Z" fill="white" stroke="#263238" stroke-width="0.562733" stroke-linecap="round" stroke-linejoin="round"/>
<path d="M124.811 192.344L132.362 195.303L133.437 198.537L128.586 197.729L124.811 192.344Z" fill="white" stroke="#263238" stroke-width="0.562733" stroke-linecap="round" stroke-linejoin="round"/>
<path d="M111.311 199.079C111.311 199.079 118.433 192.846 120.277 192.07" stroke="#263238" stroke-width="0.562733" stroke-linecap="round" stroke-linejoin="round"/>
<path d="M112.613 200.841C112.613 200.841 122.073 192.862 124.029 192.862" stroke="#263238" stroke-width="0.562733" stroke-linecap="round" stroke-linejoin="round"/>
<path d="M116.203 201.658C116.203 201.658 123.051 195.303 126.148 194.98" stroke="#263238" stroke-width="0.562733" stroke-linecap="round" stroke-linejoin="round"/>
<path d="M475.154 208.441H64.8068V227.336H475.154V208.441Z" fill="white" stroke="#263238" stroke-width="0.562733" stroke-linecap="round" stroke-linejoin="round"/>
<path d="M68.3794 334.25H62.8494L58.8635 208.441H72.3652L68.3794 334.25Z" fill="white" stroke="#263238" stroke-width="0.562733" stroke-linecap="round" stroke-linejoin="round"/>
<path d="M476.026 334.25H470.496L466.51 208.441H480.012L476.026 334.25Z" fill="white" stroke="#263238" stroke-width="0.562733" stroke-linecap="round" stroke-linejoin="round"/>
<path d="M479.719 214.586H59.0722V210.139H480.01L479.719 214.586Z" fill="#263238" stroke="#263238" stroke-width="0.562733" stroke-miterlimit="10"/>
<path d="M484.054 206.355H52.7267V210.802H484.054V206.355Z" fill="white" stroke="#263238" stroke-width="0.562733" stroke-linecap="round" stroke-linejoin="round"/>
<path d="M304.966 190.873C304.966 190.873 306.914 190.064 308.022 190.735C309.129 191.406 309.412 199.2 308.022 201.561C307.698 202.207 307.229 202.769 306.651 203.202C306.073 203.636 305.402 203.929 304.691 204.059L304.416 200.308C304.416 200.308 305.661 201.003 306.356 198.367C307.052 195.732 306.914 193.517 306.494 193.371C306.018 193.352 305.544 193.446 305.111 193.646L304.966 190.873Z" fill="#17A6E8" stroke="#263238" stroke-width="0.562733" stroke-linecap="round" stroke-linejoin="round"/>
<path d="M305.274 187.089H289.605V206.857H305.274V187.089Z" fill="#17A6E8" stroke="#263238" stroke-width="0.562733" stroke-linecap="round" stroke-linejoin="round"/>
<path d="M76.9175 190.873C76.9175 190.873 74.9771 190.064 73.8695 190.735C72.7619 191.406 72.4789 199.2 73.8695 201.561C74.1933 202.207 74.6628 202.769 75.2408 203.202C75.8189 203.636 76.4897 203.929 77.2005 204.059L77.4754 200.308C77.4754 200.308 76.2303 201.003 75.535 198.367C74.8397 195.732 74.9771 193.517 75.3976 193.371C75.8737 193.352 76.3476 193.446 76.7801 193.646L76.9175 190.873Z" fill="#17A6E8" stroke="#263238" stroke-width="0.562733" stroke-linecap="round" stroke-linejoin="round"/>
<path d="M76.6187 206.865H92.2872V187.097H76.6187V206.865Z" fill="#17A6E8" stroke="#263238" stroke-width="0.562733" stroke-linecap="round" stroke-linejoin="round"/>
<path d="M448.822 190.873C448.822 190.873 446.881 190.064 445.774 190.735C444.666 191.407 444.383 199.2 445.774 201.561C446.098 202.207 446.567 202.769 447.145 203.202C447.723 203.636 448.394 203.929 449.105 204.059L449.38 200.308C449.38 200.308 448.135 201.003 447.439 198.368C446.744 195.732 446.881 193.517 447.302 193.371C447.778 193.352 448.252 193.446 448.684 193.646L448.822 190.873Z" fill="#17A6E8" stroke="#263238" stroke-width="0.562733" stroke-linecap="round" stroke-linejoin="round"/>
<path d="M448.521 206.865H464.189V187.097H448.521V206.865Z" fill="#17A6E8" stroke="#263238" stroke-width="0.562733" stroke-linecap="round" stroke-linejoin="round"/>
<path d="M383.447 170.216H319.496V206.622H383.447V170.216Z" fill="#263238" stroke="#263238" stroke-width="0.562733" stroke-miterlimit="10"/>
<path d="M197.082 24.1713H134.303C133.275 24.1692 132.257 24.3699 131.307 24.7619C130.357 25.1539 129.494 25.7296 128.767 26.4559C128.04 27.1822 127.463 28.0448 127.07 28.9944C126.677 29.9439 126.476 30.9617 126.477 31.9893V61.9033C126.476 62.9296 126.677 63.9461 127.069 64.8945C127.461 65.843 128.036 66.7049 128.761 67.431C129.487 68.1571 130.348 68.7331 131.296 69.1261C132.244 69.5191 133.26 69.7214 134.287 69.7214H141.951L138.305 84.7026L151.54 69.7214H197.065C198.092 69.7214 199.109 69.5191 200.057 69.1262C201.006 68.7334 201.868 68.1575 202.594 67.4315C203.32 66.7055 203.896 65.8437 204.288 64.8951C204.681 63.9466 204.884 62.93 204.884 61.9033V31.9893C204.884 29.9187 204.062 27.9326 202.599 26.4668C201.137 25.0011 199.152 24.1756 197.082 24.1713Z" fill="#263238"/>
<path d="M178.219 37.0747H193.208" stroke="white" stroke-width="0.562733" stroke-linecap="round" stroke-linejoin="round"/>
<path d="M153.805 37.0746H174.655" stroke="white" stroke-width="0.562733" stroke-linecap="round" stroke-linejoin="round"/>
<path d="M138.021 37.0747H149.922" stroke="white" stroke-width="0.562733" stroke-linecap="round" stroke-linejoin="round"/>
<path d="M183.594 43.6477H193.223" stroke="white" stroke-width="0.562733" stroke-linecap="round" stroke-linejoin="round"/>
<path d="M165.125 43.6479H181.513" stroke="white" stroke-width="0.562733" stroke-linecap="round" stroke-linejoin="round"/>
<path d="M138.021 43.6479H163.667" stroke="white" stroke-width="0.562733" stroke-linecap="round" stroke-linejoin="round"/>
<path d="M175.252 50.2207H193.225" stroke="white" stroke-width="0.562733" stroke-linecap="round" stroke-linejoin="round"/>
<path d="M151.719 50.2207H172.279" stroke="white" stroke-width="0.562733" stroke-linecap="round" stroke-linejoin="round"/>
<path d="M138.021 50.2207H149.34" stroke="white" stroke-width="0.562733" stroke-linecap="round" stroke-linejoin="round"/>
<path d="M188.068 56.7854H193.227" stroke="white" stroke-width="0.562733" stroke-linecap="round" stroke-linejoin="round"/>
<path d="M171.381 56.7854H185.085" stroke="white" stroke-width="0.562733" stroke-linecap="round" stroke-linejoin="round"/>
<path d="M163.936 56.7854H169.328" stroke="white" stroke-width="0.562733" stroke-linecap="round" stroke-linejoin="round"/>
<path d="M141.291 56.7854H160.064" stroke="white" stroke-width="0.562733" stroke-linecap="round" stroke-linejoin="round"/>
<path d="M138.021 56.7854H139.8" stroke="white" stroke-width="0.562733" stroke-linecap="round" stroke-linejoin="round"/>
<path d="M283.866 30.9141H225.113C224.086 30.9141 223.07 31.1163 222.121 31.5092C221.173 31.9021 220.311 32.4779 219.585 33.2039C218.859 33.9299 218.283 34.7918 217.89 35.7403C217.497 36.6888 217.295 37.7054 217.295 38.7321V66.3176C217.295 67.3443 217.497 68.361 217.89 69.3095C218.283 70.258 218.859 71.1199 219.585 71.8458C220.311 72.5718 221.173 73.1477 222.121 73.5406C223.07 73.9335 224.086 74.1357 225.113 74.1357H266.718V86.4813L274.123 74.1357H283.874C284.9 74.1357 285.917 73.9335 286.866 73.5406C287.814 73.1477 288.676 72.5718 289.402 71.8458C290.128 71.1199 290.704 70.258 291.097 69.3095C291.49 68.361 291.692 67.3443 291.692 66.3176V38.6998C291.683 36.6305 290.855 34.649 289.388 33.1896C287.921 31.7302 285.935 30.9119 283.866 30.9141Z" fill="white" stroke="#263238" stroke-width="0.562733" stroke-linecap="round" stroke-linejoin="round"/>
<path d="M267.613 43.0413H282.603" stroke="#263238" stroke-width="0.562733" stroke-linecap="round" stroke-linejoin="round"/>
<path d="M243.182 43.0413H264.032" stroke="#263238" stroke-width="0.562733" stroke-linecap="round" stroke-linejoin="round"/>
<path d="M227.4 43.0413H239.309" stroke="#263238" stroke-width="0.562733" stroke-linecap="round" stroke-linejoin="round"/>
<path d="M272.975 49.6064H282.604" stroke="#263238" stroke-width="0.562733" stroke-linecap="round" stroke-linejoin="round"/>
<path d="M254.5 49.6064H270.888" stroke="#263238" stroke-width="0.562733" stroke-linecap="round" stroke-linejoin="round"/>
<path d="M227.4 49.6064H253.013" stroke="#263238" stroke-width="0.562733" stroke-linecap="round" stroke-linejoin="round"/>
<path d="M264.631 56.1792H282.604" stroke="#263238" stroke-width="0.562733" stroke-linecap="round" stroke-linejoin="round"/>
<path d="M241.094 56.1792H261.654" stroke="#263238" stroke-width="0.562733" stroke-linecap="round" stroke-linejoin="round"/>
<path d="M227.4 56.1792H238.719" stroke="#263238" stroke-width="0.562733" stroke-linecap="round" stroke-linejoin="round"/>
<path d="M277.445 62.7522H282.603" stroke="#263238" stroke-width="0.562733" stroke-linecap="round" stroke-linejoin="round"/>
<path d="M260.758 62.7522H274.502" stroke="#263238" stroke-width="0.562733" stroke-linecap="round" stroke-linejoin="round"/>
<path d="M253.312 62.7522H258.673" stroke="#263238" stroke-width="0.562733" stroke-linecap="round" stroke-linejoin="round"/>
<path d="M230.664 62.7522H249.437" stroke="#263238" stroke-width="0.562733" stroke-linecap="round" stroke-linejoin="round"/>
<path d="M227.4 62.7522H229.155" stroke="#263238" stroke-width="0.562733" stroke-linecap="round" stroke-linejoin="round"/>
<path d="M364.931 15.1082H306.162C304.088 15.1082 302.1 15.9318 300.634 17.398C299.167 18.8642 298.344 20.8527 298.344 22.9262V50.5117C298.344 51.5384 298.546 52.555 298.939 53.5036C299.332 54.4521 299.908 55.314 300.634 56.0399C301.36 56.7659 302.221 57.3418 303.17 57.7347C304.118 58.1276 305.135 58.3298 306.162 58.3298H349.206L359.166 75.0574L357.549 58.3298H364.914C365.941 58.3298 366.958 58.1276 367.906 57.7347C368.855 57.3418 369.717 56.7659 370.443 56.0399C371.169 55.314 371.745 54.4521 372.137 53.5036C372.53 52.555 372.733 51.5384 372.733 50.5117V22.9262C372.733 20.8555 371.911 18.8694 370.448 17.4037C368.986 15.938 367.001 15.1124 364.931 15.1082Z" fill="#17A6E8" stroke="#263238" stroke-width="0.562733" stroke-linecap="round" stroke-linejoin="round"/>
<path d="M348.049 26.3459H363.046" stroke="#263238" stroke-width="0.562733" stroke-linecap="round" stroke-linejoin="round"/>
<path d="M323.619 26.3459H344.478" stroke="#263238" stroke-width="0.562733" stroke-linecap="round" stroke-linejoin="round"/>
<path d="M307.838 26.3459H319.747" stroke="#263238" stroke-width="0.562733" stroke-linecap="round" stroke-linejoin="round"/>
<path d="M353.412 32.9192H363.049" stroke="#263238" stroke-width="0.562733" stroke-linecap="round" stroke-linejoin="round"/>
<path d="M334.945 32.9192H351.325" stroke="#263238" stroke-width="0.562733" stroke-linecap="round" stroke-linejoin="round"/>
<path d="M307.838 32.9191H333.451" stroke="#263238" stroke-width="0.562733" stroke-linecap="round" stroke-linejoin="round"/>
<path d="M345.074 39.4921H363.047" stroke="#263238" stroke-width="0.562733" stroke-linecap="round" stroke-linejoin="round"/>
<path d="M321.533 39.4922H342.093" stroke="#263238" stroke-width="0.562733" stroke-linecap="round" stroke-linejoin="round"/>
<path d="M307.838 39.4921H319.157" stroke="#263238" stroke-width="0.562733" stroke-linecap="round" stroke-linejoin="round"/>
<path d="M357.881 46.0649H363.047" stroke="#263238" stroke-width="0.562733" stroke-linecap="round" stroke-linejoin="round"/>
<path d="M341.203 46.0649H354.907" stroke="#263238" stroke-width="0.562733" stroke-linecap="round" stroke-linejoin="round"/>
<path d="M333.746 46.0652H339.106" stroke="#263238" stroke-width="0.562733" stroke-linecap="round" stroke-linejoin="round"/>
<path d="M311.109 46.0649H329.874" stroke="#263238" stroke-width="0.562733" stroke-linecap="round" stroke-linejoin="round"/>
<path d="M307.838 46.0652H309.616" stroke="#263238" stroke-width="0.562733" stroke-linecap="round" stroke-linejoin="round"/>
</svg>
