<svg width="28" height="28" viewBox="0 0 28 28" fill="none" xmlns="http://www.w3.org/2000/svg">
<g clip-path="url(#clip0_280_274)">
<path d="M9.75487 0.920964C6.95724 1.89149 4.54456 3.73358 2.87123 6.17666C1.1979 8.61973 0.352106 11.535 0.458092 14.4943C0.564078 17.4536 1.61626 20.3009 3.46007 22.6181C5.30389 24.9352 7.84217 26.5999 10.7021 27.3678C13.0206 27.9661 15.4498 27.9924 17.7808 27.4444C19.8924 26.9701 21.8447 25.9555 23.4464 24.5C25.1135 22.9389 26.3235 20.9529 26.9464 18.7557C27.6233 16.3661 27.7438 13.8533 27.2986 11.41H14.2786V16.811H21.8189C21.6682 17.6724 21.3453 18.4945 20.8695 19.2282C20.3936 19.9619 19.7746 20.5921 19.0496 21.081C18.1289 21.6903 17.0909 22.1001 16.0024 22.2841C14.9107 22.4871 13.7909 22.4871 12.6992 22.2841C11.5927 22.0556 10.546 21.5989 9.62581 20.9432C8.14739 19.8966 7.03729 18.4099 6.45394 16.695C5.86088 14.948 5.86088 13.0542 6.45394 11.3072C6.86918 10.0827 7.55563 8.96776 8.46206 8.04565C9.49936 6.97104 10.8126 6.20289 12.2577 5.82551C13.7028 5.44812 15.224 5.47606 16.6542 5.90628C17.7716 6.24911 18.7934 6.84838 19.638 7.65628C20.4882 6.81044 21.337 5.96242 22.1842 5.11221C22.6217 4.65503 23.0986 4.21971 23.5296 3.75159C22.2401 2.55178 20.7266 1.61813 19.0758 1.00409C16.0695 -0.0874958 12.7801 -0.116831 9.75487 0.920964Z" fill="white"/>
<path d="M9.75401 0.920928C12.779 -0.117572 16.0684 -0.0890089 19.0749 1.00187C20.7261 1.62008 22.2388 2.55823 23.5265 3.76249C23.089 4.23062 22.6274 4.66812 22.1812 5.12312C21.3324 5.97041 20.4844 6.81478 19.6371 7.65624C18.7925 6.84835 17.7708 6.24907 16.6534 5.90624C15.2236 5.47452 13.7025 5.44496 12.257 5.8208C10.8115 6.19665 9.49744 6.96338 8.45901 8.03687C7.55258 8.95897 6.86613 10.0739 6.45089 11.2984L1.9162 7.78749C3.53934 4.56872 6.34971 2.10661 9.75401 0.920928Z" fill="#E33629"/>
<path d="M0.71265 11.2656C0.956205 10.0576 1.36086 8.88777 1.91578 7.78748L6.45046 11.3072C5.85741 13.0541 5.85741 14.948 6.45046 16.695C4.93963 17.8616 3.42807 19.0341 1.91578 20.2125C0.527042 17.4482 0.103503 14.2986 0.71265 11.2656Z" fill="#F8BD00"/>
<path d="M14.2783 11.4078H27.2983C27.7435 13.8511 27.623 16.3639 26.9461 18.7535C26.3232 20.9508 25.1132 22.9367 23.4461 24.4978C21.9827 23.356 20.5127 22.2228 19.0493 21.081C19.7748 20.5916 20.3941 19.9607 20.8699 19.2263C21.3458 18.4918 21.6685 17.6688 21.8186 16.8066H14.2783C14.2761 15.0085 14.2783 13.2081 14.2783 11.4078Z" fill="#587DBD"/>
<path d="M1.91406 20.2125C3.42635 19.0458 4.93792 17.8733 6.44875 16.695C7.03327 18.4104 8.14495 19.8973 9.625 20.9431C10.548 21.5958 11.597 22.0488 12.705 22.2731C13.7967 22.4762 14.9164 22.4762 16.0081 22.2731C17.0967 22.0891 18.1347 21.6793 19.0553 21.07C20.5187 22.2119 21.9888 23.345 23.4522 24.4869C21.8507 25.9432 19.8984 26.9585 17.7866 27.4334C15.4556 27.9814 13.0264 27.9552 10.7078 27.3569C8.87404 26.8673 7.16116 26.0041 5.67656 24.8216C4.10534 23.5739 2.82195 22.0017 1.91406 20.2125Z" fill="#319F43"/>
</g>
<defs>
<clipPath id="clip0_280_274">
<rect width="28" height="28" fill="white"/>
</clipPath>
</defs>
</svg>
