<svg width="256" height="100" viewBox="0 0 256 100" fill="none" xmlns="http://www.w3.org/2000/svg">
<rect x="0.5" y="0.5" width="255" height="99" rx="9.5" stroke="#16A6EC"/>
<path d="M41.8301 25.1238C40.4987 25.4163 39.4598 25.9307 38.189 26.899C37.7452 27.2318 37.2207 27.5647 37.0089 27.6353C35.6069 28.1295 34.4873 29.1885 33.9628 30.5098C33.3779 32.0127 33.4787 33.3037 34.3159 35.0385C34.6185 35.674 34.8706 36.1984 34.8706 36.2287C34.8706 36.2489 34.679 36.2691 34.447 36.2691C33.6199 36.2791 32.7424 36.8944 32.4096 37.7013C32.2079 38.1854 32.2079 39.194 32.4096 39.6782C32.7929 40.6061 33.6098 41.1003 34.7496 41.1104H35.4758V41.6954C35.4758 42.5527 35.8086 43.753 36.3432 44.8221C36.8878 45.9014 37.9469 47.1117 38.9253 47.7774L39.5103 48.1808V49.1189V50.0569L34.4974 50.894C31.7338 51.3479 29.2022 51.8119 28.8693 51.9127C27.1042 52.4574 25.6014 54.0107 25.1374 55.7858C25.0063 56.3002 24.9861 57.6417 24.9861 65.4887C24.9861 74.4654 24.9861 74.5966 25.1879 74.7983C25.3896 75 25.5207 75 49.667 75C73.7226 75 73.9546 75 74.2874 74.7983C74.469 74.6873 74.7009 74.4553 74.8119 74.2738C75.0035 73.951 75.0136 73.7493 75.0136 65.3173C75.0136 56.8852 75.0035 56.6835 74.8119 56.3607C74.7009 56.1792 74.469 55.9472 74.2874 55.8363C73.9747 55.6446 73.773 55.6345 71.2616 55.6345H68.5585V54.0913C68.5585 52.3666 68.4576 52.0136 67.8423 51.4286C67.1666 50.7831 67.2271 50.7932 62.1033 50.7932C57.1409 50.7932 57.03 50.8032 56.4954 51.3076C56.2836 51.5093 56.2836 51.4992 51.9364 50.7831L47.5792 50.0569V49.1189V48.1808L48.1642 47.7774C48.84 47.3134 49.8385 46.3048 50.2924 45.6189C51.0488 44.4994 51.6137 42.8251 51.6137 41.6954V41.1104H52.35C53.8932 41.1003 54.8413 40.1724 54.8413 38.6696C54.8312 37.3079 53.8528 36.2691 52.5719 36.2691C52.3197 36.2691 52.118 36.2489 52.118 36.2287C52.118 36.2085 52.2491 35.9059 52.4105 35.5529C52.8946 34.4636 53.056 33.5962 52.9955 32.3657C52.945 31.1049 52.7131 30.2779 52.1482 29.3197C51.6843 28.5229 50.837 27.6454 50.1007 27.1713C49.3947 26.7174 46.7219 25.5071 45.8645 25.2549C44.987 24.9826 42.758 24.912 41.8301 25.1238ZM45.1081 26.8385C45.4409 26.9292 46.4697 27.3428 47.3976 27.7563C48.8198 28.4018 49.1829 28.6136 49.7276 29.1079C50.4134 29.7433 50.9379 30.5905 51.1699 31.468C51.3615 32.1741 51.3413 33.3743 51.1194 34.0501L50.948 34.6048L50.3731 33.4853C50.0604 32.87 49.7376 32.3354 49.6469 32.2951C49.1728 32.1135 48.8299 32.2346 47.8818 32.9406C46.2176 34.161 45.1585 34.5544 43.5447 34.5544C41.941 34.5544 40.8618 34.151 39.2077 32.9406C38.2394 32.2245 37.846 32.0934 37.4123 32.3254C37.3215 32.3758 36.9887 32.9204 36.6861 33.5357C36.3835 34.151 36.1112 34.6553 36.0709 34.6553C35.9599 34.6553 35.4758 33.4752 35.3648 32.9204C35.153 31.8513 35.6977 30.5098 36.6357 29.7937C37.3417 29.2592 37.9469 29.0776 38.8849 29.128C40.1053 29.1885 41.003 29.6929 41.8301 30.8023L42.0822 31.1352L42.7681 30.6712C43.1413 30.4191 43.4439 30.1871 43.4439 30.1568C43.4439 29.9954 42.7681 29.1583 42.284 28.7347C41.7595 28.2606 41.2451 27.958 40.5693 27.6958L40.2667 27.5748L40.7609 27.3226C41.9208 26.7275 43.8473 26.5157 45.1081 26.8385ZM39.9641 35.4722C41.1442 36.0472 42.1226 36.2691 43.5447 36.2691C45.3703 36.2691 47.0446 35.7446 48.3558 34.746L48.8904 34.3527L49.4552 35.4823L50.0301 36.6221L49.9696 39.3453C49.9293 41.4433 49.8788 42.2098 49.7477 42.6738C48.2852 47.969 41.4972 49.2096 38.3302 44.7616C37.3215 43.3596 37.0896 42.2199 37.0896 38.6595V36.5716L37.6443 35.4622L38.199 34.3426L38.6832 34.7057C38.9353 34.9074 39.5203 35.2503 39.9641 35.4722ZM35.4758 38.6897V39.4966H35.1228C34.5781 39.4966 34.0839 39.2546 34.0032 38.952C33.8418 38.3065 34.2654 37.8929 35.1026 37.8828H35.4758V38.6897ZM52.6727 38.024C53.0459 38.1854 53.1972 38.5082 53.0863 38.952C53.0056 39.2546 52.5113 39.4966 51.9667 39.4966H51.6137V38.6897V37.8828H51.9667C52.1684 37.8828 52.4811 37.9434 52.6727 38.024ZM41.9309 49.0684C42.8286 49.2701 44.8862 49.1895 45.7939 48.9171C45.9452 48.8667 45.9654 48.9474 45.9654 49.603V50.3393L44.7551 51.5496L43.5447 52.76L42.3344 51.5496L41.124 50.3393V49.603C41.124 48.9474 41.1442 48.8667 41.3056 48.9171C41.3964 48.9474 41.6788 49.018 41.9309 49.0684ZM40.4483 52.1851L40.9223 52.6692L40.6197 53.5669C40.1759 54.8781 40.1961 54.9789 41.0434 56.2599L41.7595 57.3593L41.0434 59.1748C40.6399 60.1733 40.3171 61.1315 40.3171 61.313C40.3171 61.6257 42.5159 71.3387 42.7479 72.0548C42.8689 72.428 43.1009 72.5793 43.5447 72.5793C43.9885 72.5793 44.2205 72.428 44.3415 72.0548C44.5735 71.3387 46.7723 61.6257 46.7723 61.313C46.7723 61.1315 46.4495 60.1733 46.0461 59.1748L45.33 57.3593L46.0461 56.2599C46.8933 54.9789 46.9135 54.8781 46.4697 53.5669L46.1671 52.6591L46.6412 52.1951L47.1253 51.7211L51.3918 52.4271L55.6481 53.1432V54.3939V55.6345H52.9551C50.4336 55.6345 50.2319 55.6446 49.9192 55.8363C49.7376 55.9472 49.5057 56.1792 49.3947 56.3607C49.2031 56.6835 49.193 56.8852 49.193 65.0349V73.3862H41.9309H34.6689V66.5276V59.669H33.862H33.0551V66.5276V73.3862H29.8275H26.5999V65.4887C26.61 61.1517 26.6504 57.2987 26.6907 56.9256C26.8117 56.0279 27.2555 55.1 27.8708 54.4948C28.7685 53.6072 28.8794 53.5769 34.6487 52.5986C37.5233 52.1144 39.8834 51.7211 39.9137 51.711C39.944 51.7009 40.186 51.9228 40.4483 52.1851ZM66.3798 52.5482C66.8337 52.7398 66.9447 53.1029 66.9447 54.4948V55.6345L64.413 55.6144L61.8814 55.5841L61.6797 55.0798C61.3166 54.1418 60.3382 52.9819 59.5313 52.528C59.2086 52.3464 65.9361 52.3565 66.3798 52.5482ZM58.2504 53.8089C58.4824 53.9199 58.8354 54.172 59.0371 54.3536C59.4305 54.6864 59.9852 55.3925 59.9852 55.5538C59.9852 55.5942 59.3699 55.6345 58.6236 55.6345H57.2619V54.5351V53.4257L57.5443 53.5063C57.6956 53.5568 58.0083 53.6879 58.2504 53.8089ZM42.7479 54.4746C43.0606 54.757 43.222 54.8276 43.5447 54.8276C43.8675 54.8276 44.0289 54.757 44.3415 54.4746C44.5533 54.283 44.7551 54.1216 44.7853 54.1216C44.8156 54.1216 44.866 54.2628 44.9064 54.4343C44.9669 54.6965 44.8963 54.868 44.4121 55.5942C43.9078 56.3406 43.807 56.4414 43.5447 56.4414C43.2825 56.4414 43.1816 56.3406 42.6773 55.5942C42.1932 54.868 42.1226 54.6965 42.1831 54.4343C42.2234 54.2628 42.2739 54.1216 42.3041 54.1216C42.3344 54.1216 42.5361 54.283 42.7479 54.4746ZM73.3998 58.3275C73.3897 60.5263 73.0972 61.4946 72.1491 62.4528C71.08 63.5219 70.3135 63.7035 66.8236 63.7035H64.524V62.2914C64.524 60.3549 64.6854 60.4759 62.1033 60.4759C59.5212 60.4759 59.6826 60.3549 59.6826 62.2914V63.7035H57.3931C53.8932 63.7035 53.1266 63.5219 52.0575 62.4528C51.1094 61.4946 50.8169 60.5263 50.8068 58.3275V57.2483H62.1033H73.3998V58.3275ZM44.4121 59.7194L45.0577 61.3332L44.3314 64.5305C43.928 66.2956 43.575 67.7379 43.5447 67.7379C43.5145 67.7379 43.1614 66.2956 42.758 64.5305L42.0318 61.3332L42.5966 59.9212C42.9093 59.1445 43.2018 58.4082 43.2522 58.2771C43.3127 58.1157 43.4136 58.0552 43.5548 58.0754C43.7263 58.0956 43.8877 58.4183 44.4121 59.7194ZM62.9102 64.0565C62.9102 66.2553 62.8295 66.6688 62.3655 66.7898C61.9218 66.9008 61.599 66.7495 61.4376 66.3763C61.3368 66.1141 61.2964 65.5392 61.2964 64.0565V62.0897H62.1033H62.9102V64.0565ZM52.1886 64.702C53.3485 65.287 53.6007 65.3173 56.7778 65.3173H59.6826V66.0435C59.6927 67.5967 60.6206 68.5448 62.1235 68.5448C62.8699 68.5448 63.4246 68.3129 63.8886 67.8287C64.3525 67.3345 64.524 66.8504 64.524 66.0233V65.3173H67.4288C69.8091 65.3173 70.4345 65.287 70.8884 65.1559C71.6549 64.9239 72.5324 64.47 72.9964 64.0464L73.3998 63.6833V66.921V70.1586H62.1033H50.8068V66.921V63.6833L51.2102 64.0464C51.4321 64.238 51.8658 64.5406 52.1886 64.702ZM73.3998 72.5793V73.3862H62.1033H50.8068V72.5793V71.7724H62.1033H73.3998V72.5793Z" fill="#16A6EC"/>
<path d="M100.011 22.7273V46H95.0909V27.3977H94.9545L89.625 30.7386V26.375L95.3864 22.7273H100.011ZM114.668 46.5114C112.713 46.5038 111.031 46.0227 109.622 45.0682C108.221 44.1136 107.141 42.7311 106.384 40.9205C105.634 39.1098 105.262 36.9318 105.27 34.3864C105.27 31.8485 105.645 29.6856 106.395 27.8977C107.152 26.1098 108.232 24.75 109.634 23.8182C111.043 22.8788 112.721 22.4091 114.668 22.4091C116.615 22.4091 118.289 22.8788 119.69 23.8182C121.099 24.7576 122.183 26.1212 122.94 27.9091C123.698 29.6894 124.073 31.8485 124.065 34.3864C124.065 36.9394 123.687 39.1212 122.929 40.9318C122.179 42.7424 121.103 44.125 119.702 45.0795C118.3 46.0341 116.622 46.5114 114.668 46.5114ZM114.668 42.4318C116.001 42.4318 117.065 41.7614 117.861 40.4205C118.656 39.0795 119.05 37.0682 119.043 34.3864C119.043 32.6212 118.861 31.1515 118.497 29.9773C118.141 28.803 117.634 27.9205 116.974 27.3295C116.323 26.7386 115.554 26.4432 114.668 26.4432C113.342 26.4432 112.281 27.1061 111.486 28.4318C110.69 29.7576 110.289 31.7424 110.281 34.3864C110.281 36.1742 110.459 37.6667 110.815 38.8636C111.179 40.053 111.69 40.947 112.349 41.5455C113.009 42.1364 113.781 42.4318 114.668 42.4318ZM132.006 40.9773L132.017 35.1705H132.722L138.312 28.5455H143.869L136.358 37.3182H135.21L132.006 40.9773ZM127.619 46V22.7273H132.46V46H127.619ZM138.528 46L133.392 38.3977L136.619 34.9773L144.199 46H138.528ZM152.56 44.7386V28.6477H156.628V44.7386H152.56ZM146.548 38.7273V34.6591H162.639V38.7273H146.548Z" fill="#16A6EC"/>
<path d="M96.7443 62.1818C96.6676 61.5341 96.3565 61.0312 95.8111 60.6733C95.2656 60.3153 94.5966 60.1364 93.804 60.1364C93.2244 60.1364 92.7173 60.2301 92.2827 60.4176C91.8523 60.6051 91.5156 60.8629 91.2727 61.1911C91.0341 61.5192 90.9148 61.892 90.9148 62.3097C90.9148 62.6591 90.9979 62.9595 91.1641 63.2109C91.3345 63.4581 91.5518 63.6648 91.8161 63.831C92.0803 63.9929 92.3572 64.1271 92.647 64.2337C92.9368 64.3359 93.2031 64.419 93.446 64.483L94.7756 64.8409C95.1165 64.9304 95.4957 65.054 95.9134 65.2116C96.3352 65.3693 96.7379 65.5845 97.1214 65.8572C97.5092 66.1257 97.8288 66.4709 98.0803 66.8928C98.3317 67.3146 98.4574 67.8324 98.4574 68.446C98.4574 69.1534 98.272 69.7926 97.9013 70.3636C97.5348 70.9347 96.9979 71.3885 96.2905 71.7251C95.5874 72.0618 94.733 72.2301 93.7273 72.2301C92.7898 72.2301 91.978 72.0788 91.2919 71.7763C90.6101 71.4737 90.0732 71.0518 89.6811 70.5107C89.2933 69.9695 89.0739 69.3409 89.0227 68.625H90.6591C90.7017 69.1193 90.8679 69.5284 91.1577 69.8523C91.4517 70.1719 91.8224 70.4105 92.2699 70.5682C92.7216 70.7216 93.2074 70.7983 93.7273 70.7983C94.3324 70.7983 94.8757 70.7003 95.3572 70.5043C95.8388 70.304 96.2202 70.027 96.5014 69.6733C96.7827 69.3153 96.9233 68.8977 96.9233 68.4205C96.9233 67.9858 96.8018 67.6321 96.5589 67.3594C96.3161 67.0866 95.9964 66.8651 95.6001 66.6946C95.2038 66.5241 94.7756 66.375 94.3153 66.2472L92.7045 65.7869C91.6818 65.4929 90.8722 65.0732 90.2756 64.5277C89.679 63.9822 89.3807 63.2685 89.3807 62.3864C89.3807 61.6534 89.5788 61.0142 89.9751 60.4688C90.3757 59.919 90.9126 59.4929 91.5859 59.1903C92.2635 58.8835 93.0199 58.7301 93.8551 58.7301C94.6989 58.7301 95.4489 58.8814 96.1051 59.1839C96.7614 59.4822 97.2813 59.8913 97.6648 60.4112C98.0526 60.9311 98.2571 61.5213 98.2784 62.1818H96.7443ZM105.129 62.1818V63.4602H100.041V62.1818H105.129ZM101.524 59.8295H103.032V69.1875C103.032 69.6136 103.094 69.9332 103.218 70.1463C103.346 70.3551 103.508 70.4957 103.704 70.5682C103.904 70.6364 104.115 70.6705 104.336 70.6705C104.503 70.6705 104.639 70.6619 104.746 70.6449C104.852 70.6236 104.937 70.6065 105.001 70.5938L105.308 71.9489C105.206 71.9872 105.063 72.0256 104.88 72.0639C104.697 72.1065 104.464 72.1278 104.183 72.1278C103.757 72.1278 103.339 72.0362 102.93 71.853C102.525 71.6697 102.189 71.3906 101.92 71.0156C101.656 70.6406 101.524 70.1676 101.524 69.5966V59.8295ZM113.586 67.9858V62.1818H115.094V72H113.586V70.3381H113.483C113.253 70.8366 112.895 71.2607 112.41 71.6101C111.924 71.9553 111.31 72.1278 110.569 72.1278C109.955 72.1278 109.41 71.9936 108.932 71.7251C108.455 71.4524 108.08 71.0433 107.807 70.4979C107.535 69.9482 107.398 69.2557 107.398 68.4205V62.1818H108.907V68.3182C108.907 69.0341 109.107 69.6051 109.508 70.0312C109.912 70.4574 110.428 70.6705 111.055 70.6705C111.43 70.6705 111.811 70.5746 112.199 70.3828C112.591 70.1911 112.919 69.897 113.183 69.5007C113.452 69.1044 113.586 68.5994 113.586 67.9858ZM121.565 72.2045C120.746 72.2045 120.024 71.9979 119.398 71.5845C118.771 71.1669 118.281 70.5788 117.928 69.8203C117.574 69.0575 117.397 68.1562 117.397 67.1165C117.397 66.0852 117.574 65.1903 117.928 64.4318C118.281 63.6733 118.773 63.0874 119.404 62.674C120.035 62.2607 120.763 62.054 121.59 62.054C122.229 62.054 122.734 62.1605 123.105 62.3736C123.48 62.5824 123.766 62.821 123.962 63.0895C124.162 63.3537 124.317 63.571 124.428 63.7415H124.556V58.9091H126.065V72H124.607V70.4915H124.428C124.317 70.6705 124.16 70.8963 123.955 71.169C123.751 71.4375 123.459 71.6783 123.08 71.8913C122.7 72.1001 122.195 72.2045 121.565 72.2045ZM121.769 70.8494C122.374 70.8494 122.886 70.6918 123.303 70.3764C123.721 70.0568 124.038 69.6158 124.256 69.0533C124.473 68.4865 124.582 67.8324 124.582 67.0909C124.582 66.358 124.475 65.7166 124.262 65.1669C124.049 64.6129 123.734 64.1825 123.316 63.8757C122.898 63.5646 122.383 63.4091 121.769 63.4091C121.13 63.4091 120.597 63.5732 120.171 63.9013C119.749 64.2251 119.432 64.6662 119.219 65.2244C119.01 65.7784 118.906 66.4006 118.906 67.0909C118.906 67.7898 119.012 68.4247 119.225 68.9957C119.442 69.5625 119.762 70.0142 120.184 70.3509C120.61 70.6832 121.138 70.8494 121.769 70.8494ZM133.153 72.2045C132.207 72.2045 131.391 71.9957 130.705 71.5781C130.023 71.1562 129.497 70.5682 129.126 69.8139C128.76 69.0554 128.577 68.1733 128.577 67.1676C128.577 66.1619 128.76 65.2756 129.126 64.5085C129.497 63.7372 130.013 63.1364 130.673 62.706C131.338 62.2713 132.114 62.054 133 62.054C133.511 62.054 134.016 62.1392 134.515 62.3097C135.013 62.4801 135.467 62.7571 135.876 63.1406C136.286 63.5199 136.612 64.0227 136.854 64.6491C137.097 65.2756 137.219 66.0469 137.219 66.9631V67.6023H129.651V66.2983H135.685C135.685 65.7443 135.574 65.25 135.352 64.8153C135.135 64.3807 134.824 64.0376 134.419 63.7862C134.018 63.5348 133.545 63.4091 133 63.4091C132.399 63.4091 131.879 63.5582 131.44 63.8565C131.006 64.1506 130.671 64.5341 130.437 65.0071C130.202 65.4801 130.085 65.9872 130.085 66.5284V67.3977C130.085 68.1392 130.213 68.7678 130.469 69.2834C130.729 69.7947 131.089 70.1847 131.549 70.4531C132.009 70.7173 132.544 70.8494 133.153 70.8494C133.55 70.8494 133.908 70.794 134.227 70.6832C134.551 70.5682 134.83 70.3977 135.065 70.1719C135.299 69.9418 135.48 69.6562 135.608 69.3153L137.065 69.7244C136.912 70.2188 136.654 70.6534 136.292 71.0284C135.93 71.3991 135.482 71.6889 134.95 71.8977C134.417 72.1023 133.818 72.2045 133.153 72.2045ZM141.022 66.0938V72H139.513V62.1818H140.971V63.7159H141.099C141.329 63.2173 141.678 62.8168 142.147 62.5142C142.616 62.2074 143.221 62.054 143.962 62.054C144.627 62.054 145.209 62.1903 145.707 62.4631C146.206 62.7315 146.594 63.1406 146.871 63.6903C147.148 64.2358 147.286 64.9261 147.286 65.7614V72H145.778V65.8636C145.778 65.0923 145.577 64.4915 145.177 64.0611C144.776 63.6264 144.227 63.4091 143.528 63.4091C143.046 63.4091 142.616 63.5135 142.237 63.7223C141.862 63.9311 141.565 64.2358 141.348 64.6364C141.131 65.0369 141.022 65.5227 141.022 66.0938ZM154.313 62.1818V63.4602H149.225V62.1818H154.313ZM150.708 59.8295H152.216V69.1875C152.216 69.6136 152.278 69.9332 152.401 70.1463C152.529 70.3551 152.691 70.4957 152.887 70.5682C153.088 70.6364 153.298 70.6705 153.52 70.6705C153.686 70.6705 153.823 70.6619 153.929 70.6449C154.036 70.6236 154.121 70.6065 154.185 70.5938L154.492 71.9489C154.389 71.9872 154.247 72.0256 154.063 72.0639C153.88 72.1065 153.648 72.1278 153.367 72.1278C152.941 72.1278 152.523 72.0362 152.114 71.853C151.709 71.6697 151.372 71.3906 151.104 71.0156C150.84 70.6406 150.708 70.1676 150.708 69.5966V59.8295ZM161.849 72V58.9091H166.272C167.299 58.9091 168.139 59.0945 168.791 59.4652C169.447 59.8317 169.933 60.3281 170.248 60.9545C170.563 61.581 170.721 62.2798 170.721 63.0511C170.721 63.8224 170.563 64.5234 170.248 65.1541C169.937 65.7848 169.455 66.2876 168.803 66.6626C168.151 67.0334 167.316 67.2188 166.298 67.2188H163.127V65.8125H166.247C166.95 65.8125 167.514 65.6911 167.941 65.4482C168.367 65.2053 168.676 64.8771 168.867 64.4638C169.063 64.0462 169.161 63.5753 169.161 63.0511C169.161 62.527 169.063 62.0582 168.867 61.6449C168.676 61.2315 168.365 60.9077 167.934 60.6733C167.504 60.4347 166.933 60.3153 166.221 60.3153H163.434V72H161.849ZM174.579 58.9091V72H173.07V58.9091H174.579ZM180.231 72.2301C179.609 72.2301 179.044 72.1129 178.537 71.8786C178.03 71.6399 177.627 71.2969 177.329 70.8494C177.031 70.3977 176.881 69.8523 176.881 69.2131C176.881 68.6506 176.992 68.1946 177.214 67.8452C177.435 67.4915 177.732 67.2145 178.102 67.0142C178.473 66.8139 178.882 66.6648 179.33 66.5668C179.781 66.4645 180.235 66.3835 180.691 66.3239C181.288 66.2472 181.771 66.1896 182.142 66.1513C182.517 66.1087 182.79 66.0384 182.96 65.9403C183.135 65.8423 183.222 65.6719 183.222 65.429V65.3778C183.222 64.7472 183.05 64.2571 182.705 63.9077C182.364 63.5582 181.846 63.3835 181.151 63.3835C180.431 63.3835 179.866 63.5412 179.457 63.8565C179.048 64.1719 178.761 64.5085 178.594 64.8665L177.163 64.3551C177.418 63.7585 177.759 63.294 178.185 62.9616C178.616 62.625 179.085 62.3906 179.592 62.2585C180.103 62.1222 180.606 62.054 181.1 62.054C181.415 62.054 181.778 62.0923 182.187 62.169C182.6 62.2415 182.999 62.3928 183.382 62.6229C183.77 62.853 184.092 63.2003 184.347 63.6648C184.603 64.1293 184.731 64.7514 184.731 65.5312V72H183.222V70.6705H183.146C183.043 70.8835 182.873 71.1115 182.634 71.3544C182.396 71.5973 182.078 71.804 181.682 71.9744C181.286 72.1449 180.802 72.2301 180.231 72.2301ZM180.461 70.875C181.058 70.875 181.56 70.7578 181.969 70.5234C182.383 70.2891 182.694 69.9865 182.903 69.6158C183.116 69.245 183.222 68.8551 183.222 68.446V67.0653C183.158 67.142 183.018 67.2124 182.8 67.2763C182.587 67.3359 182.34 67.3892 182.059 67.4361C181.782 67.4787 181.511 67.517 181.247 67.5511C180.987 67.581 180.776 67.6065 180.614 67.6278C180.222 67.679 179.856 67.7621 179.515 67.8771C179.178 67.9879 178.906 68.1562 178.697 68.3821C178.492 68.6037 178.39 68.9062 178.39 69.2898C178.39 69.8139 178.584 70.2102 178.972 70.4787C179.364 70.7429 179.86 70.875 180.461 70.875ZM191.473 72.2045C190.552 72.2045 189.76 71.9872 189.095 71.5526C188.43 71.1179 187.919 70.5192 187.561 69.7564C187.203 68.9936 187.024 68.1222 187.024 67.142C187.024 66.1449 187.207 65.2649 187.574 64.5021C187.944 63.7351 188.46 63.1364 189.121 62.706C189.785 62.2713 190.561 62.054 191.447 62.054C192.138 62.054 192.76 62.1818 193.314 62.4375C193.868 62.6932 194.322 63.0511 194.675 63.5114C195.029 63.9716 195.248 64.5085 195.334 65.1222H193.825C193.71 64.6747 193.454 64.2784 193.058 63.9332C192.666 63.5838 192.138 63.4091 191.473 63.4091C190.885 63.4091 190.369 63.5625 189.926 63.8693C189.487 64.1719 189.144 64.6001 188.897 65.1541C188.654 65.7038 188.532 66.3494 188.532 67.0909C188.532 67.8494 188.652 68.5099 188.89 69.0724C189.133 69.6349 189.474 70.0717 189.913 70.3828C190.356 70.6939 190.876 70.8494 191.473 70.8494C191.865 70.8494 192.221 70.7812 192.54 70.6449C192.86 70.5085 193.131 70.3125 193.352 70.0568C193.574 69.8011 193.731 69.4943 193.825 69.1364H195.334C195.248 69.7159 195.037 70.2379 194.701 70.7024C194.368 71.1626 193.927 71.5291 193.378 71.8018C192.832 72.0703 192.197 72.2045 191.473 72.2045ZM201.655 72.2045C200.709 72.2045 199.893 71.9957 199.207 71.5781C198.525 71.1562 197.999 70.5682 197.628 69.8139C197.262 69.0554 197.079 68.1733 197.079 67.1676C197.079 66.1619 197.262 65.2756 197.628 64.5085C197.999 63.7372 198.515 63.1364 199.175 62.706C199.84 62.2713 200.616 62.054 201.502 62.054C202.013 62.054 202.518 62.1392 203.017 62.3097C203.515 62.4801 203.969 62.7571 204.378 63.1406C204.787 63.5199 205.113 64.0227 205.356 64.6491C205.599 65.2756 205.721 66.0469 205.721 66.9631V67.6023H198.153V66.2983H204.187C204.187 65.7443 204.076 65.25 203.854 64.8153C203.637 64.3807 203.326 64.0376 202.921 63.7862C202.52 63.5348 202.047 63.4091 201.502 63.4091C200.901 63.4091 200.381 63.5582 199.942 63.8565C199.508 64.1506 199.173 64.5341 198.939 65.0071C198.704 65.4801 198.587 65.9872 198.587 66.5284V67.3977C198.587 68.1392 198.715 68.7678 198.971 69.2834C199.231 69.7947 199.591 70.1847 200.051 70.4531C200.511 70.7173 201.046 70.8494 201.655 70.8494C202.052 70.8494 202.41 70.794 202.729 70.6832C203.053 70.5682 203.332 70.3977 203.567 70.1719C203.801 69.9418 203.982 69.6562 204.11 69.3153L205.567 69.7244C205.414 70.2188 205.156 70.6534 204.794 71.0284C204.432 71.3991 203.984 71.6889 203.452 71.8977C202.919 72.1023 202.32 72.2045 201.655 72.2045ZM211.723 72.2045C210.905 72.2045 210.182 71.9979 209.556 71.5845C208.93 71.1669 208.439 70.5788 208.086 69.8203C207.732 69.0575 207.555 68.1562 207.555 67.1165C207.555 66.0852 207.732 65.1903 208.086 64.4318C208.439 63.6733 208.932 63.0874 209.562 62.674C210.193 62.2607 210.922 62.054 211.748 62.054C212.388 62.054 212.893 62.1605 213.263 62.3736C213.638 62.5824 213.924 62.821 214.12 63.0895C214.32 63.3537 214.476 63.571 214.586 63.7415H214.714V58.9091H216.223V72H214.765V70.4915H214.586C214.476 70.6705 214.318 70.8963 214.113 71.169C213.909 71.4375 213.617 71.6783 213.238 71.8913C212.858 72.1001 212.354 72.2045 211.723 72.2045ZM211.927 70.8494C212.532 70.8494 213.044 70.6918 213.461 70.3764C213.879 70.0568 214.197 69.6158 214.414 69.0533C214.631 68.4865 214.74 67.8324 214.74 67.0909C214.74 66.358 214.633 65.7166 214.42 65.1669C214.207 64.6129 213.892 64.1825 213.474 63.8757C213.057 63.5646 212.541 63.4091 211.927 63.4091C211.288 63.4091 210.756 63.5732 210.329 63.9013C209.907 64.2251 209.59 64.6662 209.377 65.2244C209.168 65.7784 209.064 66.4006 209.064 67.0909C209.064 67.7898 209.17 68.4247 209.383 68.9957C209.601 69.5625 209.92 70.0142 210.342 70.3509C210.768 70.6832 211.297 70.8494 211.927 70.8494Z" fill="#333333"/>
</svg>
