<svg width="104" height="18" viewBox="0 0 104 18" fill="none" xmlns="http://www.w3.org/2000/svg">
<path d="M9.14282 0L11.1634 6.21885H17.7023L12.4123 10.0623L14.4329 16.2812L9.14282 12.4377L3.85276 16.2812L5.87338 10.0623L0.583314 6.21885H7.1222L9.14282 0Z" fill="#FFB72C"/>
<path d="M30.5714 0L32.592 6.21885H39.1309L33.8409 10.0623L35.8615 16.2812L30.5714 12.4377L25.2813 16.2812L27.302 10.0623L22.0119 6.21885H28.5508L30.5714 0Z" fill="#FFB72C"/>
<path d="M51.9999 0L54.0206 6.21885H60.5594L55.2694 10.0623L57.29 16.2812L51.9999 12.4377L46.7099 16.2812L48.7305 10.0623L43.4404 6.21885H49.9793L51.9999 0Z" fill="#FFB72C"/>
<path d="M73.4285 0L75.4492 6.21885H81.988L76.698 10.0623L78.7186 16.2812L73.4285 12.4377L68.1385 16.2812L70.1591 10.0623L64.869 6.21885H71.4079L73.4285 0Z" fill="#FFB72C"/>
<path d="M94.8571 0L96.8777 6.21885H103.417L98.1266 10.0623L100.147 16.2812L94.8571 12.4377L89.567 16.2812L91.5877 10.0623L86.2976 6.21885H92.8365L94.8571 0Z" fill="#FFB72C"/>
</svg>
