<svg width="256" height="100" viewBox="0 0 256 100" fill="none" xmlns="http://www.w3.org/2000/svg">
<rect x="0.5" y="0.5" width="255" height="99" rx="9.5" stroke="#16A6EC"/>
<path d="M27.6765 25.4485C26.8153 25.6323 25.9929 26.2323 25.5671 27.0064L25.2768 27.5289L25.2478 49.8521L25.2284 72.1753L25.4316 72.7171C25.7026 73.4332 26.3896 74.1299 27.1153 74.4008L27.6572 74.604H49.9997H72.3422L72.8841 74.4008C73.6002 74.1299 74.2969 73.4332 74.5678 72.7171C74.771 72.1849 74.771 72.0978 74.771 60.9701C74.771 48.3813 74.8194 49.2715 74.0356 48.391C73.7937 48.12 73.3776 47.8007 73.097 47.6652C72.7196 47.4911 70.2618 46.9685 63.382 45.6042L54.1702 43.785L54.1412 37.4471L54.1121 31.1091L53.8412 30.5576C53.5412 29.948 53.009 29.4351 52.3607 29.1255C52.0317 28.9803 49.1675 28.5062 40.4879 27.1902C34.1983 26.2419 28.8377 25.4388 28.5667 25.4098C28.3055 25.3808 27.8991 25.4001 27.6765 25.4485ZM39.8396 29.2706C46.0421 30.2092 51.2383 31.022 51.3931 31.0801C51.5382 31.1381 51.7511 31.322 51.8479 31.4865C52.022 31.7768 52.0317 32.3961 52.0317 52.126V72.4752H48.9837H45.9453L45.9163 67.4629L45.8873 62.4603L45.6164 61.9184C45.3067 61.2798 44.6584 60.6411 44.0198 60.3508C43.5747 60.1476 43.4585 60.138 39.6848 60.138H35.8046L35.1369 60.4766C34.6628 60.7185 34.3725 60.9508 34.1113 61.2991C33.4533 62.1603 33.4533 62.17 33.4533 67.6081V72.4752H30.7923C27.8894 72.4752 27.6959 72.4462 27.4733 71.943C27.3088 71.5947 27.3088 28.4385 27.4636 28.1288C27.6281 27.7998 27.9571 27.5773 28.2765 27.5773C28.4313 27.5773 33.6274 28.3417 39.8396 29.2706ZM63.3046 47.8007C72.1003 49.5328 72.11 49.5328 72.3809 49.8327L72.6422 50.123V60.9121C72.6422 69.0595 72.6132 71.7495 72.5261 71.943C72.2745 72.4946 72.6422 72.4752 63.0143 72.4752H54.1605V59.2284C54.1605 46.6589 54.1702 45.9816 54.3347 46.0203C54.4218 46.0396 58.4665 46.8427 63.3046 47.8007ZM43.294 62.4699C43.7779 62.8376 43.7972 62.9731 43.7972 67.8983L43.8069 72.4752H39.6945H35.582V67.7822C35.582 63.9214 35.6111 63.0312 35.7175 62.8183C35.8433 62.5764 36.0659 62.4119 36.4529 62.2764C36.5303 62.2474 38.0398 62.2377 39.8106 62.2474C42.8973 62.2667 43.0328 62.2764 43.294 62.4699Z" fill="#16A6EC"/>
<path d="M31.9632 35.4634C31.5471 35.6859 31.431 35.8891 31.4213 36.4117C31.4213 36.8084 31.4697 36.9245 31.7019 37.1664L31.9826 37.447H34.5177H37.0529L37.3335 37.1664C37.5658 36.9245 37.6141 36.7987 37.6141 36.4117C37.6141 35.8891 37.4109 35.5795 36.9658 35.4053C36.84 35.3569 35.7176 35.3182 34.4887 35.3182C32.6696 35.3182 32.1858 35.3473 31.9632 35.4634Z" fill="#16A6EC"/>
<path d="M42.2007 35.5021C41.6104 35.8601 41.533 36.6923 42.0362 37.1954L42.2877 37.447H44.7939C46.3324 37.447 47.3775 37.4083 47.4936 37.3503C47.7452 37.2051 47.9677 36.7503 47.9677 36.3439C47.9677 36.102 47.8806 35.9085 47.6871 35.6859L47.4065 35.3666L44.9487 35.3376C42.6845 35.3182 42.4813 35.3279 42.2007 35.5021Z" fill="#16A6EC"/>
<path d="M31.9632 41.6563C31.5471 41.8788 31.431 42.082 31.4213 42.6045C31.4213 43.0013 31.4697 43.1174 31.7019 43.3593L31.9826 43.6399H34.5177H37.0529L37.3335 43.3593C37.5658 43.1174 37.6141 42.9916 37.6141 42.6045C37.6141 42.082 37.4109 41.7724 36.9658 41.5982C36.84 41.5498 35.7176 41.5111 34.4887 41.5111C32.6696 41.5111 32.1858 41.5401 31.9632 41.6563Z" fill="#16A6EC"/>
<path d="M42.2007 41.695C41.6104 42.053 41.533 42.8851 42.0362 43.3883L42.2877 43.6399H44.7939C46.3324 43.6399 47.3775 43.6012 47.4936 43.5431C47.7452 43.398 47.9677 42.9432 47.9677 42.5368C47.9677 42.2949 47.8806 42.1014 47.6871 41.8788L47.4065 41.5595L44.9487 41.5305C42.6845 41.5111 42.4813 41.5208 42.2007 41.695Z" fill="#16A6EC"/>
<path d="M31.9632 47.8491C31.5471 48.0717 31.431 48.2749 31.4213 48.7974C31.4213 49.1941 31.4697 49.3102 31.7019 49.5522L31.9826 49.8328H34.5177H37.0529L37.3335 49.5522C37.5658 49.3102 37.6141 49.1845 37.6141 48.7974C37.6141 48.2749 37.4109 47.9652 36.9658 47.7911C36.84 47.7427 35.7176 47.704 34.4887 47.704C32.6696 47.704 32.1858 47.733 31.9632 47.8491Z" fill="#16A6EC"/>
<path d="M42.2007 47.8878C41.6104 48.2459 41.533 49.078 42.0362 49.5812L42.2877 49.8328H44.7939C46.3324 49.8328 47.3775 49.7941 47.4936 49.736C47.7452 49.5909 47.9677 49.1361 47.9677 48.7297C47.9677 48.4878 47.8806 48.2942 47.6871 48.0717L47.4065 47.7524L44.9487 47.7233C42.6845 47.704 42.4813 47.7137 42.2007 47.8878Z" fill="#16A6EC"/>
<path d="M31.9632 54.0418C31.5471 54.2643 31.431 54.4675 31.4213 54.99C31.4213 55.3868 31.4697 55.5029 31.7019 55.7448L31.9826 56.0254H34.5177H37.0529L37.3335 55.7448C37.5658 55.5029 37.6141 55.3771 37.6141 54.99C37.6141 54.4675 37.4109 54.1579 36.9658 53.9837C36.84 53.9353 35.7176 53.8966 34.4887 53.8966C32.6696 53.8966 32.1858 53.9256 31.9632 54.0418Z" fill="#16A6EC"/>
<path d="M42.2007 54.0805C41.6104 54.4385 41.533 55.2706 42.0362 55.7738L42.2877 56.0254H44.7939C46.3324 56.0254 47.3775 55.9867 47.4936 55.9286C47.7452 55.7835 47.9677 55.3287 47.9677 54.9223C47.9677 54.6804 47.8806 54.4869 47.6871 54.2643L47.4065 53.945L44.9487 53.916C42.6845 53.8966 42.4813 53.9063 42.2007 54.0805Z" fill="#16A6EC"/>
<path d="M60.7789 54.0805C60.1886 54.4385 60.1112 55.2706 60.6144 55.7738L60.866 56.0254H63.3721C64.9106 56.0254 65.9557 55.9867 66.0718 55.9286C66.3234 55.7835 66.5459 55.3287 66.5459 54.9223C66.5459 54.6804 66.4589 54.4869 66.2653 54.2643L65.9847 53.945L63.5269 53.916C61.2627 53.8966 61.0595 53.9063 60.7789 54.0805Z" fill="#16A6EC"/>
<path d="M60.7789 60.2733C60.1886 60.6314 60.1112 61.4635 60.6144 61.9667L60.866 62.2183H63.3721C64.9106 62.2183 65.9557 62.1796 66.0718 62.1215C66.3234 61.9764 66.5459 61.5216 66.5459 61.1152C66.5459 60.8733 66.4589 60.6797 66.2653 60.4572L65.9847 60.1379L63.5269 60.1088C61.2627 60.0895 61.0595 60.0992 60.7789 60.2733Z" fill="#16A6EC"/>
<path d="M60.7789 66.4662C60.1886 66.8242 60.1112 67.6564 60.6144 68.1595L60.866 68.4111H63.3721C64.9106 68.4111 65.9557 68.3724 66.0718 68.3144C66.3234 68.1692 66.5459 67.7144 66.5459 67.308C66.5459 67.0661 66.4589 66.8726 66.2653 66.65L65.9847 66.3307L63.5269 66.3017C61.2627 66.2824 61.0595 66.292 60.7789 66.4662Z" fill="#16A6EC"/>
<path d="M100.011 22.7273V46H95.0909V27.3977H94.9545L89.625 30.7386V26.375L95.3864 22.7273H100.011ZM114.668 46.5114C112.713 46.5038 111.031 46.0227 109.622 45.0682C108.221 44.1136 107.141 42.7311 106.384 40.9205C105.634 39.1098 105.262 36.9318 105.27 34.3864C105.27 31.8485 105.645 29.6856 106.395 27.8977C107.152 26.1098 108.232 24.75 109.634 23.8182C111.043 22.8788 112.721 22.4091 114.668 22.4091C116.615 22.4091 118.289 22.8788 119.69 23.8182C121.099 24.7576 122.183 26.1212 122.94 27.9091C123.698 29.6894 124.073 31.8485 124.065 34.3864C124.065 36.9394 123.687 39.1212 122.929 40.9318C122.179 42.7424 121.103 44.125 119.702 45.0795C118.3 46.0341 116.622 46.5114 114.668 46.5114ZM114.668 42.4318C116.001 42.4318 117.065 41.7614 117.861 40.4205C118.656 39.0795 119.05 37.0682 119.043 34.3864C119.043 32.6212 118.861 31.1515 118.497 29.9773C118.141 28.803 117.634 27.9205 116.974 27.3295C116.323 26.7386 115.554 26.4432 114.668 26.4432C113.342 26.4432 112.281 27.1061 111.486 28.4318C110.69 29.7576 110.289 31.7424 110.281 34.3864C110.281 36.1742 110.459 37.6667 110.815 38.8636C111.179 40.053 111.69 40.947 112.349 41.5455C113.009 42.1364 113.781 42.4318 114.668 42.4318ZM136.699 46.5114C134.744 46.5038 133.063 46.0227 131.653 45.0682C130.252 44.1136 129.172 42.7311 128.415 40.9205C127.665 39.1098 127.294 36.9318 127.301 34.3864C127.301 31.8485 127.676 29.6856 128.426 27.8977C129.184 26.1098 130.263 24.75 131.665 23.8182C133.074 22.8788 134.752 22.4091 136.699 22.4091C138.646 22.4091 140.32 22.8788 141.722 23.8182C143.131 24.7576 144.214 26.1212 144.972 27.9091C145.729 29.6894 146.104 31.8485 146.097 34.3864C146.097 36.9394 145.718 39.1212 144.96 40.9318C144.21 42.7424 143.134 44.125 141.733 45.0795C140.331 46.0341 138.653 46.5114 136.699 46.5114ZM136.699 42.4318C138.032 42.4318 139.097 41.7614 139.892 40.4205C140.688 39.0795 141.081 37.0682 141.074 34.3864C141.074 32.6212 140.892 31.1515 140.528 29.9773C140.172 28.803 139.665 27.9205 139.006 27.3295C138.354 26.7386 137.585 26.4432 136.699 26.4432C135.373 26.4432 134.313 27.1061 133.517 28.4318C132.722 29.7576 132.32 31.7424 132.312 34.3864C132.312 36.1742 132.491 37.6667 132.847 38.8636C133.21 40.053 133.722 40.947 134.381 41.5455C135.04 42.1364 135.812 42.4318 136.699 42.4318ZM154.037 40.9773L154.048 35.1705H154.753L160.344 28.5455H165.901L158.389 37.3182H157.241L154.037 40.9773ZM149.651 46V22.7273H154.491V46H149.651ZM160.56 46L155.423 38.3977L158.651 34.9773L166.23 46H160.56ZM174.591 44.7386V28.6477H178.659V44.7386H174.591ZM168.58 38.7273V34.6591H184.67V38.7273H168.58Z" fill="#16A6EC"/>
<path d="M93.3693 72.2045C92.4489 72.2045 91.6563 71.9872 90.9915 71.5526C90.3267 71.1179 89.8153 70.5192 89.4574 69.7564C89.0994 68.9936 88.9205 68.1222 88.9205 67.142C88.9205 66.1449 89.1037 65.2649 89.4702 64.5021C89.8409 63.7351 90.3565 63.1364 91.017 62.706C91.6818 62.2713 92.4574 62.054 93.3438 62.054C94.0341 62.054 94.6562 62.1818 95.2102 62.4375C95.7642 62.6932 96.218 63.0511 96.5717 63.5114C96.9254 63.9716 97.1449 64.5085 97.2301 65.1222H95.7216C95.6065 64.6747 95.3509 64.2784 94.9545 63.9332C94.5625 63.5838 94.0341 63.4091 93.3693 63.4091C92.7813 63.4091 92.2656 63.5625 91.8224 63.8693C91.3835 64.1719 91.0405 64.6001 90.7933 65.1541C90.5504 65.7038 90.429 66.3494 90.429 67.0909C90.429 67.8494 90.5483 68.5099 90.7869 69.0724C91.0298 69.6349 91.3707 70.0717 91.8097 70.3828C92.2528 70.6939 92.7727 70.8494 93.3693 70.8494C93.7614 70.8494 94.1172 70.7812 94.4368 70.6449C94.7564 70.5085 95.027 70.3125 95.2486 70.0568C95.4702 69.8011 95.6278 69.4943 95.7216 69.1364H97.2301C97.1449 69.7159 96.9339 70.2379 96.5973 70.7024C96.2649 71.1626 95.8239 71.5291 95.2741 71.8018C94.7287 72.0703 94.0938 72.2045 93.3693 72.2045ZM103.424 72.2045C102.538 72.2045 101.76 71.9936 101.091 71.5717C100.426 71.1499 99.9062 70.5597 99.5312 69.8011C99.1605 69.0426 98.9751 68.1562 98.9751 67.142C98.9751 66.1193 99.1605 65.2266 99.5312 64.4638C99.9062 63.701 100.426 63.1087 101.091 62.6868C101.76 62.2649 102.538 62.054 103.424 62.054C104.31 62.054 105.086 62.2649 105.751 62.6868C106.42 63.1087 106.94 63.701 107.31 64.4638C107.685 65.2266 107.873 66.1193 107.873 67.142C107.873 68.1562 107.685 69.0426 107.31 69.8011C106.94 70.5597 106.42 71.1499 105.751 71.5717C105.086 71.9936 104.31 72.2045 103.424 72.2045ZM103.424 70.8494C104.097 70.8494 104.651 70.6768 105.086 70.3317C105.521 69.9865 105.842 69.5327 106.051 68.9702C106.26 68.4077 106.364 67.7983 106.364 67.142C106.364 66.4858 106.26 65.8743 106.051 65.3075C105.842 64.7408 105.521 64.2827 105.086 63.9332C104.651 63.5838 104.097 63.4091 103.424 63.4091C102.751 63.4091 102.197 63.5838 101.762 63.9332C101.327 64.2827 101.006 64.7408 100.797 65.3075C100.588 65.8743 100.484 66.4858 100.484 67.142C100.484 67.7983 100.588 68.4077 100.797 68.9702C101.006 69.5327 101.327 69.9865 101.762 70.3317C102.197 70.6768 102.751 70.8494 103.424 70.8494ZM110.176 72V62.1818H111.633V63.7159H111.761C111.965 63.1918 112.296 62.7848 112.752 62.495C113.208 62.201 113.755 62.054 114.394 62.054C115.042 62.054 115.581 62.201 116.012 62.495C116.446 62.7848 116.785 63.1918 117.028 63.7159H117.13C117.382 63.2088 117.759 62.8061 118.262 62.5078C118.764 62.2053 119.367 62.054 120.07 62.054C120.948 62.054 121.666 62.3288 122.225 62.8786C122.783 63.424 123.062 64.2741 123.062 65.429V72H121.553V65.429C121.553 64.7045 121.355 64.1868 120.959 63.8757C120.563 63.5646 120.096 63.4091 119.559 63.4091C118.869 63.4091 118.334 63.6179 117.955 64.0355C117.575 64.4489 117.386 64.973 117.386 65.608V72H115.852V65.2756C115.852 64.7173 115.671 64.2678 115.308 63.9268C114.946 63.5817 114.48 63.4091 113.909 63.4091C113.517 63.4091 113.15 63.5135 112.809 63.7223C112.472 63.9311 112.2 64.2209 111.991 64.5916C111.786 64.9581 111.684 65.3821 111.684 65.8636V72H110.176ZM125.82 75.6818V62.1818H127.278V63.7415H127.456C127.567 63.571 127.721 63.3537 127.917 63.0895C128.117 62.821 128.403 62.5824 128.773 62.3736C129.148 62.1605 129.655 62.054 130.295 62.054C131.121 62.054 131.85 62.2607 132.481 62.674C133.111 63.0874 133.604 63.6733 133.957 64.4318C134.311 65.1903 134.488 66.0852 134.488 67.1165C134.488 68.1562 134.311 69.0575 133.957 69.8203C133.604 70.5788 133.113 71.1669 132.487 71.5845C131.861 71.9979 131.138 72.2045 130.32 72.2045C129.689 72.2045 129.184 72.1001 128.805 71.8913C128.426 71.6783 128.134 71.4375 127.93 71.169C127.725 70.8963 127.567 70.6705 127.456 70.4915H127.329V75.6818H125.82ZM127.303 67.0909C127.303 67.8324 127.412 68.4865 127.629 69.0533C127.846 69.6158 128.164 70.0568 128.581 70.3764C128.999 70.6918 129.51 70.8494 130.116 70.8494C130.746 70.8494 131.273 70.6832 131.694 70.3509C132.121 70.0142 132.44 69.5625 132.653 68.9957C132.871 68.4247 132.979 67.7898 132.979 67.0909C132.979 66.4006 132.873 65.7784 132.66 65.2244C132.451 64.6662 132.133 64.2251 131.707 63.9013C131.285 63.5732 130.755 63.4091 130.116 63.4091C129.502 63.4091 128.986 63.5646 128.569 63.8757C128.151 64.1825 127.836 64.6129 127.623 65.1669C127.41 65.7166 127.303 66.358 127.303 67.0909ZM139.678 72.2301C139.056 72.2301 138.491 72.1129 137.984 71.8786C137.477 71.6399 137.074 71.2969 136.776 70.8494C136.478 70.3977 136.329 69.8523 136.329 69.2131C136.329 68.6506 136.439 68.1946 136.661 67.8452C136.883 67.4915 137.179 67.2145 137.55 67.0142C137.92 66.8139 138.329 66.6648 138.777 66.5668C139.229 66.4645 139.682 66.3835 140.138 66.3239C140.735 66.2472 141.219 66.1896 141.589 66.1513C141.964 66.1087 142.237 66.0384 142.407 65.9403C142.582 65.8423 142.67 65.6719 142.67 65.429V65.3778C142.67 64.7472 142.497 64.2571 142.152 63.9077C141.811 63.5582 141.293 63.3835 140.599 63.3835C139.878 63.3835 139.314 63.5412 138.905 63.8565C138.496 64.1719 138.208 64.5085 138.042 64.8665L136.61 64.3551C136.866 63.7585 137.206 63.294 137.633 62.9616C138.063 62.625 138.532 62.3906 139.039 62.2585C139.55 62.1222 140.053 62.054 140.547 62.054C140.863 62.054 141.225 62.0923 141.634 62.169C142.047 62.2415 142.446 62.3928 142.829 62.6229C143.217 62.853 143.539 63.2003 143.795 63.6648C144.05 64.1293 144.178 64.7514 144.178 65.5312V72H142.67V70.6705H142.593C142.491 70.8835 142.32 71.1115 142.081 71.3544C141.843 71.5973 141.525 71.804 141.129 71.9744C140.733 72.1449 140.249 72.2301 139.678 72.2301ZM139.908 70.875C140.505 70.875 141.008 70.7578 141.417 70.5234C141.83 70.2891 142.141 69.9865 142.35 69.6158C142.563 69.245 142.67 68.8551 142.67 68.446V67.0653C142.606 67.142 142.465 67.2124 142.248 67.2763C142.035 67.3359 141.787 67.3892 141.506 67.4361C141.229 67.4787 140.959 67.517 140.694 67.5511C140.434 67.581 140.224 67.6065 140.062 67.6278C139.67 67.679 139.303 67.7621 138.962 67.8771C138.626 67.9879 138.353 68.1562 138.144 68.3821C137.939 68.6037 137.837 68.9062 137.837 69.2898C137.837 69.8139 138.031 70.2102 138.419 70.4787C138.811 70.7429 139.307 70.875 139.908 70.875ZM148.44 66.0938V72H146.931V62.1818H148.389V63.7159H148.517C148.747 63.2173 149.096 62.8168 149.565 62.5142C150.034 62.2074 150.639 62.054 151.38 62.054C152.045 62.054 152.627 62.1903 153.125 62.4631C153.624 62.7315 154.012 63.1406 154.289 63.6903C154.566 64.2358 154.704 64.9261 154.704 65.7614V72H153.196V65.8636C153.196 65.0923 152.995 64.4915 152.595 64.0611C152.194 63.6264 151.645 63.4091 150.946 63.4091C150.464 63.4091 150.034 63.5135 149.654 63.7223C149.279 63.9311 148.983 64.2358 148.766 64.6364C148.549 65.0369 148.44 65.5227 148.44 66.0938ZM157.461 72V62.1818H158.969V72H157.461ZM158.228 60.5455C157.934 60.5455 157.68 60.4453 157.467 60.245C157.258 60.0447 157.154 59.804 157.154 59.5227C157.154 59.2415 157.258 59.0007 157.467 58.8004C157.68 58.6001 157.934 58.5 158.228 58.5C158.522 58.5 158.773 58.6001 158.982 58.8004C159.195 59.0007 159.302 59.2415 159.302 59.5227C159.302 59.804 159.195 60.0447 158.982 60.245C158.773 60.4453 158.522 60.5455 158.228 60.5455ZM165.849 72.2045C164.903 72.2045 164.087 71.9957 163.401 71.5781C162.719 71.1562 162.192 70.5682 161.822 69.8139C161.455 69.0554 161.272 68.1733 161.272 67.1676C161.272 66.1619 161.455 65.2756 161.822 64.5085C162.192 63.7372 162.708 63.1364 163.369 62.706C164.033 62.2713 164.809 62.054 165.695 62.054C166.207 62.054 166.712 62.1392 167.21 62.3097C167.709 62.4801 168.163 62.7571 168.572 63.1406C168.981 63.5199 169.307 64.0227 169.55 64.6491C169.793 65.2756 169.914 66.0469 169.914 66.9631V67.6023H162.346V66.2983H168.38C168.38 65.7443 168.269 65.25 168.048 64.8153C167.83 64.3807 167.519 64.0376 167.114 63.7862C166.714 63.5348 166.241 63.4091 165.695 63.4091C165.094 63.4091 164.575 63.5582 164.136 63.8565C163.701 64.1506 163.366 64.5341 163.132 65.0071C162.898 65.4801 162.781 65.9872 162.781 66.5284V67.3977C162.781 68.1392 162.908 68.7678 163.164 69.2834C163.424 69.7947 163.784 70.1847 164.244 70.4531C164.705 70.7173 165.239 70.8494 165.849 70.8494C166.245 70.8494 166.603 70.794 166.923 70.6832C167.246 70.5682 167.526 70.3977 167.76 70.1719C167.994 69.9418 168.175 69.6562 168.303 69.3153L169.761 69.7244C169.607 70.2188 169.349 70.6534 168.987 71.0284C168.625 71.3991 168.178 71.6889 167.645 71.8977C167.112 72.1023 166.513 72.2045 165.849 72.2045ZM179.163 64.3807L177.808 64.7642C177.723 64.5384 177.597 64.3189 177.431 64.1058C177.269 63.8885 177.048 63.7095 176.766 63.5689C176.485 63.4283 176.125 63.358 175.686 63.358C175.085 63.358 174.585 63.4964 174.184 63.7734C173.788 64.0462 173.589 64.3935 173.589 64.8153C173.589 65.1903 173.726 65.4865 173.999 65.7038C174.271 65.9212 174.697 66.1023 175.277 66.2472L176.734 66.6051C177.612 66.8182 178.266 67.1442 178.697 67.5831C179.127 68.0178 179.342 68.5781 179.342 69.2642C179.342 69.8267 179.18 70.3295 178.857 70.7727C178.537 71.2159 178.089 71.5653 177.514 71.821C176.939 72.0767 176.27 72.2045 175.507 72.2045C174.506 72.2045 173.677 71.9872 173.021 71.5526C172.364 71.1179 171.949 70.483 171.774 69.6477L173.206 69.2898C173.342 69.8182 173.6 70.2145 173.979 70.4787C174.363 70.7429 174.864 70.875 175.482 70.875C176.185 70.875 176.743 70.7259 177.156 70.4276C177.574 70.125 177.783 69.7628 177.783 69.3409C177.783 69 177.663 68.7145 177.425 68.4844C177.186 68.25 176.82 68.0753 176.325 67.9602L174.689 67.5767C173.79 67.3636 173.129 67.0334 172.707 66.5859C172.29 66.1342 172.081 65.5696 172.081 64.892C172.081 64.3381 172.237 63.848 172.548 63.4219C172.863 62.9957 173.291 62.6612 173.832 62.4183C174.378 62.1754 174.996 62.054 175.686 62.054C176.658 62.054 177.42 62.267 177.974 62.6932C178.533 63.1193 178.929 63.6818 179.163 64.3807ZM188.184 66.0938V72H186.676V58.9091H188.184V63.7159H188.312C188.542 63.2088 188.887 62.8061 189.347 62.5078C189.812 62.2053 190.43 62.054 191.201 62.054C191.87 62.054 192.456 62.1882 192.959 62.4567C193.462 62.7209 193.852 63.1278 194.129 63.6776C194.41 64.223 194.551 64.9176 194.551 65.7614V72H193.042V65.8636C193.042 65.0838 192.84 64.4808 192.435 64.0547C192.034 63.6243 191.478 63.4091 190.767 63.4091C190.272 63.4091 189.829 63.5135 189.437 63.7223C189.049 63.9311 188.742 64.2358 188.517 64.6364C188.295 65.0369 188.184 65.5227 188.184 66.0938ZM197.31 72V62.1818H198.819V72H197.31ZM198.077 60.5455C197.783 60.5455 197.53 60.4453 197.317 60.245C197.108 60.0447 197.004 59.804 197.004 59.5227C197.004 59.2415 197.108 59.0007 197.317 58.8004C197.53 58.6001 197.783 58.5 198.077 58.5C198.371 58.5 198.623 58.6001 198.832 58.8004C199.045 59.0007 199.151 59.2415 199.151 59.5227C199.151 59.804 199.045 60.0447 198.832 60.245C198.623 60.4453 198.371 60.5455 198.077 60.5455ZM201.582 72V62.1818H203.039V63.6648H203.142C203.32 63.179 203.644 62.7848 204.113 62.4822C204.582 62.1797 205.11 62.0284 205.698 62.0284C205.809 62.0284 205.948 62.0305 206.114 62.0348C206.28 62.0391 206.406 62.0455 206.491 62.054V63.5881C206.44 63.5753 206.323 63.5561 206.139 63.5305C205.96 63.5007 205.771 63.4858 205.57 63.4858C205.093 63.4858 204.667 63.5859 204.292 63.7862C203.921 63.9822 203.627 64.255 203.41 64.6044C203.197 64.9496 203.09 65.3437 203.09 65.7869V72H201.582ZM208.279 72V62.1818H209.788V72H208.279ZM209.046 60.5455C208.752 60.5455 208.499 60.4453 208.286 60.245C208.077 60.0447 207.972 59.804 207.972 59.5227C207.972 59.2415 208.077 59.0007 208.286 58.8004C208.499 58.6001 208.752 58.5 209.046 58.5C209.34 58.5 209.592 58.6001 209.8 58.8004C210.013 59.0007 210.12 59.2415 210.12 59.5227C210.12 59.804 210.013 60.0447 209.8 60.245C209.592 60.4453 209.34 60.5455 209.046 60.5455ZM214.059 66.0938V72H212.551V62.1818H214.008V63.7159H214.136C214.366 63.2173 214.715 62.8168 215.184 62.5142C215.653 62.2074 216.258 62.054 216.999 62.054C217.664 62.054 218.246 62.1903 218.744 62.4631C219.243 62.7315 219.631 63.1406 219.908 63.6903C220.185 64.2358 220.323 64.9261 220.323 65.7614V72H218.815V65.8636C218.815 65.0923 218.615 64.4915 218.214 64.0611C217.813 63.6264 217.264 63.4091 216.565 63.4091C216.083 63.4091 215.653 63.5135 215.274 63.7223C214.899 63.9311 214.602 64.2358 214.385 64.6364C214.168 65.0369 214.059 65.5227 214.059 66.0938ZM227.043 75.8864C226.314 75.8864 225.688 75.7926 225.164 75.6051C224.64 75.4219 224.203 75.179 223.853 74.8764C223.508 74.5781 223.233 74.2585 223.029 73.9176L224.23 73.0739C224.367 73.2528 224.539 73.4574 224.748 73.6875C224.957 73.9219 225.243 74.1243 225.605 74.2947C225.971 74.4695 226.451 74.5568 227.043 74.5568C227.836 74.5568 228.49 74.3651 229.005 73.9815C229.521 73.598 229.779 72.9972 229.779 72.179V70.1847H229.651C229.54 70.3636 229.382 70.5852 229.178 70.8494C228.978 71.1094 228.688 71.3416 228.309 71.5462C227.934 71.7464 227.426 71.8466 226.787 71.8466C225.995 71.8466 225.283 71.6591 224.652 71.2841C224.026 70.9091 223.529 70.3636 223.163 69.6477C222.801 68.9318 222.62 68.0625 222.62 67.0398C222.62 66.0341 222.797 65.1584 223.15 64.4126C223.504 63.6626 223.996 63.0831 224.627 62.674C225.257 62.2607 225.986 62.054 226.813 62.054C227.452 62.054 227.959 62.1605 228.334 62.3736C228.713 62.5824 229.003 62.821 229.203 63.0895C229.408 63.3537 229.566 63.571 229.676 63.7415H229.83V62.1818H231.287V72.2812C231.287 73.125 231.096 73.8111 230.712 74.3395C230.333 74.8722 229.821 75.2621 229.178 75.5092C228.539 75.7607 227.827 75.8864 227.043 75.8864ZM226.992 70.4915C227.597 70.4915 228.108 70.353 228.526 70.076C228.944 69.799 229.261 69.4006 229.478 68.8807C229.696 68.3608 229.804 67.7386 229.804 67.0142C229.804 66.3068 229.698 65.6825 229.485 65.1413C229.272 64.6001 228.956 64.1761 228.539 63.8693C228.121 63.5625 227.605 63.4091 226.992 63.4091C226.353 63.4091 225.82 63.571 225.394 63.8949C224.972 64.2187 224.654 64.6534 224.441 65.1989C224.233 65.7443 224.128 66.3494 224.128 67.0142C224.128 67.696 224.235 68.299 224.448 68.8232C224.665 69.343 224.985 69.7521 225.407 70.0504C225.833 70.3445 226.361 70.4915 226.992 70.4915Z" fill="#333333"/>
</svg>
