<svg width="256" height="100" viewBox="0 0 256 100" fill="none" xmlns="http://www.w3.org/2000/svg">
<rect x="0.5" y="0.5" width="255" height="99" rx="9.5" stroke="#16A6EC"/>
<path d="M39.7169 21.1869C39.4469 21.2926 39.0008 21.7152 38.8247 22.0674C38.7308 22.2435 38.6604 22.7013 38.6604 23.1005V23.8048H37.3808C36.6764 23.8048 35.9485 23.8635 35.7607 23.934C34.6689 24.3331 33.9646 25.3427 33.9646 26.4697V27.0919H29.7384C25.8056 27.0919 25.4769 27.1036 25.066 27.3149C24.5025 27.6084 24.0447 28.0897 23.8217 28.6415C23.6573 29.0289 23.6338 31.6351 23.6338 53.0009C23.6338 76.0338 23.6456 76.9378 23.8569 77.3956C24.1269 77.9708 24.6082 78.4404 25.1834 78.6752C25.5708 78.8396 27.7426 78.863 45.0232 78.863C63.6655 78.863 64.452 78.8513 64.8981 78.64C65.4734 78.37 65.943 77.8887 66.1777 77.3134C66.3421 76.926 66.3656 74.3199 66.3656 52.9775C66.3656 26.7632 66.4125 28.6532 65.6847 27.8667C64.9803 27.1154 64.8629 27.0919 60.2376 27.0919H56.0348V26.4697C56.0231 25.4014 55.4244 24.474 54.45 24.0279C54.0861 23.8635 53.6869 23.8048 52.6773 23.8048H51.3625L51.3155 22.9244C51.2803 22.0909 51.2568 22.0204 50.8342 21.5978L50.3999 21.1634L45.1406 21.14C42.2527 21.1282 39.8108 21.1517 39.7169 21.1869ZM49.4607 24.4505V25.9179H44.9997H40.5387V24.4505V22.9831H44.9997H49.4607V24.4505ZM38.6604 26.4697C38.6604 27.1154 38.7073 27.3032 38.9186 27.5262L39.1652 27.7962H44.988C50.7873 27.7962 50.799 27.7962 51.069 27.538C51.3038 27.3267 51.339 27.1741 51.339 26.4814V25.6831H52.4543C53.4873 25.6831 53.6047 25.7066 53.863 25.9766C54.1565 26.2584 54.1565 26.2819 54.1565 28.4419V30.6137H44.9997H35.8429V28.4419C35.8429 26.2819 35.8429 26.2584 36.1364 25.9766C36.3946 25.7066 36.512 25.6831 37.5451 25.6831H38.6604V26.4697ZM33.9646 30.4611C33.9646 31.8229 33.9881 31.9755 34.2228 32.222L34.4694 32.492H44.988H55.4948L55.7648 32.2338C56.0231 31.999 56.0348 31.8933 56.0348 30.4729V28.9702H60.0262C63.8651 28.9702 64.0294 28.9819 64.2525 29.205C64.4873 29.4398 64.4873 29.5924 64.4873 52.9775C64.4873 76.3625 64.4873 76.5151 64.2525 76.7499C64.0177 76.9847 63.8651 76.9847 44.9997 76.9847C26.1343 76.9847 25.9817 76.9847 25.7469 76.7499C25.5121 76.5151 25.5121 76.3625 25.5121 52.9775C25.5121 29.5924 25.5121 29.4398 25.7469 29.205C25.97 28.9819 26.1343 28.9702 29.9731 28.9702H33.9646V30.4611Z" fill="#16A6EC"/>
<path d="M43.6498 34.7227C42.0063 34.9809 40.3862 35.7088 39.1066 36.7653C34.7278 40.3811 34.763 47.3543 39.1653 50.9232C40.1162 51.698 41.478 52.3906 42.6168 52.7076C43.8964 53.048 46.1034 53.048 47.383 52.7076C49.2496 52.2028 51.1396 50.9349 52.2784 49.4322C55.2602 45.4995 54.638 39.8763 50.8931 36.7653C49.9657 36.0023 48.3104 35.157 47.2304 34.9105C46.2443 34.6757 44.542 34.5935 43.6498 34.7227ZM46.7021 36.7771C50.2474 37.681 52.701 41.2263 52.1844 44.713C52.067 45.5699 51.5857 47.0256 51.304 47.3778C51.2218 47.4835 51.0927 47.4013 50.764 47.0256C50.13 46.2861 49.637 45.8634 48.8739 45.3939L48.1813 44.9712L48.5804 44.4195C49.7778 42.7407 49.5078 40.2754 47.9817 38.8315C47.0191 37.9158 46.479 37.7162 44.9999 37.7162C43.8729 37.7162 43.7085 37.7397 43.0863 38.0567C41.2432 38.9958 40.2923 41.1207 40.8324 43.1164C40.938 43.5273 41.208 44.1142 41.4193 44.4195L41.8185 44.9712L41.1258 45.3939C40.3628 45.8634 39.8697 46.2861 39.2358 47.0256C38.7427 47.6009 38.7192 47.5891 38.2731 46.4621C37.4749 44.4312 37.5688 42.6116 38.5549 40.5924C39.4354 38.7963 41.2785 37.2936 43.2389 36.7888C44.0959 36.5658 45.8334 36.554 46.7021 36.7771ZM45.716 39.6767C46.3382 39.8763 46.7373 40.205 47.066 40.7802C47.9817 42.3533 46.8195 44.349 44.9999 44.349C43.1802 44.349 42.018 42.3533 42.9337 40.7802C43.5324 39.7589 44.6477 39.3128 45.716 39.6767ZM46.7491 46.5678C47.97 46.9435 49.1674 47.8826 49.6957 48.8687C49.86 49.174 49.8483 49.1974 49.4609 49.5262C48.8974 49.9957 47.5591 50.6414 46.7021 50.8645C45.8099 51.0875 44.1898 51.0875 43.2976 50.8645C42.4407 50.6414 41.1024 49.9957 40.5389 49.5262C40.1515 49.1974 40.1397 49.174 40.3041 48.8687C40.8206 47.9061 42.0298 46.9552 43.2155 46.5678C44.1429 46.2743 45.7982 46.2743 46.7491 46.5678Z" fill="#16A6EC"/>
<path d="M32.6265 55.9594L31.3234 57.239L30.8655 56.8398C30.2668 56.3233 29.6446 56.2881 29.2807 56.7459C28.8229 57.3329 28.9403 57.6733 29.9499 58.6947C30.7834 59.5282 30.9125 59.6104 31.3234 59.6104C31.7577 59.6104 31.8751 59.5164 33.5187 57.8729C35.1974 56.1942 35.2561 56.1237 35.2561 55.6541C35.2561 55.2667 35.1974 55.1141 34.9509 54.9263C34.3287 54.4332 34.0469 54.5624 32.6265 55.9594Z" fill="#16A6EC"/>
<path d="M37.8741 56.9925C37.2166 57.1216 37.0171 58.2369 37.5571 58.6595C37.8741 58.906 37.921 58.906 49.0148 58.906C58.559 58.906 60.2026 58.8825 60.4843 58.7299C61.0478 58.4482 61.13 57.826 60.6839 57.2977L60.4021 56.969L49.2614 56.9573C43.1451 56.9455 38.0149 56.969 37.8741 56.9925Z" fill="#16A6EC"/>
<path d="M32.6265 63.3551L31.3234 64.6465L30.889 64.2356C30.079 63.496 29.0342 63.8247 29.0342 64.8108C29.0342 65.1043 29.2103 65.3391 29.9499 66.0904C30.7834 66.9122 30.9125 67.0061 31.3234 67.0061C31.746 67.0061 31.8751 66.9122 33.5187 65.2687C35.1974 63.5899 35.2561 63.5077 35.2561 63.0382C35.2561 62.4277 34.9157 62.0755 34.3404 62.0755C33.9765 62.0755 33.7769 62.2281 32.6265 63.3551Z" fill="#16A6EC"/>
<path d="M37.557 64.5527C37.1814 64.8579 37.1344 65.5388 37.4749 65.9614L37.6979 66.2432H49.05H60.4021L60.6838 65.9145C61.1299 65.3862 61.0478 64.764 60.4843 64.4822C60.2025 64.3296 58.559 64.3061 49.0148 64.3061C37.921 64.3061 37.874 64.3061 37.557 64.5527Z" fill="#16A6EC"/>
<path d="M32.6147 70.7629L31.3351 72.0542L30.9125 71.6551C30.4312 71.1737 29.9851 71.0329 29.5977 71.2442C29.1985 71.4555 29.0459 71.7138 29.0342 72.1364C29.0342 72.4416 29.1751 72.6647 29.762 73.2868C30.5134 74.0969 30.9595 74.4021 31.3938 74.4021C31.5816 74.4021 32.2156 73.8503 33.46 72.6177C35.1505 70.9389 35.2561 70.8098 35.2561 70.3872C35.2561 69.8002 34.9274 69.4715 34.3404 69.4715C33.9413 69.4715 33.8004 69.5772 32.6147 70.7629Z" fill="#16A6EC"/>
<path d="M37.557 71.9485C37.1696 72.2538 37.1227 72.9816 37.4866 73.3455C37.7214 73.5803 37.874 73.5803 49.097 73.5803H60.4843L60.7191 73.2751C61.0478 72.8525 61.036 72.3477 60.6721 71.9955L60.3904 71.702H49.1322C37.921 71.702 37.874 71.702 37.557 71.9485Z" fill="#16A6EC"/>
<path d="M90.0114 22.7273V46H85.0909V27.3977H84.9545L79.625 30.7386V26.375L85.3864 22.7273H90.0114ZM104.668 46.5114C102.713 46.5038 101.031 46.0227 99.6222 45.0682C98.2206 44.1136 97.1411 42.7311 96.3835 40.9205C95.6335 39.1098 95.2623 36.9318 95.2699 34.3864C95.2699 31.8485 95.6449 29.6856 96.3949 27.8977C97.1525 26.1098 98.232 24.75 99.6335 23.8182C101.043 22.8788 102.721 22.4091 104.668 22.4091C106.615 22.4091 108.289 22.8788 109.69 23.8182C111.099 24.7576 112.183 26.1212 112.94 27.9091C113.698 29.6894 114.073 31.8485 114.065 34.3864C114.065 36.9394 113.687 39.1212 112.929 40.9318C112.179 42.7424 111.103 44.125 109.702 45.0795C108.3 46.0341 106.622 46.5114 104.668 46.5114ZM104.668 42.4318C106.001 42.4318 107.065 41.7614 107.861 40.4205C108.656 39.0795 109.05 37.0682 109.043 34.3864C109.043 32.6212 108.861 31.1515 108.497 29.9773C108.141 28.803 107.634 27.9205 106.974 27.3295C106.323 26.7386 105.554 26.4432 104.668 26.4432C103.342 26.4432 102.281 27.1061 101.486 28.4318C100.69 29.7576 100.289 31.7424 100.281 34.3864C100.281 36.1742 100.459 37.6667 100.815 38.8636C101.179 40.053 101.69 40.947 102.349 41.5455C103.009 42.1364 103.781 42.4318 104.668 42.4318ZM122.006 40.9773L122.017 35.1705H122.722L128.312 28.5455H133.869L126.358 37.3182H125.21L122.006 40.9773ZM117.619 46V22.7273H122.46V46H117.619ZM128.528 46L123.392 38.3977L126.619 34.9773L134.199 46H128.528ZM142.56 44.7386V28.6477H146.628V44.7386H142.56ZM136.548 38.7273V34.6591H152.639V38.7273H136.548Z" fill="#16A6EC"/>
<path d="M83.3693 72.2045C82.483 72.2045 81.7053 71.9936 81.0362 71.5717C80.3714 71.1499 79.8516 70.5597 79.4766 69.8011C79.1058 69.0426 78.9205 68.1562 78.9205 67.142C78.9205 66.1193 79.1058 65.2266 79.4766 64.4638C79.8516 63.701 80.3714 63.1087 81.0362 62.6868C81.7053 62.2649 82.483 62.054 83.3693 62.054C84.2557 62.054 85.0313 62.2649 85.696 62.6868C86.3651 63.1087 86.8849 63.701 87.2557 64.4638C87.6307 65.2266 87.8182 66.1193 87.8182 67.142C87.8182 68.1562 87.6307 69.0426 87.2557 69.8011C86.8849 70.5597 86.3651 71.1499 85.696 71.5717C85.0313 71.9936 84.2557 72.2045 83.3693 72.2045ZM83.3693 70.8494C84.0426 70.8494 84.5966 70.6768 85.0312 70.3317C85.4659 69.9865 85.7876 69.5327 85.9964 68.9702C86.2053 68.4077 86.3097 67.7983 86.3097 67.142C86.3097 66.4858 86.2053 65.8743 85.9964 65.3075C85.7876 64.7408 85.4659 64.2827 85.0312 63.9332C84.5966 63.5838 84.0426 63.4091 83.3693 63.4091C82.696 63.4091 82.142 63.5838 81.7074 63.9332C81.2727 64.2827 80.951 64.7408 80.7422 65.3075C80.5334 65.8743 80.429 66.4858 80.429 67.142C80.429 67.7983 80.5334 68.4077 80.7422 68.9702C80.951 69.5327 81.2727 69.9865 81.7074 70.3317C82.142 70.6768 82.696 70.8494 83.3693 70.8494ZM90.1209 75.6818V62.1818H91.5783V63.7415H91.7573C91.8681 63.571 92.0215 63.3537 92.2175 63.0895C92.4178 62.821 92.7033 62.5824 93.074 62.3736C93.449 62.1605 93.9561 62.054 94.5953 62.054C95.4221 62.054 96.1507 62.2607 96.7814 62.674C97.4121 63.0874 97.9043 63.6733 98.258 64.4318C98.6117 65.1903 98.7885 66.0852 98.7885 67.1165C98.7885 68.1562 98.6117 69.0575 98.258 69.8203C97.9043 70.5788 97.4142 71.1669 96.7878 71.5845C96.1614 71.9979 95.4391 72.2045 94.6209 72.2045C93.9902 72.2045 93.4853 72.1001 93.106 71.8913C92.7267 71.6783 92.4348 71.4375 92.2303 71.169C92.0257 70.8963 91.8681 70.6705 91.7573 70.4915H91.6294V75.6818H90.1209ZM91.6039 67.0909C91.6039 67.8324 91.7125 68.4865 91.9299 69.0533C92.1472 69.6158 92.4647 70.0568 92.8823 70.3764C93.2999 70.6918 93.8113 70.8494 94.4164 70.8494C95.0471 70.8494 95.5733 70.6832 95.9952 70.3509C96.4213 70.0142 96.7409 69.5625 96.954 68.9957C97.1713 68.4247 97.28 67.7898 97.28 67.0909C97.28 66.4006 97.1735 65.7784 96.9604 65.2244C96.7516 64.6662 96.4341 64.2251 96.008 63.9013C95.5861 63.5732 95.0556 63.4091 94.4164 63.4091C93.8027 63.4091 93.2871 63.5646 92.8695 63.8757C92.4519 64.1825 92.1365 64.6129 91.9235 65.1669C91.7104 65.7166 91.6039 66.358 91.6039 67.0909ZM105.206 72.2045C104.26 72.2045 103.444 71.9957 102.758 71.5781C102.076 71.1562 101.55 70.5682 101.179 69.8139C100.813 69.0554 100.629 68.1733 100.629 67.1676C100.629 66.1619 100.813 65.2756 101.179 64.5085C101.55 63.7372 102.066 63.1364 102.726 62.706C103.391 62.2713 104.166 62.054 105.053 62.054C105.564 62.054 106.069 62.1392 106.568 62.3097C107.066 62.4801 107.52 62.7571 107.929 63.1406C108.338 63.5199 108.664 64.0227 108.907 64.6491C109.15 65.2756 109.271 66.0469 109.271 66.9631V67.6023H101.703V66.2983H107.737C107.737 65.7443 107.627 65.25 107.405 64.8153C107.188 64.3807 106.877 64.0376 106.472 63.7862C106.071 63.5348 105.598 63.4091 105.053 63.4091C104.452 63.4091 103.932 63.5582 103.493 63.8565C103.058 64.1506 102.724 64.5341 102.49 65.0071C102.255 65.4801 102.138 65.9872 102.138 66.5284V67.3977C102.138 68.1392 102.266 68.7678 102.521 69.2834C102.781 69.7947 103.142 70.1847 103.602 70.4531C104.062 70.7173 104.597 70.8494 105.206 70.8494C105.602 70.8494 105.96 70.794 106.28 70.6832C106.604 70.5682 106.883 70.3977 107.117 70.1719C107.352 69.9418 107.533 69.6562 107.661 69.3153L109.118 69.7244C108.965 70.2188 108.707 70.6534 108.345 71.0284C107.982 71.3991 107.535 71.6889 107.002 71.8977C106.47 72.1023 105.871 72.2045 105.206 72.2045ZM113.075 66.0938V72H111.566V62.1818H113.024V63.7159H113.151C113.382 63.2173 113.731 62.8168 114.2 62.5142C114.669 62.2074 115.274 62.054 116.015 62.054C116.68 62.054 117.262 62.1903 117.76 62.4631C118.259 62.7315 118.646 63.1406 118.923 63.6903C119.2 64.2358 119.339 64.9261 119.339 65.7614V72H117.83V65.8636C117.83 65.0923 117.63 64.4915 117.23 64.0611C116.829 63.6264 116.279 63.4091 115.58 63.4091C115.099 63.4091 114.669 63.5135 114.289 63.7223C113.914 63.9311 113.618 64.2358 113.401 64.6364C113.183 65.0369 113.075 65.5227 113.075 66.0938ZM122.096 72V62.1818H123.604V72H122.096ZM122.863 60.5455C122.569 60.5455 122.315 60.4453 122.102 60.245C121.893 60.0447 121.789 59.804 121.789 59.5227C121.789 59.2415 121.893 59.0007 122.102 58.8004C122.315 58.6001 122.569 58.5 122.863 58.5C123.157 58.5 123.408 58.6001 123.617 58.8004C123.83 59.0007 123.936 59.2415 123.936 59.5227C123.936 59.804 123.83 60.0447 123.617 60.245C123.408 60.4453 123.157 60.5455 122.863 60.5455ZM127.876 66.0938V72H126.367V62.1818H127.824V63.7159H127.952C128.182 63.2173 128.532 62.8168 129.001 62.5142C129.469 62.2074 130.074 62.054 130.816 62.054C131.481 62.054 132.062 62.1903 132.561 62.4631C133.059 62.7315 133.447 63.1406 133.724 63.6903C134.001 64.2358 134.14 64.9261 134.14 65.7614V72H132.631V65.8636C132.631 65.0923 132.431 64.4915 132.03 64.0611C131.63 63.6264 131.08 63.4091 130.381 63.4091C129.9 63.4091 129.469 63.5135 129.09 63.7223C128.715 63.9311 128.419 64.2358 128.202 64.6364C127.984 65.0369 127.876 65.5227 127.876 66.0938ZM140.859 75.8864C140.131 75.8864 139.504 75.7926 138.98 75.6051C138.456 75.4219 138.019 75.179 137.67 74.8764C137.325 74.5781 137.05 74.2585 136.845 73.9176L138.047 73.0739C138.183 73.2528 138.356 73.4574 138.565 73.6875C138.773 73.9219 139.059 74.1243 139.421 74.2947C139.788 74.4695 140.267 74.5568 140.859 74.5568C141.652 74.5568 142.306 74.3651 142.822 73.9815C143.337 73.598 143.595 72.9972 143.595 72.179V70.1847H143.467C143.357 70.3636 143.199 70.5852 142.994 70.8494C142.794 71.1094 142.504 71.3416 142.125 71.5462C141.75 71.7464 141.243 71.8466 140.604 71.8466C139.811 71.8466 139.099 71.6591 138.469 71.2841C137.842 70.9091 137.346 70.3636 136.979 69.6477C136.617 68.9318 136.436 68.0625 136.436 67.0398C136.436 66.0341 136.613 65.1584 136.967 64.4126C137.32 63.6626 137.813 63.0831 138.443 62.674C139.074 62.2607 139.803 62.054 140.629 62.054C141.268 62.054 141.776 62.1605 142.151 62.3736C142.53 62.5824 142.82 62.821 143.02 63.0895C143.224 63.3537 143.382 63.571 143.493 63.7415H143.646V62.1818H145.104V72.2812C145.104 73.125 144.912 73.8111 144.528 74.3395C144.149 74.8722 143.638 75.2621 142.994 75.5092C142.355 75.7607 141.643 75.8864 140.859 75.8864ZM140.808 70.4915C141.413 70.4915 141.925 70.353 142.342 70.076C142.76 69.799 143.077 69.4006 143.295 68.8807C143.512 68.3608 143.621 67.7386 143.621 67.0142C143.621 66.3068 143.514 65.6825 143.301 65.1413C143.088 64.6001 142.773 64.1761 142.355 63.8693C141.938 63.5625 141.422 63.4091 140.808 63.4091C140.169 63.4091 139.636 63.571 139.21 63.8949C138.788 64.2187 138.471 64.6534 138.258 65.1989C138.049 65.7443 137.945 66.3494 137.945 67.0142C137.945 67.696 138.051 68.299 138.264 68.8232C138.482 69.343 138.801 69.7521 139.223 70.0504C139.649 70.3445 140.178 70.4915 140.808 70.4915ZM154.82 64.3807L153.464 64.7642C153.379 64.5384 153.254 64.3189 153.087 64.1058C152.925 63.8885 152.704 63.7095 152.423 63.5689C152.141 63.4283 151.781 63.358 151.342 63.358C150.741 63.358 150.241 63.4964 149.84 63.7734C149.444 64.0462 149.246 64.3935 149.246 64.8153C149.246 65.1903 149.382 65.4865 149.655 65.7038C149.928 65.9212 150.354 66.1023 150.933 66.2472L152.391 66.6051C153.268 66.8182 153.923 67.1442 154.353 67.5831C154.783 68.0178 154.999 68.5781 154.999 69.2642C154.999 69.8267 154.837 70.3295 154.513 70.7727C154.193 71.2159 153.746 71.5653 153.17 71.821C152.595 72.0767 151.926 72.2045 151.163 72.2045C150.162 72.2045 149.333 71.9872 148.677 71.5526C148.021 71.1179 147.605 70.483 147.43 69.6477L148.862 69.2898C148.999 69.8182 149.256 70.2145 149.636 70.4787C150.019 70.7429 150.52 70.875 151.138 70.875C151.841 70.875 152.399 70.7259 152.812 70.4276C153.23 70.125 153.439 69.7628 153.439 69.3409C153.439 69 153.32 68.7145 153.081 68.4844C152.842 68.25 152.476 68.0753 151.982 67.9602L150.345 67.5767C149.446 67.3636 148.786 67.0334 148.364 66.5859C147.946 66.1342 147.737 65.5696 147.737 64.892C147.737 64.3381 147.893 63.848 148.204 63.4219C148.519 62.9957 148.947 62.6612 149.489 62.4183C150.034 62.1754 150.652 62.054 151.342 62.054C152.314 62.054 153.077 62.267 153.631 62.6932C154.189 63.1193 154.585 63.6818 154.82 64.3807ZM166.448 72.2045C165.502 72.2045 164.686 71.9957 164 71.5781C163.318 71.1562 162.792 70.5682 162.421 69.8139C162.055 69.0554 161.872 68.1733 161.872 67.1676C161.872 66.1619 162.055 65.2756 162.421 64.5085C162.792 63.7372 163.308 63.1364 163.968 62.706C164.633 62.2713 165.409 62.054 166.295 62.054C166.806 62.054 167.311 62.1392 167.81 62.3097C168.308 62.4801 168.762 62.7571 169.171 63.1406C169.58 63.5199 169.906 64.0227 170.149 64.6491C170.392 65.2756 170.514 66.0469 170.514 66.9631V67.6023H162.945V66.2983H168.98C168.98 65.7443 168.869 65.25 168.647 64.8153C168.43 64.3807 168.119 64.0376 167.714 63.7862C167.313 63.5348 166.84 63.4091 166.295 63.4091C165.694 63.4091 165.174 63.5582 164.735 63.8565C164.301 64.1506 163.966 64.5341 163.732 65.0071C163.497 65.4801 163.38 65.9872 163.38 66.5284V67.3977C163.38 68.1392 163.508 68.7678 163.764 69.2834C164.024 69.7947 164.384 70.1847 164.844 70.4531C165.304 70.7173 165.839 70.8494 166.448 70.8494C166.845 70.8494 167.203 70.794 167.522 70.6832C167.846 70.5682 168.125 70.3977 168.36 70.1719C168.594 69.9418 168.775 69.6562 168.903 69.3153L170.36 69.7244C170.207 70.2188 169.949 70.6534 169.587 71.0284C169.225 71.3991 168.777 71.6889 168.244 71.8977C167.712 72.1023 167.113 72.2045 166.448 72.2045ZM180.538 62.1818L176.907 72H175.373L171.743 62.1818H173.379L176.089 70.0057H176.191L178.902 62.1818H180.538ZM186.294 72.2045C185.348 72.2045 184.532 71.9957 183.846 71.5781C183.164 71.1562 182.638 70.5682 182.267 69.8139C181.901 69.0554 181.717 68.1733 181.717 67.1676C181.717 66.1619 181.901 65.2756 182.267 64.5085C182.638 63.7372 183.153 63.1364 183.814 62.706C184.479 62.2713 185.254 62.054 186.141 62.054C186.652 62.054 187.157 62.1392 187.656 62.3097C188.154 62.4801 188.608 62.7571 189.017 63.1406C189.426 63.5199 189.752 64.0227 189.995 64.6491C190.238 65.2756 190.359 66.0469 190.359 66.9631V67.6023H182.791V66.2983H188.825C188.825 65.7443 188.714 65.25 188.493 64.8153C188.276 64.3807 187.964 64.0376 187.56 63.7862C187.159 63.5348 186.686 63.4091 186.141 63.4091C185.54 63.4091 185.02 63.5582 184.581 63.8565C184.146 64.1506 183.812 64.5341 183.577 65.0071C183.343 65.4801 183.226 65.9872 183.226 66.5284V67.3977C183.226 68.1392 183.354 68.7678 183.609 69.2834C183.869 69.7947 184.229 70.1847 184.69 70.4531C185.15 70.7173 185.685 70.8494 186.294 70.8494C186.69 70.8494 187.048 70.794 187.368 70.6832C187.692 70.5682 187.971 70.3977 188.205 70.1719C188.44 69.9418 188.621 69.6562 188.749 69.3153L190.206 69.7244C190.053 70.2188 189.795 70.6534 189.433 71.0284C189.07 71.3991 188.623 71.6889 188.09 71.8977C187.558 72.1023 186.959 72.2045 186.294 72.2045ZM192.654 72V62.1818H194.112V63.6648H194.214C194.393 63.179 194.717 62.7848 195.185 62.4822C195.654 62.1797 196.183 62.0284 196.771 62.0284C196.881 62.0284 197.02 62.0305 197.186 62.0348C197.352 62.0391 197.478 62.0455 197.563 62.054V63.5881C197.512 63.5753 197.395 63.5561 197.212 63.5305C197.033 63.5007 196.843 63.4858 196.643 63.4858C196.165 63.4858 195.739 63.5859 195.364 63.7862C194.994 63.9822 194.7 64.255 194.482 64.6044C194.269 64.9496 194.163 65.3437 194.163 65.7869V72H192.654ZM200.622 75.6818C200.366 75.6818 200.138 75.6605 199.938 75.6179C199.738 75.5795 199.599 75.5412 199.522 75.5028L199.906 74.1733C200.272 74.267 200.596 74.3011 200.877 74.2756C201.159 74.25 201.408 74.1243 201.625 73.8984C201.847 73.6768 202.049 73.3168 202.233 72.8182L202.514 72.0511L198.883 62.1818H200.52L203.23 70.0057H203.332L206.042 62.1818H207.679L203.511 73.4318C203.324 73.9389 203.091 74.3587 202.814 74.6911C202.537 75.0277 202.216 75.277 201.849 75.4389C201.487 75.6009 201.078 75.6818 200.622 75.6818ZM213.026 72.2045C212.207 72.2045 211.485 71.9979 210.859 71.5845C210.232 71.1669 209.742 70.5788 209.388 69.8203C209.035 69.0575 208.858 68.1562 208.858 67.1165C208.858 66.0852 209.035 65.1903 209.388 64.4318C209.742 63.6733 210.234 63.0874 210.865 62.674C211.496 62.2607 212.224 62.054 213.051 62.054C213.69 62.054 214.195 62.1605 214.566 62.3736C214.941 62.5824 215.227 62.821 215.423 63.0895C215.623 63.3537 215.778 63.571 215.889 63.7415H216.017V58.9091H217.526V72H216.068V70.4915H215.889C215.778 70.6705 215.621 70.8963 215.416 71.169C215.212 71.4375 214.92 71.6783 214.54 71.8913C214.161 72.1001 213.656 72.2045 213.026 72.2045ZM213.23 70.8494C213.835 70.8494 214.347 70.6918 214.764 70.3764C215.182 70.0568 215.499 69.6158 215.717 69.0533C215.934 68.4865 216.043 67.8324 216.043 67.0909C216.043 66.358 215.936 65.7166 215.723 65.1669C215.51 64.6129 215.195 64.1825 214.777 63.8757C214.359 63.5646 213.844 63.4091 213.23 63.4091C212.591 63.4091 212.058 63.5732 211.632 63.9013C211.21 64.2251 210.893 64.6662 210.68 65.2244C210.471 65.7784 210.366 66.4006 210.366 67.0909C210.366 67.7898 210.473 68.4247 210.686 68.9957C210.903 69.5625 211.223 70.0142 211.645 70.3509C212.071 70.6832 212.599 70.8494 213.23 70.8494ZM223.387 72.2301C222.765 72.2301 222.2 72.1129 221.693 71.8786C221.186 71.6399 220.783 71.2969 220.485 70.8494C220.187 70.3977 220.038 69.8523 220.038 69.2131C220.038 68.6506 220.148 68.1946 220.37 67.8452C220.592 67.4915 220.888 67.2145 221.259 67.0142C221.629 66.8139 222.038 66.6648 222.486 66.5668C222.938 66.4645 223.391 66.3835 223.847 66.3239C224.444 66.2472 224.928 66.1896 225.298 66.1513C225.673 66.1087 225.946 66.0384 226.116 65.9403C226.291 65.8423 226.379 65.6719 226.379 65.429V65.3778C226.379 64.7472 226.206 64.2571 225.861 63.9077C225.52 63.5582 225.002 63.3835 224.308 63.3835C223.587 63.3835 223.023 63.5412 222.614 63.8565C222.205 64.1719 221.917 64.5085 221.751 64.8665L220.319 64.3551C220.575 63.7585 220.915 63.294 221.342 62.9616C221.772 62.625 222.241 62.3906 222.748 62.2585C223.259 62.1222 223.762 62.054 224.256 62.054C224.572 62.054 224.934 62.0923 225.343 62.169C225.756 62.2415 226.155 62.3928 226.538 62.6229C226.926 62.853 227.248 63.2003 227.504 63.6648C227.759 64.1293 227.887 64.7514 227.887 65.5312V72H226.379V70.6705H226.302C226.2 70.8835 226.029 71.1115 225.79 71.3544C225.552 71.5973 225.234 71.804 224.838 71.9744C224.442 72.1449 223.958 72.2301 223.387 72.2301ZM223.617 70.875C224.214 70.875 224.717 70.7578 225.126 70.5234C225.539 70.2891 225.85 69.9865 226.059 69.6158C226.272 69.245 226.379 68.8551 226.379 68.446V67.0653C226.315 67.142 226.174 67.2124 225.957 67.2763C225.744 67.3359 225.496 67.3892 225.215 67.4361C224.938 67.4787 224.668 67.517 224.403 67.5511C224.143 67.581 223.933 67.6065 223.771 67.6278C223.379 67.679 223.012 67.7621 222.671 67.8771C222.335 67.9879 222.062 68.1562 221.853 68.3821C221.648 68.6037 221.546 68.9062 221.546 69.2898C221.546 69.8139 221.74 70.2102 222.128 70.4787C222.52 70.7429 223.016 70.875 223.617 70.875ZM231.26 75.6818C231.005 75.6818 230.777 75.6605 230.577 75.6179C230.376 75.5795 230.238 75.5412 230.161 75.5028L230.545 74.1733C230.911 74.267 231.235 74.3011 231.516 74.2756C231.797 74.25 232.047 74.1243 232.264 73.8984C232.486 73.6768 232.688 73.3168 232.871 72.8182L233.153 72.0511L229.522 62.1818H231.158L233.868 70.0057H233.971L236.681 62.1818H238.317L234.15 73.4318C233.962 73.9389 233.73 74.3587 233.453 74.6911C233.176 75.0277 232.854 75.277 232.488 75.4389C232.126 75.6009 231.716 75.6818 231.26 75.6818Z" fill="#333333"/>
</svg>
