<svg width="256" height="100" viewBox="0 0 256 100" fill="none" xmlns="http://www.w3.org/2000/svg">
<rect x="0.5" y="0.5" width="255" height="99" rx="9.5" stroke="#16A6EC"/>
<path d="M45.3963 22.7222C43.4861 23.2373 41.8335 24.729 41.1359 26.5748C40.6638 27.8411 40.8677 28.5601 41.6832 28.5601C42.1554 28.5601 42.4344 28.2918 42.5954 27.6801C42.9388 26.4245 43.9261 25.2441 45.0958 24.6968C46.1045 24.2139 47.006 24.1388 51.2126 24.1817L54.9579 24.2139L55.2154 24.5144C55.3549 24.6753 55.473 24.9436 55.473 25.1046C55.4837 25.5553 55.8378 26.2528 56.2027 26.5104C56.3851 26.6284 56.7822 26.7894 57.1041 26.843C58.1021 27.0362 58.1021 27.0147 58.1343 29.8264C58.1773 32.5092 58.1236 32.8526 57.6729 32.8526C57.2758 32.8526 57.0075 32.6809 56.8144 32.3267C56.7285 32.155 56.4924 31.9082 56.2885 31.7794C55.9344 31.5648 55.8271 31.5541 54.3247 31.6292C52.9833 31.6936 52.6292 31.6721 52.0926 31.5219C50.8478 31.157 49.7424 30.4488 48.7337 29.3971C48.4762 29.1288 48.0147 28.7747 47.7142 28.603C46.4587 27.9269 44.806 28.4205 44.1192 29.6868C43.9797 29.9337 43.9261 30.3844 43.9046 31.6399L43.8617 33.2711L43.2607 33.0457C42.9173 32.9277 42.5847 32.756 42.5203 32.6594C42.4344 32.5628 42.3808 32.1872 42.3808 31.7687C42.3808 31.1141 42.3486 31.0175 42.1018 30.8244C41.7262 30.5239 41.3828 30.5453 41.0179 30.8566C40.7389 31.0926 40.7174 31.1785 40.696 31.9297C40.6852 32.5414 40.6208 32.8848 40.4277 33.2604C40.213 33.7111 40.1809 33.915 40.1809 35.1598C40.1809 36.072 40.2345 36.7051 40.3311 36.9734C40.5994 37.7461 41.651 38.6475 42.2627 38.6475C42.413 38.6475 42.4988 38.7333 42.5417 38.9372C42.9603 40.9333 43.8295 42.4678 45.1173 43.4766C45.7182 43.9595 45.7289 43.9595 45.6753 44.4531C45.6538 44.7321 45.525 45.1292 45.3855 45.3438C44.9885 45.9984 44.5056 46.2345 42.9066 46.5779C41.2218 46.9428 40.0735 47.3613 38.9253 48.0374L38.099 48.5203H36.5215C35.1264 48.5203 34.8796 48.5525 34.4611 48.7456C33.7528 49.0998 33.4309 49.6578 33.3772 50.6558C33.345 51.4285 33.3235 51.4929 32.9372 51.9114C32.7119 52.1582 32.4758 52.5445 32.4114 52.7699C32.3363 53.0274 32.2933 54.401 32.2933 56.2146V59.2516L31.6065 59.6808C30.8017 60.1959 30.3188 60.7111 29.9968 61.3871C29.7929 61.8271 29.7715 62.0739 29.7715 63.7587C29.7715 65.6045 29.7715 65.6475 30.0827 66.3128C30.4476 67.1069 31.2417 67.8796 31.8748 68.062L32.2933 68.1908V70.5087C32.2933 72.7087 32.3041 72.8589 32.5402 73.3096C32.9694 74.1788 33.1948 74.2325 36.1351 74.3076C40.9964 74.4257 44.0441 75.1017 47.5103 76.8187L48.7444 77.4412H50H51.2556L52.4897 76.8187C55.9559 75.1017 59.0036 74.4257 63.8648 74.3076C66.1828 74.254 66.4404 74.2218 66.8052 74.0179C67.5886 73.5779 67.653 73.3633 67.6852 70.6053L67.7174 68.18L67.9857 68.1157C68.7369 67.9225 69.4988 67.1928 69.9495 66.2269C70.2178 65.6582 70.2285 65.5509 70.2285 63.7587C70.2285 62.0739 70.2071 61.8271 70.0032 61.3871C69.6919 60.7111 69.1983 60.1959 68.4149 59.6916L67.7281 59.2623L67.6852 58.5433C67.653 57.9531 67.5993 57.7921 67.3955 57.6312C67.052 57.3522 66.5155 57.3736 66.2257 57.6741C66.0111 57.8995 65.9896 58.0497 65.9682 59.5735L65.936 61.2369L65.1311 61.3013C64.1761 61.3764 63.897 61.4837 63.3712 61.9452C62.6093 62.6105 62.5127 62.9432 62.4698 64.9714C62.4376 66.6133 62.4483 66.8064 62.6522 67.225C63.06 68.062 63.7146 68.3732 65.0882 68.3732H65.9896V70.4658V72.5584H64.498C60.7313 72.5584 56.6963 73.2023 54.0564 74.2218C53.5091 74.4364 52.9726 74.6403 52.876 74.6725C52.6936 74.7261 52.6828 74.2218 52.6828 65.0572V55.3776L53.4126 55.0449C55.0544 54.2937 57.4583 53.6284 59.6582 53.2957C60.2806 53.2099 61.8152 53.0704 63.0707 53.006C65.9789 52.845 65.9145 52.8235 65.9896 54.0576C66.0218 54.5406 66.1077 55.002 66.1828 55.0986C66.5262 55.5064 67.3633 55.3883 67.5886 54.8947C67.7388 54.562 67.7388 53.3172 67.5886 52.7699C67.5242 52.5445 67.2881 52.1582 67.0735 51.9114C66.6872 51.5036 66.655 51.4177 66.6121 50.6451C66.5477 49.6256 66.2472 49.089 65.5389 48.7456C65.1204 48.5525 64.8736 48.5203 63.4785 48.5203H61.901L61.0747 48.0374C59.9265 47.3613 58.7782 46.9428 57.0827 46.5672C56.1598 46.374 55.4944 46.1594 55.2476 45.9984C54.7862 45.698 54.4106 45.1399 54.3354 44.6356C54.2818 44.3351 54.314 44.26 54.5823 44.099C56.3207 43.0795 57.5226 41.2659 57.9948 38.948C58.027 38.7548 58.1451 38.6368 58.3704 38.5509C58.907 38.3685 59.3255 38.0143 59.5831 37.5422L59.8191 37.0914L59.7762 32.0477C59.7548 28.3347 59.7118 26.9182 59.6153 26.6821C59.2826 25.8987 58.5421 25.3299 57.6514 25.1797C57.2436 25.1153 57.19 25.0724 57.19 24.8256C57.19 24.4178 56.7393 23.5163 56.3744 23.1729C55.7091 22.5505 55.6876 22.5505 50.6224 22.5613C46.9201 22.5613 45.8577 22.5934 45.3963 22.7222ZM46.7913 30.0624C46.9094 30.1268 47.3172 30.4917 47.7142 30.878C48.9805 32.1121 50.5688 33.0028 52.0497 33.2926C52.436 33.3677 53.2087 33.3999 54.0242 33.3677L55.3549 33.314L55.6769 33.7111C56.1168 34.2691 56.7822 34.5696 57.5441 34.5696H58.1558V35.471C58.1558 35.9754 58.1129 36.5012 58.0485 36.6515C57.9626 36.8983 57.8875 36.9305 57.469 36.9305C56.7071 36.9305 56.4388 37.231 56.3315 38.2182C56.2778 38.6582 56.1598 39.2592 56.0632 39.5596C55.312 41.7918 53.155 43.4229 50.6546 43.6483C48.7122 43.82 46.3621 42.6932 45.2353 41.0298C44.6451 40.1606 44.3553 39.3879 44.2158 38.2719C44.1622 37.789 44.0441 37.3705 43.9475 37.2739C43.8617 37.1773 43.4861 37.07 43.1212 37.0271C42.6169 36.9734 42.3915 36.8876 42.1876 36.6729C41.9301 36.4261 41.9086 36.2973 41.8657 35.3852L41.8227 34.3764L42.7027 34.6876C43.7758 35.0632 44.3661 35.0847 44.8597 34.752C45.5036 34.3228 45.6002 33.9794 45.6002 32.1443C45.6002 30.6097 45.6109 30.5239 45.847 30.3093C46.2226 29.9551 46.4694 29.9015 46.7913 30.0624ZM48.444 45.1721C49.2595 45.3867 51.3307 45.3867 52.1033 45.1721L52.6506 45.0219L52.7687 45.4619C52.8331 45.7087 53.0584 46.1594 53.2623 46.4706C53.4769 46.7818 53.6486 47.0501 53.6486 47.0716C53.6486 47.1467 52.3072 47.6832 51.7063 47.8335C50.3005 48.1876 48.1542 47.8549 46.9952 47.0823L46.5767 46.814L46.9523 46.1057C47.1562 45.7087 47.3172 45.3116 47.3172 45.2043C47.3172 44.9468 47.4352 44.8502 47.6284 44.9253C47.725 44.9682 48.0898 45.0755 48.444 45.1721ZM45.568 48.2413C46.2762 48.7349 47.0167 49.0998 47.9611 49.4003C48.6479 49.6041 48.9913 49.6471 50.2683 49.6471C51.5453 49.6471 51.8887 49.6041 52.5755 49.4003C53.434 49.1212 54.314 48.7027 54.9793 48.252L55.3978 47.973L56.4817 48.2091C57.7802 48.4881 58.628 48.7349 58.5529 48.7993C58.5314 48.8315 57.909 48.971 57.1792 49.1212C54.7325 49.6149 52.8116 50.3017 51.1912 51.2568C50.6439 51.5787 50.0966 51.847 49.9893 51.847C49.882 51.847 49.4312 51.6216 48.9805 51.3534C47.3601 50.3661 45.4499 49.6685 42.9817 49.1534C42.1661 48.9925 41.4686 48.8315 41.4471 48.7993C41.372 48.7242 42.3164 48.4559 43.5934 48.1983C44.1944 48.0696 44.7095 47.9408 44.7309 47.9193C44.849 47.812 45.1065 47.9086 45.568 48.2413ZM41.0394 50.5485C44.1192 51.01 46.126 51.6968 48.444 53.0704C49.1415 53.4782 49.2381 53.5103 50.0107 53.5103C50.7619 53.5103 50.8692 53.4782 51.4595 53.1133C54.3998 51.2997 57.8875 50.3983 62.4698 50.2695C64.8199 50.2051 64.9165 50.2266 64.9165 50.8275V51.1817L63.3927 51.2568C58.3704 51.4929 54.7862 52.3299 51.6097 54.0147C50.7834 54.4547 50.2576 54.6693 50 54.6693C49.7424 54.6693 49.2166 54.4547 48.3903 54.0147C45.2138 52.3299 41.6296 51.4929 36.6181 51.2568L35.0835 51.1817V50.8382C35.0835 50.2158 35.1371 50.2051 37.498 50.2695C38.7965 50.3124 40.1916 50.4197 41.0394 50.5485ZM39.4726 53.1991C42.3057 53.5318 45.2353 54.3152 46.9952 55.2274L47.3172 55.3991V65.0572C47.3172 74.2218 47.3064 74.7261 47.1347 74.6725C47.0274 74.6403 46.5016 74.4364 45.965 74.2325C43.3144 73.2023 39.2687 72.5584 35.502 72.5584H34.0104V70.4658V68.3732L34.9547 68.3625C36.06 68.3517 36.4678 68.223 36.9722 67.7401C37.498 67.2142 37.5731 66.8386 37.5302 64.8855C37.4873 62.9539 37.38 62.5998 36.6288 61.9452C36.103 61.4837 35.8239 61.3764 34.8689 61.3013L34.064 61.2369L34.0318 57.2663L34.0104 53.2957L34.2464 53.0918C34.4718 52.9094 34.6328 52.8987 36.3176 52.963C37.3263 53.006 38.7429 53.1133 39.4726 53.1991ZM50.4829 56.3541L50.9658 56.279V65.9694C50.9658 74.6939 50.9444 75.649 50.7941 75.7134C50.5795 75.7993 49.4205 75.7993 49.2059 75.7134C49.0556 75.649 49.0342 74.6939 49.0342 65.9694V56.279L49.5171 56.3541C49.7854 56.3971 50.2146 56.3971 50.4829 56.3541ZM32.9158 62.5032C33.2592 62.8144 33.8923 62.9968 34.5791 63.0076C35.1264 63.0076 35.2445 63.0505 35.5235 63.3188L35.8347 63.63V65.0143C35.8347 65.9479 35.7917 66.4416 35.7059 66.5274C35.62 66.6133 35.1479 66.6562 34.2786 66.6562C31.9392 66.6455 31.4456 66.1626 31.4348 63.7802C31.4348 62.4925 31.5529 61.9988 32.0036 61.5266L32.229 61.2798L32.465 61.7949C32.5831 62.0739 32.787 62.3959 32.9158 62.5032ZM68.3613 62.0954C68.5222 62.4388 68.5652 62.7822 68.5544 63.7587C68.5544 66.1626 68.0715 66.6455 65.7214 66.6562C64.8521 66.6562 64.38 66.6133 64.2941 66.5274C64.2083 66.4416 64.1653 65.9479 64.1653 65.0143V63.63L64.4765 63.3188C64.7448 63.0505 64.8736 63.0076 65.3672 63.0076C66.5369 63.0076 67.2345 62.6105 67.5564 61.7627C67.7281 61.3013 67.7388 61.2905 67.9535 61.473C68.0715 61.5803 68.254 61.8593 68.3613 62.0954Z" fill="#16A6EC"/>
<path d="M61.9117 57.6099C59.2396 57.8674 57.8016 58.1142 55.9237 58.6293C55.0008 58.8762 54.6681 59.0157 54.5071 59.2303C54.2496 59.5522 54.2389 59.8742 54.4642 60.1961C54.7862 60.6576 55.0115 60.6576 56.7285 60.2176C58.4885 59.7561 60.6776 59.4127 62.4805 59.2947C63.8005 59.2088 64.0258 59.1015 64.1224 58.4791C64.176 58.1572 64.1439 58.0391 63.9185 57.8138C63.6717 57.5669 63.5536 57.5347 62.9634 57.5562C62.5878 57.5562 62.1156 57.5884 61.9117 57.6099Z" fill="#16A6EC"/>
<path d="M89.8864 46V42.4545L98.1705 34.7841C98.875 34.1023 99.4659 33.4886 99.9432 32.9432C100.428 32.3977 100.795 31.8636 101.045 31.3409C101.295 30.8106 101.42 30.2386 101.42 29.625C101.42 28.9432 101.265 28.3561 100.955 27.8636C100.644 27.3636 100.22 26.9811 99.6818 26.7159C99.1439 26.4432 98.5341 26.3068 97.8523 26.3068C97.1402 26.3068 96.5189 26.4508 95.9886 26.7386C95.4583 27.0265 95.0492 27.4394 94.7614 27.9773C94.4735 28.5152 94.3295 29.1553 94.3295 29.8977H89.6591C89.6591 28.375 90.0038 27.053 90.6932 25.9318C91.3826 24.8106 92.3485 23.9432 93.5909 23.3295C94.8333 22.7159 96.2652 22.4091 97.8864 22.4091C99.553 22.4091 101.004 22.7045 102.239 23.2955C103.481 23.8788 104.447 24.6894 105.136 25.7273C105.826 26.7652 106.17 27.9545 106.17 29.2955C106.17 30.1742 105.996 31.0417 105.648 31.8977C105.307 32.7538 104.697 33.7045 103.818 34.75C102.939 35.7879 101.701 37.0341 100.102 38.4886L96.7045 41.8182V41.9773H106.477V46H89.8864ZM119.168 46.5114C117.213 46.5038 115.531 46.0227 114.122 45.0682C112.721 44.1136 111.641 42.7311 110.884 40.9205C110.134 39.1098 109.762 36.9318 109.77 34.3864C109.77 31.8485 110.145 29.6856 110.895 27.8977C111.652 26.1098 112.732 24.75 114.134 23.8182C115.543 22.8788 117.221 22.4091 119.168 22.4091C121.115 22.4091 122.789 22.8788 124.19 23.8182C125.599 24.7576 126.683 26.1212 127.44 27.9091C128.198 29.6894 128.573 31.8485 128.565 34.3864C128.565 36.9394 128.187 39.1212 127.429 40.9318C126.679 42.7424 125.603 44.125 124.202 45.0795C122.8 46.0341 121.122 46.5114 119.168 46.5114ZM119.168 42.4318C120.501 42.4318 121.565 41.7614 122.361 40.4205C123.156 39.0795 123.55 37.0682 123.543 34.3864C123.543 32.6212 123.361 31.1515 122.997 29.9773C122.641 28.803 122.134 27.9205 121.474 27.3295C120.823 26.7386 120.054 26.4432 119.168 26.4432C117.842 26.4432 116.781 27.1061 115.986 28.4318C115.19 29.7576 114.789 31.7424 114.781 34.3864C114.781 36.1742 114.959 37.6667 115.315 38.8636C115.679 40.053 116.19 40.947 116.849 41.5455C117.509 42.1364 118.281 42.4318 119.168 42.4318ZM141.199 46.5114C139.244 46.5038 137.563 46.0227 136.153 45.0682C134.752 44.1136 133.672 42.7311 132.915 40.9205C132.165 39.1098 131.794 36.9318 131.801 34.3864C131.801 31.8485 132.176 29.6856 132.926 27.8977C133.684 26.1098 134.763 24.75 136.165 23.8182C137.574 22.8788 139.252 22.4091 141.199 22.4091C143.146 22.4091 144.82 22.8788 146.222 23.8182C147.631 24.7576 148.714 26.1212 149.472 27.9091C150.229 29.6894 150.604 31.8485 150.597 34.3864C150.597 36.9394 150.218 39.1212 149.46 40.9318C148.71 42.7424 147.634 44.125 146.233 45.0795C144.831 46.0341 143.153 46.5114 141.199 46.5114ZM141.199 42.4318C142.532 42.4318 143.597 41.7614 144.392 40.4205C145.188 39.0795 145.581 37.0682 145.574 34.3864C145.574 32.6212 145.392 31.1515 145.028 29.9773C144.672 28.803 144.165 27.9205 143.506 27.3295C142.854 26.7386 142.085 26.4432 141.199 26.4432C139.873 26.4432 138.813 27.1061 138.017 28.4318C137.222 29.7576 136.82 31.7424 136.812 34.3864C136.812 36.1742 136.991 37.6667 137.347 38.8636C137.71 40.053 138.222 40.947 138.881 41.5455C139.54 42.1364 140.312 42.4318 141.199 42.4318ZM158.537 40.9773L158.548 35.1705H159.253L164.844 28.5455H170.401L162.889 37.3182H161.741L158.537 40.9773ZM154.151 46V22.7273H158.991V46H154.151ZM165.06 46L159.923 38.3977L163.151 34.9773L170.73 46H165.06ZM179.091 44.7386V28.6477H183.159V44.7386H179.091ZM173.08 38.7273V34.6591H189.17V38.7273H173.08Z" fill="#16A6EC"/>
<path d="M92.2699 72.2301C91.6477 72.2301 91.0831 72.1129 90.576 71.8786C90.0689 71.6399 89.6662 71.2969 89.3679 70.8494C89.0696 70.3977 88.9205 69.8523 88.9205 69.2131C88.9205 68.6506 89.0313 68.1946 89.2528 67.8452C89.4744 67.4915 89.7706 67.2145 90.1413 67.0142C90.5121 66.8139 90.9212 66.6648 91.3686 66.5668C91.8203 66.4645 92.2741 66.3835 92.7301 66.3239C93.3267 66.2472 93.8104 66.1896 94.1811 66.1513C94.5561 66.1087 94.8288 66.0384 94.9993 65.9403C95.174 65.8423 95.2614 65.6719 95.2614 65.429V65.3778C95.2614 64.7472 95.0888 64.2571 94.7436 63.9077C94.4027 63.5582 93.8849 63.3835 93.1903 63.3835C92.4702 63.3835 91.9055 63.5412 91.4964 63.8565C91.0874 64.1719 90.7997 64.5085 90.6335 64.8665L89.2017 64.3551C89.4574 63.7585 89.7983 63.294 90.2244 62.9616C90.6548 62.625 91.1236 62.3906 91.6307 62.2585C92.142 62.1222 92.6449 62.054 93.1392 62.054C93.4545 62.054 93.8168 62.0923 94.2259 62.169C94.6392 62.2415 95.0376 62.3928 95.4212 62.6229C95.8089 62.853 96.1307 63.2003 96.3864 63.6648C96.642 64.1293 96.7699 64.7514 96.7699 65.5312V72H95.2614V70.6705H95.1847C95.0824 70.8835 94.9119 71.1115 94.6733 71.3544C94.4347 71.5973 94.1172 71.804 93.7209 71.9744C93.3246 72.1449 92.8409 72.2301 92.2699 72.2301ZM92.5 70.875C93.0966 70.875 93.5994 70.7578 94.0085 70.5234C94.4219 70.2891 94.733 69.9865 94.9418 69.6158C95.1548 69.245 95.2614 68.8551 95.2614 68.446V67.0653C95.1974 67.142 95.0568 67.2124 94.8395 67.2763C94.6264 67.3359 94.3793 67.3892 94.098 67.4361C93.821 67.4787 93.5504 67.517 93.2862 67.5511C93.0263 67.581 92.8153 67.6065 92.6534 67.6278C92.2614 67.679 91.8949 67.7621 91.554 67.8771C91.2173 67.9879 90.9446 68.1562 90.7358 68.3821C90.5313 68.6037 90.429 68.9062 90.429 69.2898C90.429 69.8139 90.6229 70.2102 91.0107 70.4787C91.4027 70.7429 91.8991 70.875 92.5 70.875ZM103.512 72.2045C102.591 72.2045 101.799 71.9872 101.134 71.5526C100.469 71.1179 99.9579 70.5192 99.6 69.7564C99.242 68.9936 99.063 68.1222 99.063 67.142C99.063 66.1449 99.2463 65.2649 99.6127 64.5021C99.9835 63.7351 100.499 63.1364 101.16 62.706C101.824 62.2713 102.6 62.054 103.486 62.054C104.177 62.054 104.799 62.1818 105.353 62.4375C105.907 62.6932 106.361 63.0511 106.714 63.5114C107.068 63.9716 107.287 64.5085 107.373 65.1222H105.864C105.749 64.6747 105.493 64.2784 105.097 63.9332C104.705 63.5838 104.177 63.4091 103.512 63.4091C102.924 63.4091 102.408 63.5625 101.965 63.8693C101.526 64.1719 101.183 64.6001 100.936 65.1541C100.693 65.7038 100.572 66.3494 100.572 67.0909C100.572 67.8494 100.691 68.5099 100.93 69.0724C101.172 69.6349 101.513 70.0717 101.952 70.3828C102.395 70.6939 102.915 70.8494 103.512 70.8494C103.904 70.8494 104.26 70.7812 104.579 70.6449C104.899 70.5085 105.17 70.3125 105.391 70.0568C105.613 69.8011 105.77 69.4943 105.864 69.1364H107.373C107.287 69.7159 107.077 70.2379 106.74 70.7024C106.407 71.1626 105.966 71.5291 105.417 71.8018C104.871 72.0703 104.236 72.2045 103.512 72.2045ZM113.848 62.1818V63.4602H108.76V62.1818H113.848ZM110.243 59.8295H111.751V69.1875C111.751 69.6136 111.813 69.9332 111.937 70.1463C112.064 70.3551 112.226 70.4957 112.422 70.5682C112.623 70.6364 112.834 70.6705 113.055 70.6705C113.221 70.6705 113.358 70.6619 113.464 70.6449C113.571 70.6236 113.656 70.6065 113.72 70.5938L114.027 71.9489C113.925 71.9872 113.782 72.0256 113.599 72.0639C113.415 72.1065 113.183 72.1278 112.902 72.1278C112.476 72.1278 112.058 72.0362 111.649 71.853C111.244 71.6697 110.907 71.3906 110.639 71.0156C110.375 70.6406 110.243 70.1676 110.243 69.5966V59.8295ZM116.117 72V62.1818H117.626V72H116.117ZM116.884 60.5455C116.59 60.5455 116.336 60.4453 116.123 60.245C115.915 60.0447 115.81 59.804 115.81 59.5227C115.81 59.2415 115.915 59.0007 116.123 58.8004C116.336 58.6001 116.59 58.5 116.884 58.5C117.178 58.5 117.43 58.6001 117.638 58.8004C117.851 59.0007 117.958 59.2415 117.958 59.5227C117.958 59.804 117.851 60.0447 117.638 60.245C117.43 60.4453 117.178 60.5455 116.884 60.5455ZM128.417 62.1818L124.786 72H123.252L119.621 62.1818H121.258L123.968 70.0057H124.07L126.781 62.1818H128.417ZM134.173 72.2045C133.227 72.2045 132.411 71.9957 131.725 71.5781C131.043 71.1562 130.517 70.5682 130.146 69.8139C129.779 69.0554 129.596 68.1733 129.596 67.1676C129.596 66.1619 129.779 65.2756 130.146 64.5085C130.517 63.7372 131.032 63.1364 131.693 62.706C132.358 62.2713 133.133 62.054 134.02 62.054C134.531 62.054 135.036 62.1392 135.534 62.3097C136.033 62.4801 136.487 62.7571 136.896 63.1406C137.305 63.5199 137.631 64.0227 137.874 64.6491C138.117 65.2756 138.238 66.0469 138.238 66.9631V67.6023H130.67V66.2983H136.704C136.704 65.7443 136.593 65.25 136.372 64.8153C136.154 64.3807 135.843 64.0376 135.439 63.7862C135.038 63.5348 134.565 63.4091 134.02 63.4091C133.419 63.4091 132.899 63.5582 132.46 63.8565C132.025 64.1506 131.691 64.5341 131.456 65.0071C131.222 65.4801 131.105 65.9872 131.105 66.5284V67.3977C131.105 68.1392 131.233 68.7678 131.488 69.2834C131.748 69.7947 132.108 70.1847 132.569 70.4531C133.029 70.7173 133.564 70.8494 134.173 70.8494C134.569 70.8494 134.927 70.794 135.247 70.6832C135.571 70.5682 135.85 70.3977 136.084 70.1719C136.319 69.9418 136.5 69.6562 136.627 69.3153L138.085 69.7244C137.931 70.2188 137.674 70.6534 137.311 71.0284C136.949 71.3991 136.502 71.6889 135.969 71.8977C135.436 72.1023 134.838 72.2045 134.173 72.2045ZM152.55 64.3807L151.195 64.7642C151.11 64.5384 150.984 64.3189 150.818 64.1058C150.656 63.8885 150.434 63.7095 150.153 63.5689C149.872 63.4283 149.512 63.358 149.073 63.358C148.472 63.358 147.971 63.4964 147.571 63.7734C147.174 64.0462 146.976 64.3935 146.976 64.8153C146.976 65.1903 147.113 65.4865 147.385 65.7038C147.658 65.9212 148.084 66.1023 148.664 66.2472L150.121 66.6051C150.999 66.8182 151.653 67.1442 152.083 67.5831C152.514 68.0178 152.729 68.5781 152.729 69.2642C152.729 69.8267 152.567 70.3295 152.243 70.7727C151.924 71.2159 151.476 71.5653 150.901 71.821C150.326 72.0767 149.657 72.2045 148.894 72.2045C147.892 72.2045 147.064 71.9872 146.407 71.5526C145.751 71.1179 145.336 70.483 145.161 69.6477L146.593 69.2898C146.729 69.8182 146.987 70.2145 147.366 70.4787C147.75 70.7429 148.25 70.875 148.868 70.875C149.571 70.875 150.13 70.7259 150.543 70.4276C150.961 70.125 151.169 69.7628 151.169 69.3409C151.169 69 151.05 68.7145 150.811 68.4844C150.573 68.25 150.206 68.0753 149.712 67.9602L148.076 67.5767C147.176 67.3636 146.516 67.0334 146.094 66.5859C145.676 66.1342 145.468 65.5696 145.468 64.892C145.468 64.3381 145.623 63.848 145.934 63.4219C146.25 62.9957 146.678 62.6612 147.219 62.4183C147.765 62.1754 148.382 62.054 149.073 62.054C150.044 62.054 150.807 62.267 151.361 62.6932C151.919 63.1193 152.316 63.6818 152.55 64.3807ZM159.27 62.1818V63.4602H154.182V62.1818H159.27ZM155.665 59.8295H157.173V69.1875C157.173 69.6136 157.235 69.9332 157.358 70.1463C157.486 70.3551 157.648 70.4957 157.844 70.5682C158.045 70.6364 158.256 70.6705 158.477 70.6705C158.643 70.6705 158.78 70.6619 158.886 70.6449C158.993 70.6236 159.078 70.6065 159.142 70.5938L159.449 71.9489C159.346 71.9872 159.204 72.0256 159.02 72.0639C158.837 72.1065 158.605 72.1278 158.324 72.1278C157.898 72.1278 157.48 72.0362 157.071 71.853C156.666 71.6697 156.329 71.3906 156.061 71.0156C155.797 70.6406 155.665 70.1676 155.665 69.5966V59.8295ZM167.726 67.9858V62.1818H169.235V72H167.726V70.3381H167.624C167.394 70.8366 167.036 71.2607 166.55 71.6101C166.064 71.9553 165.451 72.1278 164.709 72.1278C164.096 72.1278 163.55 71.9936 163.073 71.7251C162.596 71.4524 162.221 71.0433 161.948 70.4979C161.675 69.9482 161.539 69.2557 161.539 68.4205V62.1818H163.047V68.3182C163.047 69.0341 163.248 69.6051 163.648 70.0312C164.053 70.4574 164.569 70.6705 165.195 70.6705C165.57 70.6705 165.952 70.5746 166.339 70.3828C166.731 70.1911 167.059 69.897 167.324 69.5007C167.592 69.1044 167.726 68.5994 167.726 67.9858ZM175.705 72.2045C174.887 72.2045 174.165 71.9979 173.538 71.5845C172.912 71.1669 172.422 70.5788 172.068 69.8203C171.714 69.0575 171.538 68.1562 171.538 67.1165C171.538 66.0852 171.714 65.1903 172.068 64.4318C172.422 63.6733 172.914 63.0874 173.545 62.674C174.175 62.2607 174.904 62.054 175.731 62.054C176.37 62.054 176.875 62.1605 177.246 62.3736C177.621 62.5824 177.906 62.821 178.102 63.0895C178.303 63.3537 178.458 63.571 178.569 63.7415H178.697V58.9091H180.205V72H178.748V70.4915H178.569C178.458 70.6705 178.3 70.8963 178.096 71.169C177.891 71.4375 177.599 71.6783 177.22 71.8913C176.841 72.1001 176.336 72.2045 175.705 72.2045ZM175.91 70.8494C176.515 70.8494 177.026 70.6918 177.444 70.3764C177.862 70.0568 178.179 69.6158 178.396 69.0533C178.614 68.4865 178.722 67.8324 178.722 67.0909C178.722 66.358 178.616 65.7166 178.403 65.1669C178.19 64.6129 177.874 64.1825 177.457 63.8757C177.039 63.5646 176.523 63.4091 175.91 63.4091C175.271 63.4091 174.738 63.5732 174.312 63.9013C173.89 64.2251 173.572 64.6662 173.359 65.2244C173.151 65.7784 173.046 66.4006 173.046 67.0909C173.046 67.7898 173.153 68.4247 173.366 68.9957C173.583 69.5625 173.903 70.0142 174.325 70.3509C174.751 70.6832 175.279 70.8494 175.91 70.8494ZM187.294 72.2045C186.348 72.2045 185.532 71.9957 184.846 71.5781C184.164 71.1562 183.638 70.5682 183.267 69.8139C182.901 69.0554 182.717 68.1733 182.717 67.1676C182.717 66.1619 182.901 65.2756 183.267 64.5085C183.638 63.7372 184.153 63.1364 184.814 62.706C185.479 62.2713 186.254 62.054 187.141 62.054C187.652 62.054 188.157 62.1392 188.656 62.3097C189.154 62.4801 189.608 62.7571 190.017 63.1406C190.426 63.5199 190.752 64.0227 190.995 64.6491C191.238 65.2756 191.359 66.0469 191.359 66.9631V67.6023H183.791V66.2983H189.825C189.825 65.7443 189.714 65.25 189.493 64.8153C189.276 64.3807 188.964 64.0376 188.56 63.7862C188.159 63.5348 187.686 63.4091 187.141 63.4091C186.54 63.4091 186.02 63.5582 185.581 63.8565C185.146 64.1506 184.812 64.5341 184.577 65.0071C184.343 65.4801 184.226 65.9872 184.226 66.5284V67.3977C184.226 68.1392 184.354 68.7678 184.609 69.2834C184.869 69.7947 185.229 70.1847 185.69 70.4531C186.15 70.7173 186.685 70.8494 187.294 70.8494C187.69 70.8494 188.048 70.794 188.368 70.6832C188.692 70.5682 188.971 70.3977 189.205 70.1719C189.44 69.9418 189.621 69.6562 189.749 69.3153L191.206 69.7244C191.053 70.2188 190.795 70.6534 190.433 71.0284C190.07 71.3991 189.623 71.6889 189.09 71.8977C188.558 72.1023 187.959 72.2045 187.294 72.2045ZM195.163 66.0938V72H193.654V62.1818H195.112V63.7159H195.239C195.469 63.2173 195.819 62.8168 196.288 62.5142C196.756 62.2074 197.362 62.054 198.103 62.054C198.768 62.054 199.349 62.1903 199.848 62.4631C200.347 62.7315 200.734 63.1406 201.011 63.6903C201.288 64.2358 201.427 64.9261 201.427 65.7614V72H199.918V65.8636C199.918 65.0923 199.718 64.4915 199.317 64.0611C198.917 63.6264 198.367 63.4091 197.668 63.4091C197.187 63.4091 196.756 63.5135 196.377 63.7223C196.002 63.9311 195.706 64.2358 195.489 64.6364C195.271 65.0369 195.163 65.5227 195.163 66.0938ZM208.453 62.1818V63.4602H203.365V62.1818H208.453ZM204.848 59.8295H206.357V69.1875C206.357 69.6136 206.419 69.9332 206.542 70.1463C206.67 70.3551 206.832 70.4957 207.028 70.5682C207.228 70.6364 207.439 70.6705 207.661 70.6705C207.827 70.6705 207.963 70.6619 208.07 70.6449C208.176 70.6236 208.262 70.6065 208.325 70.5938L208.632 71.9489C208.53 71.9872 208.387 72.0256 208.204 72.0639C208.021 72.1065 207.789 72.1278 207.507 72.1278C207.081 72.1278 206.664 72.0362 206.254 71.853C205.85 71.6697 205.513 71.3906 205.244 71.0156C204.98 70.6406 204.848 70.1676 204.848 69.5966V59.8295ZM217.501 64.3807L216.146 64.7642C216.061 64.5384 215.935 64.3189 215.769 64.1058C215.607 63.8885 215.385 63.7095 215.104 63.5689C214.823 63.4283 214.463 63.358 214.024 63.358C213.423 63.358 212.922 63.4964 212.522 63.7734C212.126 64.0462 211.927 64.3935 211.927 64.8153C211.927 65.1903 212.064 65.4865 212.336 65.7038C212.609 65.9212 213.035 66.1023 213.615 66.2472L215.072 66.6051C215.95 66.8182 216.604 67.1442 217.035 67.5831C217.465 68.0178 217.68 68.5781 217.68 69.2642C217.68 69.8267 217.518 70.3295 217.194 70.7727C216.875 71.2159 216.427 71.5653 215.852 71.821C215.277 72.0767 214.608 72.2045 213.845 72.2045C212.844 72.2045 212.015 71.9872 211.358 71.5526C210.702 71.1179 210.287 70.483 210.112 69.6477L211.544 69.2898C211.68 69.8182 211.938 70.2145 212.317 70.4787C212.701 70.7429 213.202 70.875 213.819 70.875C214.523 70.875 215.081 70.7259 215.494 70.4276C215.912 70.125 216.121 69.7628 216.121 69.3409C216.121 69 216.001 68.7145 215.763 68.4844C215.524 68.25 215.157 68.0753 214.663 67.9602L213.027 67.5767C212.128 67.3636 211.467 67.0334 211.045 66.5859C210.628 66.1342 210.419 65.5696 210.419 64.892C210.419 64.3381 210.574 63.848 210.885 63.4219C211.201 62.9957 211.629 62.6612 212.17 62.4183C212.716 62.1754 213.334 62.054 214.024 62.054C214.996 62.054 215.758 62.267 216.312 62.6932C216.871 63.1193 217.267 63.6818 217.501 64.3807Z" fill="#333333"/>
</svg>
