<svg width="97" height="27" viewBox="0 0 97 27" fill="none" xmlns="http://www.w3.org/2000/svg">
<path fill-rule="evenodd" clip-rule="evenodd" d="M59.3774 5.44263H46.5876V9.61354H50.8622V18.5371H55.0321V9.61354H59.3774V5.44263ZM71.8746 18.5029L67.8439 5.44263H62.7684L58.7382 18.5029H62.9086L65.3062 9.2167L67.7048 18.5029H71.8746ZM84.6429 5.44263H71.8537V9.61354H76.1283V18.5371H80.2976V9.61354H84.6429V5.44263ZM97 18.5029L92.9682 5.44263H87.8943L83.8625 18.5029H88.0345L90.4321 9.2167L92.8291 18.5029H97ZM15.4915 19.4472C16.3999 15.5881 17.0738 11.8212 17.0738 11.8212C17.0738 11.8212 17.4127 10.5789 16.735 9.73165C16.0572 8.88444 13.9676 9.16702 13.9676 9.16702C13.9676 9.16702 10.7217 9.20566 7.41348 9.60415C4.46729 9.95959 1.46095 10.5441 0.352681 10.7687C0.120983 11.5605 0.00225099 12.381 0 13.206C0 19.0206 5.81068 23.9537 13.8776 25.716C14.301 24.1772 14.9373 21.7979 15.4915 19.4472Z" fill="#2D509F"/>
<path fill-rule="evenodd" clip-rule="evenodd" d="M21.4876 17.0181C21.4489 12.3416 21.5797 7.98031 21.5797 7.98031C21.5797 7.98031 21.4296 7.32351 21.8485 7.00229C22.2774 6.6739 23.2742 6.68162 23.2742 6.68162C23.2742 6.68162 27.141 6.79035 31.4741 7.34614C34.6378 7.75291 38.0586 8.40529 39.6035 8.71381C36.7632 3.63167 29.2416 0 20.408 0C11.5396 0 3.99647 3.66093 1.18164 8.77287C2.53607 8.50022 6.21797 7.78216 9.60846 7.34669C13.9416 6.7909 17.8073 6.68217 17.8073 6.68217C17.8073 6.68217 18.8052 6.67445 19.2335 7.00284C19.6524 7.32406 19.5023 7.98086 19.5023 7.98086C19.5023 7.98086 19.6337 12.3422 19.5945 17.0187C19.5636 20.6029 19.4532 24.362 19.3858 26.3937C19.7242 26.4047 20.0642 26.4108 20.4075 26.4108C20.8402 26.4108 21.269 26.3992 21.6951 26.3815C21.6283 24.346 21.5185 20.5951 21.4876 17.0181Z" fill="#2D509F"/>
<path fill-rule="evenodd" clip-rule="evenodd" d="M33.6673 9.60355C30.3591 9.20506 27.1126 9.16643 27.1126 9.16643C27.1126 9.16643 25.0236 8.88439 24.3447 9.73105C23.6675 10.5783 24.0069 11.8206 24.0069 11.8206C24.0069 11.8206 24.6803 15.5875 25.5888 19.4466C26.1357 21.7697 26.7638 24.1198 27.1871 25.6602C35.1238 23.8515 40.8137 18.9582 40.8137 13.2054C40.8137 12.3521 40.684 11.5198 40.4455 10.7118C39.1662 10.4563 36.3905 9.93195 33.6673 9.60355Z" fill="#2D509F"/>
</svg>
