<svg width="60" height="60" viewBox="0 0 60 60" fill="none" xmlns="http://www.w3.org/2000/svg">
<path d="M25.3963 2.72223C23.4861 3.23733 21.8335 4.72898 21.1359 6.57476C20.6638 7.84106 20.8677 8.56005 21.6832 8.56005C22.1554 8.56005 22.4344 8.29177 22.5954 7.68009C22.9388 6.42453 23.9261 5.24408 25.0958 4.69678C26.1045 4.21387 27.006 4.13876 31.2126 4.18168L34.9579 4.21387L35.2154 4.51435C35.3549 4.67532 35.473 4.9436 35.473 5.10457C35.4837 5.55529 35.8378 6.25282 36.2027 6.51038C36.3851 6.62842 36.7822 6.78939 37.1041 6.84304C38.1021 7.03621 38.1021 7.01475 38.1343 9.82635C38.1773 12.5092 38.1236 12.8526 37.6729 12.8526C37.2758 12.8526 37.0075 12.6809 36.8144 12.3267C36.7285 12.155 36.4924 11.9082 36.2885 11.7794C35.9344 11.5648 35.8271 11.5541 34.3247 11.6292C32.9833 11.6936 32.6292 11.6721 32.0926 11.5219C30.8478 11.157 29.7424 10.4488 28.7337 9.3971C28.4762 9.12881 28.0147 8.77468 27.7142 8.60298C26.4587 7.92691 24.806 8.42055 24.1192 9.68684C23.9797 9.93366 23.9261 10.3844 23.9046 11.6399L23.8617 13.2711L23.2607 13.0457C22.9173 12.9277 22.5847 12.756 22.5203 12.6594C22.4344 12.5628 22.3808 12.1872 22.3808 11.7687C22.3808 11.1141 22.3486 11.0175 22.1018 10.8244C21.7262 10.5239 21.3828 10.5453 21.0179 10.8566C20.7389 11.0926 20.7174 11.1785 20.696 11.9297C20.6852 12.5414 20.6208 12.8848 20.4277 13.2604C20.213 13.7111 20.1809 13.915 20.1809 15.1598C20.1809 16.072 20.2345 16.7051 20.3311 16.9734C20.5994 17.7461 21.651 18.6475 22.2627 18.6475C22.413 18.6475 22.4988 18.7333 22.5417 18.9372C22.9603 20.9333 23.8295 22.4678 25.1173 23.4766C25.7182 23.9595 25.7289 23.9595 25.6753 24.4531C25.6538 24.7321 25.525 25.1292 25.3855 25.3438C24.9885 25.9984 24.5056 26.2345 22.9066 26.5779C21.2218 26.9428 20.0735 27.3613 18.9253 28.0374L18.099 28.5203H16.5215C15.1264 28.5203 14.8796 28.5525 14.4611 28.7456C13.7528 29.0998 13.4309 29.6578 13.3772 30.6558C13.345 31.4285 13.3235 31.4929 12.9372 31.9114C12.7119 32.1582 12.4758 32.5445 12.4114 32.7699C12.3363 33.0274 12.2933 34.401 12.2933 36.2146V39.2516L11.6065 39.6808C10.8017 40.1959 10.3188 40.7111 9.99684 41.3871C9.79295 41.8271 9.77148 42.0739 9.77148 43.7587C9.77148 45.6045 9.77148 45.6475 10.0827 46.3128C10.4476 47.1069 11.2417 47.8796 11.8748 48.062L12.2933 48.1908V50.5087C12.2933 52.7087 12.3041 52.8589 12.5402 53.3096C12.9694 54.1788 13.1948 54.2325 16.1351 54.3076C20.9964 54.4257 24.0441 55.1017 27.5103 56.8187L28.7444 57.4412H30H31.2556L32.4897 56.8187C35.9559 55.1017 39.0036 54.4257 43.8648 54.3076C46.1828 54.254 46.4404 54.2218 46.8052 54.0179C47.5886 53.5779 47.653 53.3633 47.6852 50.6053L47.7174 48.18L47.9857 48.1157C48.7369 47.9225 49.4988 47.1928 49.9495 46.2269C50.2178 45.6582 50.2285 45.5509 50.2285 43.7587C50.2285 42.0739 50.2071 41.8271 50.0032 41.3871C49.6919 40.7111 49.1983 40.1959 48.4149 39.6916L47.7281 39.2623L47.6852 38.5433C47.653 37.9531 47.5993 37.7921 47.3955 37.6312C47.052 37.3522 46.5155 37.3736 46.2257 37.6741C46.0111 37.8995 45.9896 38.0497 45.9682 39.5735L45.936 41.2369L45.1311 41.3013C44.1761 41.3764 43.897 41.4837 43.3712 41.9452C42.6093 42.6105 42.5127 42.9432 42.4698 44.9714C42.4376 46.6133 42.4483 46.8064 42.6522 47.225C43.06 48.062 43.7146 48.3732 45.0882 48.3732H45.9896V50.4658V52.5584H44.498C40.7313 52.5584 36.6963 53.2023 34.0564 54.2218C33.5091 54.4364 32.9726 54.6403 32.876 54.6725C32.6936 54.7261 32.6828 54.2218 32.6828 45.0572V35.3776L33.4126 35.0449C35.0544 34.2937 37.4583 33.6284 39.6582 33.2957C40.2806 33.2099 41.8152 33.0704 43.0707 33.006C45.9789 32.845 45.9145 32.8235 45.9896 34.0576C46.0218 34.5406 46.1077 35.002 46.1828 35.0986C46.5262 35.5064 47.3633 35.3883 47.5886 34.8947C47.7388 34.562 47.7388 33.3172 47.5886 32.7699C47.5242 32.5445 47.2881 32.1582 47.0735 31.9114C46.6872 31.5036 46.655 31.4177 46.6121 30.6451C46.5477 29.6256 46.2472 29.089 45.5389 28.7456C45.1204 28.5525 44.8736 28.5203 43.4785 28.5203H41.901L41.0747 28.0374C39.9265 27.3613 38.7782 26.9428 37.0827 26.5672C36.1598 26.374 35.4944 26.1594 35.2476 25.9984C34.7862 25.698 34.4106 25.1399 34.3354 24.6356C34.2818 24.3351 34.314 24.26 34.5823 24.099C36.3207 23.0795 37.5226 21.2659 37.9948 18.948C38.027 18.7548 38.1451 18.6368 38.3704 18.5509C38.907 18.3685 39.3255 18.0143 39.5831 17.5422L39.8191 17.0914L39.7762 12.0477C39.7548 8.3347 39.7118 6.91816 39.6153 6.68208C39.2826 5.89869 38.5421 5.32993 37.6514 5.17969C37.2436 5.11531 37.19 5.07238 37.19 4.82556C37.19 4.41777 36.7393 3.51634 36.3744 3.17294C35.7091 2.55052 35.6876 2.55052 30.6224 2.56125C26.9201 2.56125 25.8577 2.59345 25.3963 2.72223ZM26.7913 10.0624C26.9094 10.1268 27.3172 10.4917 27.7142 10.878C28.9805 12.1121 30.5688 13.0028 32.0497 13.2926C32.436 13.3677 33.2087 13.3999 34.0242 13.3677L35.3549 13.314L35.6769 13.7111C36.1168 14.2691 36.7822 14.5696 37.5441 14.5696H38.1558V15.471C38.1558 15.9754 38.1129 16.5012 38.0485 16.6515C37.9626 16.8983 37.8875 16.9305 37.469 16.9305C36.7071 16.9305 36.4388 17.231 36.3315 18.2182C36.2778 18.6582 36.1598 19.2592 36.0632 19.5596C35.312 21.7918 33.155 23.4229 30.6546 23.6483C28.7122 23.82 26.3621 22.6932 25.2353 21.0298C24.6451 20.1606 24.3553 19.3879 24.2158 18.2719C24.1622 17.789 24.0441 17.3705 23.9475 17.2739C23.8617 17.1773 23.4861 17.07 23.1212 17.0271C22.6169 16.9734 22.3915 16.8876 22.1876 16.6729C21.9301 16.4261 21.9086 16.2973 21.8657 15.3852L21.8227 14.3764L22.7027 14.6876C23.7758 15.0632 24.3661 15.0847 24.8597 14.752C25.5036 14.3228 25.6002 13.9794 25.6002 12.1443C25.6002 10.6097 25.6109 10.5239 25.847 10.3093C26.2226 9.95512 26.4694 9.90147 26.7913 10.0624ZM28.444 25.1721C29.2595 25.3867 31.3307 25.3867 32.1033 25.1721L32.6506 25.0219L32.7687 25.4619C32.8331 25.7087 33.0584 26.1594 33.2623 26.4706C33.4769 26.7818 33.6486 27.0501 33.6486 27.0716C33.6486 27.1467 32.3072 27.6832 31.7063 27.8335C30.3005 28.1876 28.1542 27.8549 26.9952 27.0823L26.5767 26.814L26.9523 26.1057C27.1562 25.7087 27.3172 25.3116 27.3172 25.2043C27.3172 24.9468 27.4352 24.8502 27.6284 24.9253C27.725 24.9682 28.0898 25.0755 28.444 25.1721ZM25.568 28.2413C26.2762 28.7349 27.0167 29.0998 27.9611 29.4003C28.6479 29.6041 28.9913 29.6471 30.2683 29.6471C31.5453 29.6471 31.8887 29.6041 32.5755 29.4003C33.434 29.1212 34.314 28.7027 34.9793 28.252L35.3978 27.973L36.4817 28.2091C37.7802 28.4881 38.628 28.7349 38.5529 28.7993C38.5314 28.8315 37.909 28.971 37.1792 29.1212C34.7325 29.6149 32.8116 30.3017 31.1912 31.2568C30.6439 31.5787 30.0966 31.847 29.9893 31.847C29.882 31.847 29.4312 31.6216 28.9805 31.3534C27.3601 30.3661 25.4499 29.6685 22.9817 29.1534C22.1661 28.9925 21.4686 28.8315 21.4471 28.7993C21.372 28.7242 22.3164 28.4559 23.5934 28.1983C24.1944 28.0696 24.7095 27.9408 24.7309 27.9193C24.849 27.812 25.1065 27.9086 25.568 28.2413ZM21.0394 30.5485C24.1192 31.01 26.126 31.6968 28.444 33.0704C29.1415 33.4782 29.2381 33.5103 30.0107 33.5103C30.7619 33.5103 30.8692 33.4782 31.4595 33.1133C34.3998 31.2997 37.8875 30.3983 42.4698 30.2695C44.8199 30.2051 44.9165 30.2266 44.9165 30.8275V31.1817L43.3927 31.2568C38.3704 31.4929 34.7862 32.3299 31.6097 34.0147C30.7834 34.4547 30.2576 34.6693 30 34.6693C29.7424 34.6693 29.2166 34.4547 28.3903 34.0147C25.2138 32.3299 21.6296 31.4929 16.6181 31.2568L15.0835 31.1817V30.8382C15.0835 30.2158 15.1371 30.2051 17.498 30.2695C18.7965 30.3124 20.1916 30.4197 21.0394 30.5485ZM19.4726 33.1991C22.3057 33.5318 25.2353 34.3152 26.9952 35.2274L27.3172 35.3991V45.0572C27.3172 54.2218 27.3064 54.7261 27.1347 54.6725C27.0274 54.6403 26.5016 54.4364 25.965 54.2325C23.3144 53.2023 19.2687 52.5584 15.502 52.5584H14.0104V50.4658V48.3732L14.9547 48.3625C16.06 48.3517 16.4678 48.223 16.9722 47.7401C17.498 47.2142 17.5731 46.8386 17.5302 44.8855C17.4873 42.9539 17.38 42.5998 16.6288 41.9452C16.103 41.4837 15.8239 41.3764 14.8689 41.3013L14.064 41.2369L14.0318 37.2663L14.0104 33.2957L14.2464 33.0918C14.4718 32.9094 14.6328 32.8987 16.3176 32.963C17.3263 33.006 18.7429 33.1133 19.4726 33.1991ZM30.4829 36.3541L30.9658 36.279V45.9694C30.9658 54.6939 30.9444 55.649 30.7941 55.7134C30.5795 55.7993 29.4205 55.7993 29.2059 55.7134C29.0556 55.649 29.0342 54.6939 29.0342 45.9694V36.279L29.5171 36.3541C29.7854 36.3971 30.2146 36.3971 30.4829 36.3541ZM12.9158 42.5032C13.2592 42.8144 13.8923 42.9968 14.5791 43.0076C15.1264 43.0076 15.2445 43.0505 15.5235 43.3188L15.8347 43.63V45.0143C15.8347 45.9479 15.7917 46.4416 15.7059 46.5274C15.62 46.6133 15.1479 46.6562 14.2786 46.6562C11.9392 46.6455 11.4456 46.1626 11.4348 43.7802C11.4348 42.4925 11.5529 41.9988 12.0036 41.5266L12.229 41.2798L12.465 41.7949C12.5831 42.0739 12.787 42.3959 12.9158 42.5032ZM48.3613 42.0954C48.5222 42.4388 48.5652 42.7822 48.5544 43.7587C48.5544 46.1626 48.0715 46.6455 45.7214 46.6562C44.8521 46.6562 44.38 46.6133 44.2941 46.5274C44.2083 46.4416 44.1653 45.9479 44.1653 45.0143V43.63L44.4765 43.3188C44.7448 43.0505 44.8736 43.0076 45.3672 43.0076C46.5369 43.0076 47.2345 42.6105 47.5564 41.7627C47.7281 41.3013 47.7388 41.2905 47.9535 41.473C48.0715 41.5803 48.254 41.8593 48.3613 42.0954Z" fill="#16A6EC"/>
<path d="M41.9117 37.6099C39.2396 37.8674 37.8016 38.1142 35.9237 38.6293C35.0008 38.8762 34.6681 39.0157 34.5071 39.2303C34.2496 39.5522 34.2389 39.8742 34.4642 40.1961C34.7862 40.6576 35.0115 40.6576 36.7285 40.2176C38.4885 39.7561 40.6776 39.4127 42.4805 39.2947C43.8005 39.2088 44.0258 39.1015 44.1224 38.4791C44.176 38.1572 44.1439 38.0391 43.9185 37.8138C43.6717 37.5669 43.5536 37.5347 42.9634 37.5562C42.5878 37.5562 42.1156 37.5884 41.9117 37.6099Z" fill="#16A6EC"/>
</svg>
