<svg width="42" height="56" viewBox="0 0 42 56" fill="none" xmlns="http://www.w3.org/2000/svg">
<path d="M16.3963 0.722225C14.4861 1.23733 12.8335 2.72898 12.1359 4.57476C11.6638 5.84106 11.8677 6.56005 12.6832 6.56005C13.1554 6.56005 13.4344 6.29177 13.5954 5.68009C13.9388 4.42453 14.9261 3.24408 16.0958 2.69678C17.1045 2.21387 18.006 2.13876 22.2126 2.18168L25.9579 2.21387L26.2154 2.51435C26.3549 2.67532 26.473 2.9436 26.473 3.10457C26.4837 3.55529 26.8378 4.25282 27.2027 4.51038C27.3851 4.62842 27.7822 4.78939 28.1041 4.84304C29.1021 5.03621 29.1021 5.01475 29.1343 7.82635C29.1773 10.5092 29.1236 10.8526 28.6729 10.8526C28.2758 10.8526 28.0075 10.6809 27.8144 10.3267C27.7285 10.155 27.4924 9.90822 27.2885 9.77945C26.9344 9.56482 26.8271 9.55409 25.3247 9.62921C23.9833 9.6936 23.6292 9.67213 23.0926 9.5219C21.8478 9.15703 20.7424 8.44876 19.7337 7.3971C19.4762 7.12881 19.0147 6.77468 18.7142 6.60298C17.4587 5.92691 15.806 6.42055 15.1192 7.68684C14.9797 7.93366 14.9261 8.38438 14.9046 9.63994L14.8617 11.2711L14.2607 11.0457C13.9173 10.9277 13.5847 10.756 13.5203 10.6594C13.4344 10.5628 13.3808 10.1872 13.3808 9.76871C13.3808 9.11411 13.3486 9.01752 13.1018 8.82436C12.7262 8.52388 12.3828 8.54535 12.0179 8.85656C11.7389 9.09264 11.7174 9.17849 11.696 9.92969C11.6852 10.5414 11.6208 10.8848 11.4277 11.2604C11.213 11.7111 11.1809 11.915 11.1809 13.1598C11.1809 14.072 11.2345 14.7051 11.3311 14.9734C11.5994 15.7461 12.651 16.6475 13.2627 16.6475C13.413 16.6475 13.4988 16.7333 13.5417 16.9372C13.9603 18.9333 14.8295 20.4678 16.1173 21.4766C16.7182 21.9595 16.7289 21.9595 16.6753 22.4531C16.6538 22.7321 16.525 23.1292 16.3855 23.3438C15.9885 23.9984 15.5056 24.2345 13.9066 24.5779C12.2218 24.9428 11.0735 25.3613 9.92529 26.0374L9.09898 26.5203H7.52148C6.12641 26.5203 5.87959 26.5525 5.46107 26.7456C4.7528 27.0998 4.43086 27.6578 4.3772 28.6558C4.34501 29.4285 4.32355 29.4929 3.93722 29.9114C3.71186 30.1582 3.47577 30.5445 3.41139 30.7699C3.33627 31.0274 3.29334 32.401 3.29334 34.2146V37.2516L2.60654 37.6808C1.80169 38.1959 1.31878 38.7111 0.996842 39.3871C0.792947 39.8271 0.771484 40.0739 0.771484 41.7587C0.771484 43.6045 0.771484 43.6475 1.08269 44.3128C1.44756 45.1069 2.24167 45.8796 2.87482 46.062L3.29334 46.1908V48.5087C3.29334 50.7087 3.30407 50.8589 3.54016 51.3096C3.96941 52.1788 4.19477 52.2325 7.13515 52.3076C11.9964 52.4257 15.0441 53.1017 18.5103 54.8187L19.7444 55.4412H21H22.2556L23.4897 54.8187C26.9559 53.1017 30.0036 52.4257 34.8648 52.3076C37.1828 52.254 37.4404 52.2218 37.8052 52.0179C38.5886 51.5779 38.653 51.3633 38.6852 48.6053L38.7174 46.18L38.9857 46.1157C39.7369 45.9225 40.4988 45.1928 40.9495 44.2269C41.2178 43.6582 41.2285 43.5509 41.2285 41.7587C41.2285 40.0739 41.2071 39.8271 41.0032 39.3871C40.6919 38.7111 40.1983 38.1959 39.4149 37.6916L38.7281 37.2623L38.6852 36.5433C38.653 35.9531 38.5993 35.7921 38.3955 35.6312C38.052 35.3522 37.5155 35.3736 37.2257 35.6741C37.0111 35.8995 36.9896 36.0497 36.9682 37.5735L36.936 39.2369L36.1311 39.3013C35.1761 39.3764 34.897 39.4837 34.3712 39.9452C33.6093 40.6105 33.5127 40.9432 33.4698 42.9714C33.4376 44.6133 33.4483 44.8064 33.6522 45.225C34.06 46.062 34.7146 46.3732 36.0882 46.3732H36.9896V48.4658V50.5584H35.498C31.7313 50.5584 27.6963 51.2023 25.0564 52.2218C24.5091 52.4364 23.9726 52.6403 23.876 52.6725C23.6936 52.7261 23.6828 52.2218 23.6828 43.0572V33.3776L24.4126 33.0449C26.0544 32.2937 28.4583 31.6284 30.6582 31.2957C31.2806 31.2099 32.8152 31.0704 34.0707 31.006C36.9789 30.845 36.9145 30.8235 36.9896 32.0576C37.0218 32.5406 37.1077 33.002 37.1828 33.0986C37.5262 33.5064 38.3633 33.3883 38.5886 32.8947C38.7388 32.562 38.7388 31.3172 38.5886 30.7699C38.5242 30.5445 38.2881 30.1582 38.0735 29.9114C37.6872 29.5036 37.655 29.4177 37.6121 28.6451C37.5477 27.6256 37.2472 27.089 36.5389 26.7456C36.1204 26.5525 35.8736 26.5203 34.4785 26.5203H32.901L32.0747 26.0374C30.9265 25.3613 29.7782 24.9428 28.0827 24.5672C27.1598 24.374 26.4944 24.1594 26.2476 23.9984C25.7862 23.698 25.4106 23.1399 25.3354 22.6356C25.2818 22.3351 25.314 22.26 25.5823 22.099C27.3207 21.0795 28.5226 19.2659 28.9948 16.948C29.027 16.7548 29.1451 16.6368 29.3704 16.5509C29.907 16.3685 30.3255 16.0143 30.5831 15.5422L30.8191 15.0914L30.7762 10.0477C30.7548 6.3347 30.7118 4.91816 30.6153 4.68208C30.2826 3.89869 29.5421 3.32993 28.6514 3.17969C28.2436 3.11531 28.19 3.07238 28.19 2.82556C28.19 2.41777 27.7393 1.51634 27.3744 1.17294C26.7091 0.550522 26.6876 0.550522 21.6224 0.561253C17.9201 0.561253 16.8577 0.593449 16.3963 0.722225ZM17.7913 8.06244C17.9094 8.12683 18.3172 8.49169 18.7142 8.87802C19.9805 10.1121 21.5688 11.0028 23.0497 11.2926C23.436 11.3677 24.2087 11.3999 25.0242 11.3677L26.3549 11.314L26.6769 11.7111C27.1168 12.2691 27.7822 12.5696 28.5441 12.5696H29.1558V13.471C29.1558 13.9754 29.1129 14.5012 29.0485 14.6515C28.9626 14.8983 28.8875 14.9305 28.469 14.9305C27.7071 14.9305 27.4388 15.231 27.3315 16.2182C27.2778 16.6582 27.1598 17.2592 27.0632 17.5596C26.312 19.7918 24.155 21.4229 21.6546 21.6483C19.7122 21.82 17.3621 20.6932 16.2353 19.0298C15.6451 18.1606 15.3553 17.3879 15.2158 16.2719C15.1622 15.789 15.0441 15.3705 14.9475 15.2739C14.8617 15.1773 14.4861 15.07 14.1212 15.0271C13.6169 14.9734 13.3915 14.8876 13.1876 14.6729C12.9301 14.4261 12.9086 14.2973 12.8657 13.3852L12.8227 12.3764L13.7027 12.6876C14.7758 13.0632 15.3661 13.0847 15.8597 12.752C16.5036 12.3228 16.6002 11.9794 16.6002 10.1443C16.6002 8.60973 16.6109 8.52388 16.847 8.30926C17.2226 7.95512 17.4694 7.90147 17.7913 8.06244ZM19.444 23.1721C20.2595 23.3867 22.3307 23.3867 23.1033 23.1721L23.6506 23.0219L23.7687 23.4619C23.8331 23.7087 24.0584 24.1594 24.2623 24.4706C24.4769 24.7818 24.6486 25.0501 24.6486 25.0716C24.6486 25.1467 23.3072 25.6832 22.7063 25.8335C21.3005 26.1876 19.1542 25.8549 17.9952 25.0823L17.5767 24.814L17.9523 24.1057C18.1562 23.7087 18.3172 23.3116 18.3172 23.2043C18.3172 22.9468 18.4352 22.8502 18.6284 22.9253C18.725 22.9682 19.0898 23.0755 19.444 23.1721ZM16.568 26.2413C17.2762 26.7349 18.0167 27.0998 18.9611 27.4003C19.6479 27.6041 19.9913 27.6471 21.2683 27.6471C22.5453 27.6471 22.8887 27.6041 23.5755 27.4003C24.434 27.1212 25.314 26.7027 25.9793 26.252L26.3978 25.973L27.4817 26.2091C28.7802 26.4881 29.628 26.7349 29.5529 26.7993C29.5314 26.8315 28.909 26.971 28.1792 27.1212C25.7325 27.6149 23.8116 28.3017 22.1912 29.2568C21.6439 29.5787 21.0966 29.847 20.9893 29.847C20.882 29.847 20.4312 29.6216 19.9805 29.3534C18.3601 28.3661 16.4499 27.6685 13.9817 27.1534C13.1661 26.9925 12.4686 26.8315 12.4471 26.7993C12.372 26.7242 13.3164 26.4559 14.5934 26.1983C15.1944 26.0696 15.7095 25.9408 15.7309 25.9193C15.849 25.812 16.1065 25.9086 16.568 26.2413ZM12.0394 28.5485C15.1192 29.01 17.126 29.6968 19.444 31.0704C20.1415 31.4782 20.2381 31.5103 21.0107 31.5103C21.7619 31.5103 21.8692 31.4782 22.4595 31.1133C25.3998 29.2997 28.8875 28.3983 33.4698 28.2695C35.8199 28.2051 35.9165 28.2266 35.9165 28.8275V29.1817L34.3927 29.2568C29.3704 29.4929 25.7862 30.3299 22.6097 32.0147C21.7834 32.4547 21.2576 32.6693 21 32.6693C20.7424 32.6693 20.2166 32.4547 19.3903 32.0147C16.2138 30.3299 12.6296 29.4929 7.61806 29.2568L6.08348 29.1817V28.8382C6.08348 28.2158 6.13714 28.2051 8.49803 28.2695C9.79651 28.3124 11.1916 28.4197 12.0394 28.5485ZM10.4726 31.1991C13.3057 31.5318 16.2353 32.3152 17.9952 33.2274L18.3172 33.3991V43.0572C18.3172 52.2218 18.3064 52.7261 18.1347 52.6725C18.0274 52.6403 17.5016 52.4364 16.965 52.2325C14.3144 51.2023 10.2687 50.5584 6.502 50.5584H5.01035V48.4658V46.3732L5.95471 46.3625C7.06003 46.3517 7.46782 46.223 7.97219 45.7401C8.49803 45.2142 8.57314 44.8386 8.53022 42.8855C8.48729 40.9539 8.37998 40.5998 7.62879 39.9452C7.10296 39.4837 6.82394 39.3764 5.86886 39.3013L5.06401 39.2369L5.03181 35.2663L5.01035 31.2957L5.24644 31.0918C5.4718 30.9094 5.63277 30.8987 7.31758 30.963C8.32632 31.006 9.74286 31.1133 10.4726 31.1991ZM21.4829 34.3541L21.9658 34.279V43.9694C21.9658 52.6939 21.9444 53.649 21.7941 53.7134C21.5795 53.7993 20.4205 53.7993 20.2059 53.7134C20.0556 53.649 20.0342 52.6939 20.0342 43.9694V34.279L20.5171 34.3541C20.7854 34.3971 21.2146 34.3971 21.4829 34.3541ZM3.91576 40.5032C4.25916 40.8144 4.89231 40.9968 5.57911 41.0076C6.12641 41.0076 6.24445 41.0505 6.52347 41.3188L6.83467 41.63V43.0143C6.83467 43.9479 6.79175 44.4416 6.7059 44.5274C6.62005 44.6133 6.14787 44.6562 5.27863 44.6562C2.93921 44.6455 2.44557 44.1626 2.43484 41.7802C2.43484 40.4925 2.55288 39.9988 3.0036 39.5266L3.22895 39.2798L3.46504 39.7949C3.58309 40.0739 3.78698 40.3959 3.91576 40.5032ZM39.3613 40.0954C39.5222 40.4388 39.5652 40.7822 39.5544 41.7587C39.5544 44.1626 39.0715 44.6455 36.7214 44.6562C35.8521 44.6562 35.38 44.6133 35.2941 44.5274C35.2083 44.4416 35.1653 43.9479 35.1653 43.0143V41.63L35.4765 41.3188C35.7448 41.0505 35.8736 41.0076 36.3672 41.0076C37.5369 41.0076 38.2345 40.6105 38.5564 39.7627C38.7281 39.3013 38.7388 39.2905 38.9535 39.473C39.0715 39.5803 39.254 39.8593 39.3613 40.0954Z" fill="#16A6EC"/>
</svg>
